<?xml version="1.0" encoding="UTF-8"?>
<svg version="1.1" xmlns="http://www.w3.org/2000/svg" width="1115" height="708">
<path d="M0 0 C367.95 0 735.9 0 1115 0 C1115 233.64 1115 467.28 1115 708 C747.05 708 379.1 708 0 708 C0 474.36 0 240.72 0 0 Z " fill="#FEFEFE" transform="translate(0,0)"/>
<path d="M0 0 C3.15995548 2.93424437 3.46885144 5.84255537 4 10 C4.09290298 12.74063779 4.14224495 15.44832463 4.125 18.1875 C4.12306641 18.93056396 4.12113281 19.67362793 4.11914062 20.43920898 C4.07324905 26.32926475 3.70755284 32.15005422 3 38 C8.23146306 33.45780192 8.23146306 33.45780192 13.37109375 28.8125 C29.11110613 14.30650459 29.11110613 14.30650459 35.203125 13.66015625 C38 14 38 14 40 16 C40.4921875 19.3203125 40.4921875 19.3203125 40 23 C38.019192 25.03048343 36.44125254 26.34712215 34.125 27.875 C32.932376 28.72302984 31.74230222 29.57465657 30.5546875 30.4296875 C29.9575293 30.8534668 29.36037109 31.27724609 28.74511719 31.71386719 C21.4107785 36.99096196 21.4107785 36.99096196 16 44 C16.72058594 44.268125 17.44117188 44.53625 18.18359375 44.8125 C39.21267751 53.67913171 54.53926428 72.31704384 63 93 C69.99727585 112.40523593 70.26434003 134.06417319 65 154 C64.61714844 155.57587891 64.61714844 155.57587891 64.2265625 157.18359375 C58.62587034 177.76228374 47.03643298 195.26092278 33 211 C32.03320312 212.09441406 32.03320312 212.09441406 31.046875 213.2109375 C19.75044742 225.24408862 4.52093192 234.52682927 -11 240 C-11.99 240 -12.98 240 -14 240 C-14 240.66 -14 241.32 -14 242 C-13.12182617 242.27618164 -12.24365234 242.55236328 -11.33886719 242.83691406 C-8.26373954 243.908127 -5.48247666 245.14629617 -2.578125 246.609375 C27.78512128 261.68629729 58.68581917 268.51946839 92.37158203 271.87329102 C93.32661621 271.97826904 94.28165039 272.08324707 95.265625 272.19140625 C96.10899414 272.27592041 96.95236328 272.36043457 97.82128906 272.44750977 C100.42793041 273.10851709 101.41500639 273.84278724 103 276 C103.90074497 283.46331543 101.75076085 289.00884301 97.52734375 295.13671875 C87.57595306 307.48773557 71.62875735 311.83597687 56.48046875 313.76123047 C33.63910687 315.95993637 14.2564107 311.79599911 -6 301 C-3.41887899 315.48274591 -0.41386266 329.78853163 3.125 344.0625 C12.15403165 380.58549422 12.15403165 380.58549422 8.5703125 389.59375 C6.68301148 394.45217641 6.09906652 399.28489299 5.5 404.4375 C5.25094901 406.38700765 4.99961977 408.33622551 4.74609375 410.28515625 C4.56022705 411.72785889 4.56022705 411.72785889 4.37060547 413.19970703 C1.15847648 437.47053677 1.15847648 437.47053677 -4.859375 442.578125 C-8.80145826 445.27533986 -11.20517037 446.10278518 -16 446 C-15.97905273 446.79656006 -15.95810547 447.59312012 -15.93652344 448.41381836 C-15.58023239 464.23607232 -15.81919653 479.77836619 -17.75 495.5 C-17.86788879 496.49638992 -17.86788879 496.49638992 -17.98815918 497.51290894 C-22.51896136 535.05508919 -22.51896136 535.05508919 -35 546 C-39.75366258 549.27474534 -44.37293215 549.90658315 -50 549 C-58.31961098 544.56287415 -60.39016949 533.32924631 -63 525 C-63.25652344 525.82242188 -63.51304687 526.64484375 -63.77734375 527.4921875 C-66.62455352 535.79415268 -70.18934206 542.29805382 -77 548 C-79.01171875 548.73828125 -79.01171875 548.73828125 -81 549 C-81.68578125 549.10183594 -82.3715625 549.20367188 -83.078125 549.30859375 C-88.7223716 549.643594 -91.77142168 548.38868471 -96.17578125 544.8984375 C-112.38740728 528.02723782 -110.1732493 497.67455406 -110.13037109 476.10351562 C-110.12495443 472.84761014 -110.13037291 469.5918391 -110.13671875 466.3359375 C-110.13605891 464.26302053 -110.1347797 462.19010364 -110.1328125 460.1171875 C-110.13483673 459.14538544 -110.13686096 458.17358337 -110.13894653 457.17233276 C-110.13579437 456.27354401 -110.13264221 455.37475525 -110.12939453 454.44873047 C-110.12820114 453.26511429 -110.12820114 453.26511429 -110.12698364 452.05758667 C-110 450 -110 450 -109 447 C-109.86625 446.9175 -110.7325 446.835 -111.625 446.75 C-116.60191698 445.64401845 -119.85788986 443.61470744 -122.8125 439.4375 C-124.7615945 435.43672708 -125.19783075 432.17700877 -125.4296875 427.76953125 C-125.5013916 426.50278564 -125.5730957 425.23604004 -125.64697266 423.9309082 C-125.70247284 422.92309799 -125.70247284 422.92309799 -125.75909424 421.89492798 C-126.41016588 410.19740939 -127.33461288 398.61835391 -129.03466797 387.0168457 C-129.41190574 384.34729369 -129.72765833 381.68223449 -130 379 C-130.094021 378.1042627 -130.18804199 377.20852539 -130.28491211 376.28564453 C-130.81665993 366.59472713 -127.51483181 358.23262965 -124.3125 349.25 C-123.50741637 346.93808965 -122.70757377 344.62440703 -121.90776062 342.31066895 C-121.37975248 340.78539097 -120.84950213 339.26088728 -120.31697083 337.73718262 C-118.10196007 331.38053173 -116.07246927 324.97687021 -114.09765625 318.54199219 C-112.48332946 313.33277221 -110.75089853 308.16466158 -109 303 C-109.62865967 303.14099121 -110.25731934 303.28198242 -110.9050293 303.42724609 C-117.92750879 304.9957904 -124.96029774 306.51083221 -132 308 C-133.77117187 308.38478516 -133.77117187 308.38478516 -135.578125 308.77734375 C-157.14127446 312.81306981 -190.7026471 312.90630783 -209.75 300.125 C-212.69322454 297.71271657 -212.69322454 297.71271657 -215.40234375 298.25 C-217.95477992 298.98694398 -220.35197549 299.87529083 -222.8125 300.875 C-254.2673201 312.24521202 -289.02700515 305.47066355 -320 296 C-316.70934159 313.68949329 -313.13291248 331.22158954 -308.80615234 348.69091797 C-307.43200637 354.33149172 -306.13718512 359.99049168 -304.8319397 365.64730835 C-300.68454669 383.61993438 -300.68454669 383.61993438 -295.6484375 401.359375 C-292.56264901 411.46191314 -289.56923628 421.86629061 -292.7109375 432.37890625 C-294.92150663 436.35959277 -297.92628094 437.61022763 -302.1875 438.875 C-310.34741288 440.53966308 -318.69821051 440.73249789 -327 441 C-326.97679687 442.19109375 -326.95359375 443.3821875 -326.9296875 444.609375 C-326.02333406 513.03905981 -326.02333406 513.03905981 -344 535 C-348.8303576 539.4933559 -352.90558875 540.51995446 -359.375 540.37890625 C-364.13880729 539.69127335 -366.93590905 537.65285223 -370 534 C-373.20769128 528.57303394 -376.00282038 522.99153885 -378 517 C-378.58007812 518.42892578 -378.58007812 518.42892578 -379.171875 519.88671875 C-379.69748878 521.15382341 -380.22355455 522.42074065 -380.75 523.6875 C-381.12898438 524.62625977 -381.12898438 524.62625977 -381.515625 525.58398438 C-383.53281312 530.40002102 -385.66513489 534.67480629 -390.3125 537.3125 C-395.30548368 538.58977489 -398.78061145 538.51342676 -403.5625 536.5 C-413.42691423 530.05613209 -416.16742593 518.60815511 -418.48876953 507.70410156 C-419.50463548 502.494364 -420.3598609 497.26913461 -421 492 C-421.09788818 491.20819336 -421.19577637 490.41638672 -421.29663086 489.60058594 C-422.42045776 478.69244725 -422.10793569 467.7008586 -422.0625 456.75 C-422.05747533 454.63671981 -422.05291413 452.52343846 -422.04882812 450.41015625 C-422.03789833 445.27340858 -422.0206869 440.13671726 -422 435 C-422.88160545 435.01597481 -422.88160545 435.01597481 -423.78102112 435.03227234 C-430.1319783 435.0991057 -435.7554818 434.2496798 -441.9375 432.8125 C-442.86240234 432.61591797 -443.78730469 432.41933594 -444.74023438 432.21679688 C-452.3654524 430.48014946 -460.51582819 427.90904218 -466.1875 422.25 C-468.62835862 417.87328799 -467.99095006 414.72773265 -467 410 C-465.45293516 404.56178638 -463.64437264 399.22280253 -461.8125 393.875 C-461.27147567 392.27742936 -460.73070995 390.67977111 -460.19018555 389.08203125 C-458.48035746 384.04763613 -456.74504946 379.02228371 -455 374 C-454.58500244 372.80558289 -454.58500244 372.80558289 -454.16162109 371.58703613 C-445.72109676 347.34735767 -436.63856614 323.36531669 -427.32421875 299.44921875 C-427.00198334 298.62097092 -426.67974792 297.79272308 -426.3477478 296.93937683 C-424.12120837 291.24241675 -424.12120837 291.24241675 -423 289 C-424.77503906 289.72316406 -424.77503906 289.72316406 -426.5859375 290.4609375 C-428.18211213 291.09940735 -429.77847662 291.73740271 -431.375 292.375 C-432.14972656 292.69210937 -432.92445313 293.00921875 -433.72265625 293.3359375 C-443.73876211 297.30926875 -453.00996197 298.34192951 -463.75 298.25 C-464.90089111 298.24250732 -466.05178223 298.23501465 -467.23754883 298.22729492 C-484.72109308 298.0060781 -501.38256994 295.27616324 -516 285 C-516.87398437 284.40058594 -516.87398437 284.40058594 -517.765625 283.7890625 C-523.93617453 279.14556816 -527.52946128 272.48637893 -529 265 C-529.71042292 258.14949331 -529.71042292 258.14949331 -527.96069336 255.31835938 C-524.96814282 253.30618493 -521.81726503 253.3508521 -518.31640625 253.15625 C-517.55322083 253.10215469 -516.7900354 253.04805939 -516.00372314 252.99232483 C-514.37051028 252.87718467 -512.73688382 252.76779371 -511.10293579 252.66360474 C-506.86306774 252.39055611 -502.62702337 252.06796659 -498.390625 251.74609375 C-497.56299149 251.68389145 -496.73535797 251.62168915 -495.88264465 251.55760193 C-486.83086337 250.86145963 -477.91920994 249.68947844 -469 248 C-467.92854736 247.80567383 -467.92854736 247.80567383 -466.83544922 247.60742188 C-447.49130153 244.02501206 -428.77159581 237.36310391 -411 229 C-411.54825439 228.71390869 -412.09650879 228.42781738 -412.66137695 228.13305664 C-423.28416539 222.55026918 -433.09397394 217.11747167 -442 209 C-442.721875 208.39542969 -443.44375 207.79085937 -444.1875 207.16796875 C-462.98616716 191.39560218 -474.4976329 168.9607328 -482 146 C-482.27972656 146.680625 -482.55945313 147.36125 -482.84765625 148.0625 C-484.2197096 151.38013383 -485.60917614 154.69019131 -487 158 C-487.25700684 158.62068359 -487.51401367 159.24136719 -487.77880859 159.88085938 C-495.97752923 179.63026378 -506.70887501 200.59682027 -524 214 C-527.140625 214.984375 -527.140625 214.984375 -530 215 C-531.66238403 213.90318298 -531.66238403 213.90318298 -533 212 C-533.32711792 209.12599182 -533.32711792 209.12599182 -533.26123047 205.56469727 C-533.25375038 204.91230513 -533.24627029 204.25991299 -533.23856354 203.58775139 C-533.22061001 202.16437996 -533.19581184 200.74108246 -533.16505051 199.31793022 C-533.11645603 197.03199732 -533.08700056 194.7465355 -533.06289673 192.46022034 C-533.02767208 189.19288436 -532.98654664 185.92571205 -532.94067383 182.6585083 C-532.6271494 159.36631413 -532.35286038 136.25659651 -535.5 113.125 C-535.61687164 112.25758179 -535.73374329 111.39016357 -535.85415649 110.49645996 C-536.08306695 108.80343336 -536.31229047 107.11044905 -536.54185486 105.41751099 C-536.65050369 104.61586517 -536.75915253 103.81421936 -536.87109375 102.98828125 C-536.97680191 102.21604218 -537.08251007 101.4438031 -537.19142151 100.64816284 C-540.91323052 72.50357794 -537.20451695 45.23866904 -520 22 C-512.36583971 12.19688203 -503.45797747 5.2091181 -491 3 C-478.72445559 1.59081761 -468.02401143 5.17193408 -458.0546875 12.34765625 C-450.9975246 18.02290322 -446.39368512 24.12215057 -442 32 C-441.34 32.99 -440.68 33.98 -440 35 C-439.01902344 34.46890625 -438.03804688 33.9378125 -437.02734375 33.390625 C-416.95805668 22.77766284 -396.53686559 20.59123896 -374.125 20.75 C-373.34007172 20.75310181 -372.55514343 20.75620361 -371.74642944 20.75939941 C-344.27896235 20.88642951 -318.30740189 24.62014522 -293.73046875 37.64453125 C-291.2094987 39.14821631 -291.2094987 39.14821631 -289 39 C-287.75339907 37.2063296 -286.57856596 35.36258848 -285.4375 33.5 C-279.92833588 25.04198854 -272.9756111 18.65340723 -264 14 C-263.26007813 13.60683594 -262.52015625 13.21367188 -261.7578125 12.80859375 C-251.82770213 8.36943226 -237.60083764 7.83741223 -227.3125 11.5625 C-210.64190802 19.97104112 -201.36237528 36.22010402 -195.66455078 53.37329102 C-189.0432684 75.8082974 -192.97099337 100.44447964 -197 123 C-201.77117277 150.42223908 -204.37323452 177.00322401 -204.62182617 204.83837891 C-204.63376007 205.82451675 -204.64569397 206.8106546 -204.6579895 207.82667542 C-204.67985202 209.70089223 -204.69335228 211.57522993 -204.69747925 213.4495697 C-204.70780182 214.28420242 -204.71812439 215.11883514 -204.72875977 215.97875977 C-204.73303482 216.71006607 -204.73730988 217.44137238 -204.74171448 218.19483948 C-205 220 -205 220 -207 222 C-210.46379292 222.4311972 -212.31017929 222.46589985 -215.23828125 220.48828125 C-229.77372122 205.24112482 -237.96237464 187.47630207 -245.25244141 167.98242188 C-246.27718096 165.26495447 -247.35301186 162.56909684 -248.4375 159.875 C-248.74558594 159.10929688 -249.05367188 158.34359375 -249.37109375 157.5546875 C-249.57863281 157.04164063 -249.78617187 156.52859375 -250 156 C-250.15855469 156.70382813 -250.31710937 157.40765625 -250.48046875 158.1328125 C-254.74126423 176.16468731 -261.41968896 193.15714879 -274 207 C-274.82242187 207.91523438 -275.64484375 208.83046875 -276.4921875 209.7734375 C-285.25562472 219.04490006 -295.0876679 225.20158237 -306.953125 229.796875 C-311.02596299 231.40512385 -315.00820537 233.20159612 -319 235 C-289.93522216 250.63461212 -260.23635515 263.76759623 -228.953125 274.28125 C-223.21318188 276.22946226 -217.42789728 278.28605136 -212 281 C-209.83122971 280.31255146 -209.83122971 280.31255146 -207.4296875 279.21875 C-202.71807718 277.25122735 -198.05211364 275.80669419 -193.125 274.5 C-163.01189162 266.15702278 -133.06826219 255.78311412 -105 242 C-105.69222656 241.74347656 -106.38445312 241.48695313 -107.09765625 241.22265625 C-121.44826646 235.60720008 -133.19985106 227.92777256 -144 217 C-145.10794922 215.90751953 -145.10794922 215.90751953 -146.23828125 214.79296875 C-157.86329281 202.62620908 -164.47787163 186.21508156 -168 170 C-168.19464844 169.18015625 -168.38929688 168.3603125 -168.58984375 167.515625 C-173.17662669 147.02576251 -172.92724736 123.34318959 -168 103 C-167.52919381 100.3730379 -167.07359486 97.74410316 -166.625 95.11328125 C-165.83021171 92.42590335 -164.49059056 90.36826188 -163 88 C-162.09929091 86.29423235 -161.20364071 84.58578589 -160.3125 82.875 C-147.58038768 59.59520639 -127.92801985 45.17950651 -103 37 C-102.195625 36.73316406 -101.39125 36.46632812 -100.5625 36.19140625 C-71.7363786 27.49852902 -37.21052899 28.71360414 -8 35 C-8.01571045 34.01080566 -8.0314209 33.02161133 -8.04760742 32.00244141 C-8.1018346 28.33862423 -8.13632336 24.67484263 -8.16479492 21.01074219 C-8.17989814 19.42376749 -8.20038223 17.83683463 -8.22631836 16.25 C-8.26263595 13.97124927 -8.27971023 11.69304942 -8.29296875 9.4140625 C-8.30845261 8.70255035 -8.32393646 7.99103821 -8.33988953 7.25796509 C-8.34057617 5.25634766 -8.34057617 5.25634766 -8 2 C-4.77856724 -0.14762184 -3.7404533 -0.561068 0 0 Z " fill="#050505" transform="translate(699,44)"/>
<path d="M0 0 C3.27702146 1.63851073 4.17195973 5.18082983 5.6875 8.375 C10.74798416 18.74835867 16.72006041 28.03743286 24 37 C24.4228125 37.56976563 24.845625 38.13953125 25.28125 38.7265625 C34.51231845 50.60312009 49.29181185 60.17150228 64 63 C63.51142771 69.95497023 62.37100672 76.42932616 60.4375 83.125 C60.17573975 84.0329834 59.91397949 84.9409668 59.64428711 85.87646484 C57.05178695 94.45983407 53.46243824 102.24184667 49 110 C48.4225 111.00417969 47.845 112.00835937 47.25 113.04296875 C32.27594879 137.61843705 9.58748106 155.46618967 -18.38354492 162.60864258 C-50.48550942 169.87240561 -86.49204513 168.63995223 -115.18896484 151.17724609 C-133.78178261 139.09116261 -145.4066877 119.52171677 -150 98 C-153.73101163 77.04081469 -155.84272435 54.52817305 -149 34 C-147.52021031 34.11739459 -146.04118816 34.24446132 -144.5625 34.375 C-143.73878906 34.44460937 -142.91507813 34.51421875 -142.06640625 34.5859375 C-139 35 -139 35 -135.26171875 36.0234375 C-128.50005597 37.5673118 -121.55150625 37.29733963 -114.65429688 37.26074219 C-112.2692688 37.25008609 -109.88500422 37.26064664 -107.5 37.2734375 C-95.5085767 37.28543898 -84.01717247 36.16564132 -72.4375 32.875 C-71.68702393 32.66327148 -70.93654785 32.45154297 -70.16333008 32.23339844 C-61.7467819 29.76391912 -53.67287652 26.49412483 -45.59716797 23.09130859 C-42.94761331 21.97798755 -40.28902235 20.88859505 -37.62890625 19.80078125 C-24.37144254 14.31902996 -11.88318483 8.07330878 0 0 Z " fill="#FDFDFD" transform="translate(692,114)"/>
<path d="M0 0 C3.79721921 1.50201116 5.46233338 3.63620628 7.875 6.875 C23.3635288 26.24199837 46.5930295 38.36935825 69 48 C68.36578125 48.46277344 67.7315625 48.92554688 67.078125 49.40234375 C64.03673899 53.20407627 64.0841707 56.81072362 63.75 61.5625 C63.63724731 62.90417236 63.63724731 62.90417236 63.5222168 64.27294922 C62.06036561 74.88924609 62.06036561 74.88924609 64 85 C66.31 85 68.62 85 71 85 C74.93772482 73.97437052 74.15807065 61.55672102 74 50 C74.64179199 50.14074951 75.28358398 50.28149902 75.94482422 50.42651367 C98.95225671 55.0867408 122.00768756 52.42751981 143.46484375 43.42578125 C147 42 147 42 149 42 C149.70463761 68.22817787 145.92953445 91.93322492 133 115 C132.52949219 115.85078125 132.05898438 116.7015625 131.57421875 117.578125 C121.11715121 134.72894964 102.96620965 145.8669163 83.83959961 150.81811523 C73.63327297 153.11920032 63.7482012 153.51695307 53.3125 153.4375 C52.47716736 153.43479095 51.64183472 153.43208191 50.78118896 153.42929077 C38.11534483 153.3670206 26.21821019 152.55476017 14 149 C12.59538728 148.63282988 11.19043881 148.26694175 9.78515625 147.90234375 C-4.1087291 144.11101702 -16.16575031 137.51879273 -27 128 C-27.79535156 127.35933594 -28.59070313 126.71867187 -29.41015625 126.05859375 C-49.95457048 108.90026364 -63.8979757 81.42465148 -67 55 C-67.17915626 51.64489178 -67.21759651 48.35259812 -67 45 C-65.94683594 44.85304687 -64.89367187 44.70609375 -63.80859375 44.5546875 C-42.65173263 41.3615252 -23.40524739 32.73824246 -10.12109375 15.3515625 C-6.49012169 10.39319383 -3.10902105 5.30420844 0 0 Z " fill="#FDFDFD" transform="translate(292,117)"/>
<path d="M0 0 C2.42861725 0.24537843 4.83198492 0.54755495 7.25 0.875 C20.4360992 2.52499559 33.72884056 2.66460805 47 3 C49.75622173 16.01073612 52.09806533 29.08629461 54.375 42.1875 C54.68031803 43.93922675 54.98573858 45.69093563 55.29125977 47.44262695 C57.73934165 61.48533914 57.73934165 61.48533914 58.79003906 67.578125 C61.92821337 85.74532899 65.6659589 103.65539891 70.15185547 121.54638672 C71.535245 127.17949791 72.79000723 132.8410315 74.0625 138.5 C76.07946708 147.39565261 78.38767777 156.15901469 80.94799805 164.91259766 C86.55223169 184.08467908 86.55223169 184.08467908 86 192 C78.41494625 196.1644663 68.92725407 195.18190718 60.5078125 195.23828125 C59.30449783 195.24793915 58.10118317 195.25759705 56.86140442 195.26754761 C52.94926295 195.29241667 49.03720405 195.30548693 45.125 195.3125 C44.45888325 195.31409245 43.79276649 195.31568489 43.10646439 195.31732559 C24.98687611 195.35411348 6.98490273 194.97549402 -11.0625 193.1875 C-11.90431824 193.10472809 -12.74613647 193.02195618 -13.61346436 192.93667603 C-22.49642694 192.03793155 -31.32940595 190.85716837 -40.15234375 189.4921875 C-40.91450699 189.3749382 -41.67667023 189.2576889 -42.46192932 189.1368866 C-60.68435548 186.21042968 -60.68435548 186.21042968 -67 182 C-66.32354143 177.3620029 -65.23082779 172.92729747 -63.8984375 168.44140625 C-63.68085785 167.70692764 -63.4632782 166.97244904 -63.23910522 166.2157135 C-60.36118916 156.67750053 -56.99067137 147.31203277 -53.625 137.9375 C-53.10178162 136.47428314 -53.10178162 136.47428314 -52.56799316 134.98150635 C-42.0578862 105.59495232 -31.01048943 76.43298902 -19.625 47.375 C-19.00280579 45.78640167 -19.00280579 45.78640167 -18.36804199 44.16571045 C-13.96305817 32.93087867 -9.50925185 21.71671267 -4.9609375 10.5390625 C-4.38528549 9.11852066 -4.38528549 9.11852066 -3.79800415 7.66928101 C-3.4449118 6.80598175 -3.09181946 5.9426825 -2.72802734 5.05322266 C-2.41747406 4.29192047 -2.10692078 3.53061829 -1.78695679 2.74624634 C-1 1 -1 1 0 0 Z " fill="#FDFDFD" transform="translate(310,278)"/>
<path d="M0 0 C3.25789992 0.66465829 5.83818821 1.85675824 8.75390625 3.44140625 C9.68235352 3.93922607 10.61080078 4.4370459 11.56738281 4.94995117 C12.55577148 5.48209229 13.54416016 6.0142334 14.5625 6.5625 C25.68039083 12.46634349 37.03315507 18.01105169 49 22 C48.47703281 32.01426535 47.92041114 42.01255997 47 52 C38.48729053 49.38370856 30.81156761 45.49071172 22.99511719 41.26611328 C22.16399414 40.83153809 21.33287109 40.39696289 20.4765625 39.94921875 C19.73486816 39.55049561 18.99317383 39.15177246 18.22900391 38.7409668 C15.44682004 37.81611159 13.77842184 38.16706776 11 39 C10.67 39.33 10.34 39.66 10 40 C10.03793743 49.94473218 12.12380742 59.63605063 14.1875 69.3125 C14.50177621 70.81409651 14.81590192 72.31572452 15.12988281 73.81738281 C17.5893518 85.4811497 20.41785707 97.03675111 23.38183594 108.58203125 C24.24668952 111.96493403 25.0838706 115.34888295 25.875 118.75 C26.09929687 119.69359375 26.32359375 120.6371875 26.5546875 121.609375 C26.98306505 124.87105669 27.0436328 127.92590764 27.02783203 131.21191406 C27.02381378 132.29506897 27.01979553 133.37822388 27.01565552 134.49420166 C27.00790604 135.73457184 27.00790604 135.73457184 27 137 C17.67012763 136.91444394 8.34041415 136.81915542 -0.98924065 136.71247292 C-5.32450243 136.66318399 -9.65974732 136.61686797 -13.99511719 136.578125 C-81.0434539 135.97103074 -81.0434539 135.97103074 -90 130 C-91.28335924 116.39972542 -83.40492626 101.43414994 -78.83145142 88.79165649 C-74.78807524 77.58850545 -71.3443505 66.3258416 -68.48974609 54.75463867 C-68 53 -68 53 -67 51 C-66.66666667 47.5 -66.66666667 47.5 -67 44 C-70.26598888 41.82267408 -71.18603531 41.8601168 -74.8984375 42.5078125 C-78.21164931 43.28376917 -81.43695823 44.31547129 -84.66796875 45.37890625 C-87 46 -87 46 -91 46 C-93.3069124 40.20262883 -93.88322392 34.27114469 -94.625 28.125 C-94.7590625 27.05507813 -94.893125 25.98515625 -95.03125 24.8828125 C-95.3596222 22.25583491 -95.68236412 19.62829366 -96 17 C-92.72659389 15.33846163 -89.44580291 13.69333364 -86.15478516 12.06689453 C-84.57998054 11.28716462 -83.00698574 10.50377643 -81.43505859 9.71826172 C-78.62932473 8.32059334 -75.81550395 6.94036674 -73 5.5625 C-71.62001831 4.87051514 -71.62001831 4.87051514 -70.2121582 4.16455078 C-68.90057739 3.52815674 -68.90057739 3.52815674 -67.5625 2.87890625 C-66.38880859 2.29991577 -66.38880859 2.29991577 -65.19140625 1.70922852 C-62.6564602 0.8888165 -61.44981194 1.00864165 -59 2 C-57.98046875 3.63671875 -57.98046875 3.63671875 -57.1875 5.6875 C-53.794075 13.06852947 -47.35530106 17.03507244 -40 20 C-32.43062515 22.56588978 -23.81089225 23.73561682 -16.15234375 20.97265625 C-7.56383043 16.29625609 -3.40178093 8.88242799 0 0 Z " fill="#FDFDFD" transform="translate(670,291)"/>
<path d="M0 0 C11.39240604 10.78125908 19.51808504 25.08375668 22.96484375 40.4375 C22.99144897 42.1039543 22.99585925 43.77112195 22.96484375 45.4375 C1.01917012 55.44312627 -23.83094829 61.37951776 -47.56640625 53.76171875 C-63.6601556 47.61782119 -78.36511199 40.05637432 -92.03515625 29.4375 C-92.98519531 28.70402344 -93.93523437 27.97054687 -94.9140625 27.21484375 C-100.57716214 22.72288852 -105.60092691 18.15248976 -110.03515625 12.4375 C-110.6075 11.70144531 -111.17984375 10.96539062 -111.76953125 10.20703125 C-118.43545005 1.16674757 -127.03515625 -11.99277132 -127.03515625 -23.5625 C-125.07739511 -23.87856489 -123.11890719 -24.19012832 -121.16015625 -24.5 C-119.52433594 -24.76103516 -119.52433594 -24.76103516 -117.85546875 -25.02734375 C-78.40958537 -30.55299408 -31.62448184 -26.69969123 0 0 Z " fill="#FDFDFD" transform="translate(416.03515625,102.5625)"/>
<path d="M0 0 C10.92978192 7.54721971 15.80220821 18.8396532 20 31 C20.34417969 31.99386719 20.68835938 32.98773438 21.04296875 34.01171875 C26.61514262 53.60588884 22.36216804 74.78842219 19.08383179 94.43157959 C17.82902273 101.9570365 16.68981801 109.49837806 15.57675171 117.04595947 C15.26042021 119.17971248 14.93700419 121.31229365 14.61254883 123.44482422 C12.64302554 136.55346919 11.86190507 149.57245323 11.4375 162.8125 C11.39431641 164.08931641 11.35113281 165.36613281 11.30664062 166.68164062 C11.20194245 169.7876865 11.09976562 172.89379246 11 176 C-9.49336318 151.09749135 -15.77911548 116.10731597 -20.82080078 85.1887207 C-22.86867314 72.7659716 -25.02731559 60.20098931 -31.3125 49.125 C-31.70566406 48.41085938 -32.09882813 47.69671875 -32.50390625 46.9609375 C-37.32181064 38.38882189 -42.96435218 31.71040953 -50.375 25.23828125 C-52 23 -52 23 -51.93359375 20.00390625 C-49.000346 10.56596685 -39.85843143 3.09025729 -31.37109375 -1.38671875 C-21.00470197 -5.68718696 -9.80489661 -5.68448551 0 0 Z " fill="#FDFDFD" transform="translate(472,69)"/>
<path d="M0 0 C8.01646997 5.17925522 16.17408555 12.54780339 19 22 C18.89701113 25.1862182 17.94624432 26.05225017 15.62890625 28.3046875 C14.60970629 29.16494822 13.58736521 30.02149641 12.5625 30.875 C-4.72653955 46.02398589 -12.20336424 66.33997149 -15.3125 88.6875 C-20.02757427 120.35231491 -30.07899545 150.54538308 -50 176 C-50.33 176 -50.66 176 -51 176 C-50.98952637 174.92967529 -50.97905273 173.85935059 -50.96826172 172.7565918 C-50.7565266 148.96128668 -51.11004528 125.55291419 -53.80078125 101.87890625 C-55.24378537 89.02011729 -56.33594025 76.26274826 -56.47479248 63.32400513 C-56.49123411 61.88970154 -56.51563868 60.45546056 -56.5491333 59.02145386 C-56.94668723 40.1258338 -50.25704758 19.85575296 -37 6 C-26.62945137 -3.3232259 -12.87893495 -6.71222576 0 0 Z " fill="#FDFDFD" transform="translate(229,62)"/>
<path d="M0 0 C0.99474335 -0.00078552 1.98948669 -0.00157104 3.01437378 -0.00238037 C38.0962607 0.03085149 38.0962607 0.03085149 50.0625 6.375 C34.21442218 32.36584762 -9.00894528 45.31579577 -36.9375 52.375 C-46.42087049 54.4639942 -55.8906026 54.56371456 -65.5625 54.625 C-67.24243042 54.6391394 -67.24243042 54.6391394 -68.95629883 54.65356445 C-79.15888862 54.6139529 -89.20486483 53.54376494 -98.9375 50.375 C-94.00644102 34.31984588 -80.54414997 21.12838983 -65.9375 13.375 C-59.02133646 9.71723897 -51.97324218 6.89326897 -44.5 4.625 C-43.85724121 4.42632324 -43.21448242 4.22764648 -42.55224609 4.02294922 C-28.59265711 0.0173332 -14.39496766 -0.02405919 0 0 Z " fill="#FDFDFD" transform="translate(645.9375,86.625)"/>
<path d="M0 0 C5.63033627 3.67195844 8.89095429 8.50516905 10.875 14.875 C11.50197988 21.41910254 11.02876486 27.64161704 8.875 33.875 C8.43220703 35.19564453 8.43220703 35.19564453 7.98046875 36.54296875 C3.42715537 48.72267981 -4.37744382 58.42937508 -13.3125 67.6875 C-14.16702759 68.59508057 -14.16702759 68.59508057 -15.03881836 69.52099609 C-18.85260665 73.32212496 -21.52496691 74.81563569 -27.125 74.875 C-36.00420385 73.23677051 -41.2323944 63.96597078 -46.0390625 57.16796875 C-53.84980274 45.41744984 -59.94365646 33.26983743 -58.125 18.875 C-55.53099243 11.50209928 -52.3402976 5.4826488 -45.125 1.875 C-38.8609195 1.09677411 -34.20678819 1.99090198 -29.125 5.875 C-26.38676896 8.1342825 -23.73128381 10.46503367 -21.125 12.875 C-20.8775 11.988125 -20.63 11.10125 -20.375 10.1875 C-18.69284057 5.72977752 -16.55111132 2.99276293 -12.8125 0.0625 C-8.25609066 -1.95079715 -4.63667219 -1.66920199 0 0 Z " fill="#060606" transform="translate(347.125,338.125)"/>
<path d="M0 0 C-1.01101837 6.00725676 -3.35222054 11.5282993 -5.55541992 17.17529297 C-6.31119555 19.12164066 -7.04920314 21.07416364 -7.78710938 23.02734375 C-8.26975097 24.27125384 -8.75343982 25.5147582 -9.23828125 26.7578125 C-9.67180908 27.8833252 -10.10533691 29.00883789 -10.55200195 30.16845703 C-12.77575365 34.51697704 -15.78859587 36.07517831 -20.16015625 37.9375 C-20.94874023 38.27386475 -21.73732422 38.61022949 -22.54980469 38.95678711 C-23.37899414 39.30104736 -24.20818359 39.64530762 -25.0625 40 C-25.91360352 40.35521729 -26.76470703 40.71043457 -27.64160156 41.07641602 C-40.10472897 46.18952434 -51.52953217 48.33596179 -65 48 C-66.62808594 47.97486328 -66.62808594 47.97486328 -68.2890625 47.94921875 C-82.01812055 47.39690032 -98.71120946 43.71719106 -109 34 C-113 28.59459459 -113 28.59459459 -113 26 C-112.16380127 25.94577881 -111.32760254 25.89155762 -110.46606445 25.83569336 C-73.0999992 23.28587783 -38.67043983 17.36678109 -4.6171875 1.13891602 C-2 0 -2 0 0 0 Z " fill="#FBFBFB" transform="translate(295,283)"/>
<path d="M0 0 C10.23 0.33 20.46 0.66 31 1 C31.60515481 69.07991601 31.60515481 69.07991601 18.5625 86.6875 C16 89 16 89 13.4375 89.6875 C9.82032844 88.66727212 8.98345314 87.19911797 7 84 C0.21798321 69.96395792 -0.17119677 54.77739043 -0.09765625 39.453125 C-0.09553383 37.74730255 -0.09553383 37.74730255 -0.09336853 36.00701904 C-0.08782942 32.42131777 -0.07528877 28.83568198 -0.0625 25.25 C-0.05747711 22.79948008 -0.0529156 20.34895916 -0.04882812 17.8984375 C-0.03873646 11.93224694 -0.0191497 5.96619564 0 0 Z " fill="#FCFCFC" transform="translate(329,484)"/>
<path d="M0 0 C10.23 0 20.46 0 31 0 C32.28013655 68.7006614 32.28013655 68.7006614 16.99609375 86.30859375 C15 88 15 88 12.5625 88.25 C8.41771395 86.22815315 6.77442041 83.07652794 5 79 C-0.40481497 62.17052443 -1.32096317 45.17721233 -1.20581055 27.64111328 C-1.18726236 24.71247862 -1.18530359 21.78415674 -1.18554688 18.85546875 C-1.18064028 16.9817681 -1.17481575 15.10806957 -1.16796875 13.234375 C-1.16685593 12.3646405 -1.1657431 11.49490601 -1.16459656 10.59881592 C-1.15821671 9.78986877 -1.15183685 8.98092163 -1.14526367 8.14746094 C-1.14145187 7.44071228 -1.13764008 6.73396362 -1.13371277 6.00579834 C-1 4 -1 4 0 0 Z " fill="#FBFBFB" transform="translate(601,494)"/>
<path d="M0 0 C1.4889974 0.7444987 2.97796012 1.48906682 4.46679688 2.23388672 C5.85820716 2.92925771 7.25016098 3.62354188 8.64257812 4.31689453 C12.96229072 6.47031721 17.26865333 8.64697387 21.5625 10.8515625 C48.43141141 24.57953283 76.52009791 35.13264262 105 45 C104 47 104 47 101.7421875 47.81640625 C100.79601562 48.06261719 99.84984375 48.30882812 98.875 48.5625 C97.94429688 48.81128906 97.01359375 49.06007813 96.0546875 49.31640625 C69.33974254 55.29481465 37.45661886 51.37332994 12 42 C10.43523926 41.45267212 10.43523926 41.45267212 8.83886719 40.89428711 C6 39 6 39 4.76806641 35.51000977 C4.51831109 34.07500437 4.29778888 32.63470574 4.1015625 31.19140625 C3.91453262 30.0467112 3.91453262 30.0467112 3.72372437 28.87889099 C3.33229963 26.44329189 2.97867723 24.00383526 2.625 21.5625 C2.36566572 19.92344907 2.10397243 18.28476953 1.83984375 16.64648438 C0 5.01026396 0 5.01026396 0 0 Z " fill="#FCFCFC" transform="translate(370,287)"/>
<path d="M0 0 C4.31689796 0.46966251 8.62958137 0.95296271 12.9375 1.5 C25.94200957 3.12676219 38.90158658 3.56818417 52 4 C51.67 18.52 51.34 33.04 51 48 C35.47716311 49.94035461 19.84041231 50.61590071 5 45 C2.85218812 42.85218812 3.31361017 38.27351144 3.02734375 35.29296875 C2.8962899 33.97755852 2.8962899 33.97755852 2.7625885 32.63557434 C2.57815347 30.77540413 2.39588 28.91501855 2.21557617 27.05444336 C1.93964515 24.20961635 1.65693322 21.36552738 1.37304688 18.52148438 C1.19491011 16.71618549 1.01716305 14.91084811 0.83984375 13.10546875 C0.75548569 12.25429977 0.67112762 11.4031308 0.58421326 10.52616882 C0.50735794 9.72886856 0.43050262 8.9315683 0.35131836 8.11010742 C0.28327499 7.41141037 0.21523163 6.71271332 0.14512634 5.99284363 C-0.00000576 3.99992097 0 1.9982002 0 0 Z " fill="#FCFCFC" transform="translate(582,434)"/>
<path d="M0 0 C1.15268129 2.89315371 2.29590743 5.78995487 3.4375 8.6875 C3.76298828 9.50412109 4.08847656 10.32074219 4.42382812 11.16210938 C8.55578028 21.68367827 8.55578028 21.68367827 6.6640625 26.1640625 C6.00275974 27.32834445 5.32185653 28.4816432 4.625 29.625 C4.26140381 30.23746582 3.89780762 30.84993164 3.52319336 31.48095703 C-4.37366295 44.44413443 -14.50620377 54.93880539 -28 62 C-28.76828125 62.40347656 -29.5365625 62.80695313 -30.328125 63.22265625 C-37.63719818 66.5988672 -45.06831291 66.78848834 -53 67 C-52.16107081 45.69119869 -41.73002787 29.04653644 -26.671875 14.796875 C-20.67419723 9.61520781 -8.23728193 0 0 0 Z " fill="#FCFCFC" transform="translate(278,83)"/>
<path d="M0 0 C9.66900689 0.63647524 19.3353538 1.30009496 29 2 C29.93694711 27.29757198 30.01879513 66.90470499 16 89 C13.84765625 89.8125 13.84765625 89.8125 12 90 C6.44125482 84.59566441 4.92980784 78.36529281 3 71 C2.82919922 70.37601318 2.65839844 69.75202637 2.48242188 69.10913086 C-1.53364146 53.97237914 -1.18862857 38.04617487 -1.1875 22.5 C-1.18840637 21.67287506 -1.18931274 20.84575012 -1.19024658 19.99356079 C-1.18995104 17.61020179 -1.18099755 15.22707056 -1.16796875 12.84375 C-1.16676529 12.12680466 -1.16556183 11.40985931 -1.1643219 10.67118835 C-1.12996702 6.99323625 -0.87133017 3.57745135 0 0 Z " fill="#F9F9F9" transform="translate(289,481)"/>
<path d="M0 0 C1.52710452 73.64037343 1.52710452 73.64037343 -15 91 C-17.13085938 91.63745117 -17.13085938 91.63745117 -19 92 C-22.37304652 85.93839547 -24.0251731 80.51450327 -25.125 73.6875 C-25.3720166 72.19186523 -25.3720166 72.19186523 -25.62402344 70.66601562 C-28.41309727 52.82698891 -29.17183927 34.9036346 -29.1875 16.875 C-29.18858765 16.1835791 -29.18967529 15.4921582 -29.1907959 14.77978516 C-29.18871666 3.18871666 -29.18871666 3.18871666 -28 2 C-24.99824278 1.59202308 -22.01245293 1.2432753 -19 0.9375 C-17.76056641 0.80118164 -17.76056641 0.80118164 -16.49609375 0.66210938 C-10.96749133 0.08675404 -5.5579534 -0.08404163 0 0 Z " fill="#F9F9F9" transform="translate(672,490)"/>
<path d="M0 0 C4.88891238 -0.02503974 9.77778603 -0.0430178 14.66674805 -0.05493164 C16.32398124 -0.05990735 17.98121017 -0.06669032 19.63842773 -0.07543945 C29.48498217 -0.12605676 39.19175447 0.02674642 49 1 C46.13640494 33.76100071 46.13640494 33.76100071 42 40 C39.2105322 40.77870572 37.165483 41.10675425 34.33203125 41.2421875 C33.57838791 41.30028595 32.82474457 41.3583844 32.04826355 41.41824341 C29.63737718 41.59732813 27.22601162 41.73630074 24.8125 41.875 C23.20749769 41.98963146 21.60267389 42.10679224 19.99804688 42.2265625 C12.98407266 42.72856477 6.03382293 43.05626663 -1 43 C-1.119979 28.62282471 -0.90806369 14.3489309 0 0 Z " fill="#FCFCFC" transform="translate(645,438)"/>
<path d="M0 0 C7.76597705 3.5873295 14.504096 7.43372184 21 13 C22.21816406 13.98419922 22.21816406 13.98419922 23.4609375 14.98828125 C37.29015595 26.62610046 46.06767868 43.18050887 49 61 C49.19551468 64.05437382 49.15318594 66.93628121 49 70 C34.45434945 67.70606228 21.74458079 55.12235589 13 44 C7.87538226 36.83608326 3.49870124 29.3447595 -0.5 21.5 C-1.00768921 20.51265869 -1.00768921 20.51265869 -1.52563477 19.50537109 C-3.40756545 15.69084424 -4.80370017 12.27100832 -5 8 C-4.00390625 5.6640625 -4.00390625 5.6640625 -2.5625 3.625 C-2.08941406 2.93664062 -1.61632812 2.24828125 -1.12890625 1.5390625 C-0.75636719 1.03117187 -0.38382813 0.52328125 0 0 Z " fill="#FAFAFA" transform="translate(707,96)"/>
<path d="M0 0 C2.46800047 1.15173355 4.04783565 2.04783565 6 4 C7.7125137 16.92497179 4.01655835 27.58664907 -3.75 37.75 C-8.06694394 43.17097594 -12.67048837 48.55491164 -18 53 C-18.66 53 -19.32 53 -20 53 C-21.8112278 51.02106592 -23.47604837 49.04653983 -25.125 46.9375 C-25.85662354 46.00369507 -25.85662354 46.00369507 -26.60302734 45.05102539 C-30.02806596 40.55404953 -32.96664997 35.92392774 -35.625 30.9375 C-35.95516113 30.31931396 -36.28532227 29.70112793 -36.62548828 29.06420898 C-39.52711714 23.38889588 -40.53891046 18.35914338 -40 12 C-38.68360639 7.98643036 -37.33744491 4.83138468 -33.6875 2.5625 C-29.09944385 3.30939286 -26.80560105 6.4692224 -24 10 C-22.04098612 12.86855603 -20.18652698 15.77374259 -18.3828125 18.7421875 C-17.18892111 20.88897509 -17.18892111 20.88897509 -16 22 C-13.54190002 22.2500773 -13.54190002 22.2500773 -11 22 C-8.55141461 19.55141461 -8.17109094 17.68153976 -7.1875 14.375 C-5.44773598 8.92592779 -3.24716986 4.69035646 0 0 Z " fill="#FAFAFA" transform="translate(340,348)"/>
<path d="M0 0 C0.50831867 2.83206118 1.00681505 5.66529734 1.5 8.5 C1.64308594 9.29148437 1.78617188 10.08296875 1.93359375 10.8984375 C2.81386457 16.0123918 3.1428131 20.81112402 3 26 C-6.02105562 27.69694415 -14.82989802 28.31716641 -23.9934082 28.26074219 C-26.06426118 28.24999086 -28.13425063 28.26072554 -30.20507812 28.2734375 C-40.66231245 28.28526026 -50.68377647 27.4298561 -60.625 24 C-61.60726563 23.67 -62.58953125 23.34 -63.6015625 23 C-66 22 -66 22 -68 20 C-63.18568203 17.83885079 -58.39478725 16.12017245 -53.3125 14.6875 C-51.8045678 14.25171608 -50.29676039 13.81550015 -48.7890625 13.37890625 C-48.00563477 13.15348145 -47.22220703 12.92805664 -46.41503906 12.69580078 C-42.33479839 11.52023609 -38.25888285 10.33089229 -34.1875 9.125 C-33.36354736 8.88152832 -32.53959473 8.63805664 -31.69067383 8.38720703 C-24.51091686 6.22904143 -17.45768013 3.74909764 -10.44604492 1.09619141 C-9.6594751 0.8079248 -8.87290527 0.5196582 -8.0625 0.22265625 C-7.37285156 -0.03765381 -6.68320312 -0.29796387 -5.97265625 -0.56616211 C-3.6600513 -1.07476347 -2.22608176 -0.73486843 0 0 Z " fill="#F9F9F9" transform="translate(564,314)"/>
<path d="M0 0 C0.61593018 0.13051758 1.23186035 0.26103516 1.86645508 0.39550781 C21.12558282 4.4433451 40.46231821 7.63179615 60 10 C58.62917065 15.65467107 54.59921224 18.81480864 50 22 C37.84157887 28.44277949 25.85576523 29.30754271 12.3125 29.125 C11.02666016 29.11597656 9.74082031 29.10695313 8.41601562 29.09765625 C5.27714268 29.0743189 2.13867524 29.04158033 -1 29 C-1.02918874 25.29168337 -1.04686218 21.58339658 -1.0625 17.875 C-1.07087891 16.82828125 -1.07925781 15.7815625 -1.08789062 14.703125 C-1.10375207 9.6909095 -1.08177213 4.92334088 0 0 Z " fill="#FAFAFA" transform="translate(730,317)"/>
<path d="M0 0 C2.20937216 1.98276988 3.94948091 3.79654099 5.8125 6.0625 C6.85949218 7.26357168 7.91159099 8.46021095 8.96875 9.65234375 C9.48179687 10.23097168 9.99484375 10.80959961 10.5234375 11.40576172 C15.85241952 17.15944104 22.62366483 22.42598527 30.59765625 23.27734375 C41.9344257 23.66719139 48.77371294 19.63869513 57 12 C57.69480469 11.10023438 58.38960938 10.20046875 59.10546875 9.2734375 C61 7 61 7 64.0625 6.5 C67 7 67 7 68.875 8.1875 C70.4077517 10.6569333 70.30422865 12.12250401 70 15 C64.05875044 24.39314875 52.85135872 32.52790238 42 35 C29.45285381 36.55119255 19.65473819 34.69303195 9.36279297 26.73388672 C5.68068798 23.70123788 2.33516383 20.40714579 -1 17 C-1.84433594 16.18789062 -2.68867188 15.37578125 -3.55859375 14.5390625 C-8.80683997 9.20895456 -8.80683997 9.20895456 -9.33203125 5.921875 C-9.125 4 -9.125 4 -8 1 C-5.05882644 -0.47058678 -3.26771128 -0.44541782 0 0 Z " fill="#050505" transform="translate(305,216)"/>
<path d="M0 0 C2.359375 0.34765625 2.359375 0.34765625 4.234375 1.97265625 C5.79084391 5.25853506 5.33003414 6.85921751 4.359375 10.34765625 C2.67928114 12.52795318 1.1386299 14.28233288 -0.828125 16.16015625 C-1.35768799 16.67570068 -1.88725098 17.19124512 -2.43286133 17.72241211 C-13.35956798 28.0094601 -25.18854099 35.05620278 -40.5 34.62890625 C-53.76686204 33.44082905 -63.00024053 24.83737908 -71.640625 15.34765625 C-73.94226382 11.89519801 -73.98552822 10.40026912 -73.640625 6.34765625 C-71.640625 4.34765625 -71.640625 4.34765625 -68.8125 3.90234375 C-64.52564664 4.50419262 -63.54969356 6.12651293 -60.890625 9.47265625 C-56.1615405 15.03291317 -49.32610533 21.66895899 -41.64453125 22.5859375 C-29.03781712 22.96918161 -20.6676779 17.76044223 -11.640625 9.34765625 C-9.28957591 6.93089461 -6.96530212 4.50723061 -4.7109375 2 C-2.640625 0.34765625 -2.640625 0.34765625 0 0 Z " fill="#050505" transform="translate(675.640625,226.65234375)"/>
<path d="M0 0 C1.670625 0.37125 1.670625 0.37125 3.375 0.75 C6.74298541 7.48597082 4.41724177 19.99059803 4.0625 27.5625 C4.00449219 28.86832031 3.94648438 30.17414063 3.88671875 31.51953125 C3.375 34.75 3.375 34.75 2.0234375 36.6796875 C-0.54153775 38.34509797 -2.65425408 38.0660368 -5.625 37.75 C-7.625 35.75 -7.625 35.75 -7.86791992 33.47851562 C-7.86381104 32.54716797 -7.85970215 31.61582031 -7.85546875 30.65625 C-7.85353516 29.625 -7.85160156 28.59375 -7.84960938 27.53125 C-7.83124023 25.90703125 -7.83124023 25.90703125 -7.8125 24.25 C-7.8115332 22.6721875 -7.8115332 22.6721875 -7.81054688 21.0625 C-7.78271437 16.06501839 -7.65676505 11.07931657 -7.30078125 6.09375 C-7.24446533 5.30162109 -7.18814941 4.50949219 -7.13012695 3.69335938 C-6.09359355 -0.29446366 -3.6587995 -0.252331 0 0 Z " fill="#060606" transform="translate(312.625,159.25)"/>
<path d="M0 0 C3.48793758 3.48793758 2.33876411 8.63948932 2.37109375 13.35546875 C2.37093262 14.09716309 2.37077148 14.83885742 2.37060547 15.60302734 C2.37497064 17.85982156 2.41125799 20.11464687 2.44921875 22.37109375 C2.4550886 23.80728498 2.45905687 25.2434855 2.4609375 26.6796875 C2.46915527 27.98663574 2.47737305 29.29358398 2.48583984 30.64013672 C2 34 2 34 0.13525391 36.46533203 C-2 38 -2 38 -4.625 37.875 C-7 37 -7 37 -9 35 C-9.22396958 32.52635949 -9.32808783 30.16765793 -9.3359375 27.69140625 C-9.3425943 26.96888168 -9.3492511 26.24635712 -9.35610962 25.50193787 C-9.36623962 23.97291614 -9.37092653 22.44385017 -9.37060547 20.91479492 C-9.37497736 18.57461728 -9.41128466 16.23632789 -9.44921875 13.89648438 C-9.45508717 12.41146479 -9.45905639 10.92643624 -9.4609375 9.44140625 C-9.47530853 8.7413295 -9.48967957 8.04125275 -9.50448608 7.31996155 C-9.47401535 4.08136162 -9.40239664 2.42657837 -7.13525391 0.02319336 C-4.32322761 -1.32430289 -2.9123924 -0.99634477 0 0 Z " fill="#030303" transform="translate(672,171)"/>
<path d="M0 0 C3.0625 0.3125 3.0625 0.3125 4.72900391 1.3828125 C6.77817221 4.34814136 6.45169504 6.93329055 6.4609375 10.5 C6.46524277 11.54837036 6.46524277 11.54837036 6.46963501 12.61791992 C6.47167425 14.09392101 6.46615403 15.56994921 6.45361328 17.04589844 C6.4375558 19.30465138 6.4534647 21.56161518 6.47265625 23.8203125 C6.47067379 25.25521228 6.46683006 26.69011095 6.4609375 28.125 C6.45755371 29.43082031 6.45416992 30.73664063 6.45068359 32.08203125 C6.0625 35.3125 6.0625 35.3125 4.69384766 37.23828125 C2.34267055 38.78649725 0.81616344 38.72554952 -1.9375 38.3125 C-3.57104492 37.25415039 -3.57104492 37.25415039 -4.9375 35.3125 C-5.22345445 32.74866053 -5.33448146 30.43280695 -5.30078125 27.87109375 C-5.30127975 27.14761246 -5.30177826 26.42413116 -5.30229187 25.6787262 C-5.29995389 24.15143075 -5.29024153 22.62413128 -5.27368164 21.09692383 C-5.25005068 18.75502227 -5.25312691 16.4142564 -5.25976562 14.07226562 C-5.25418999 12.58853486 -5.24708082 11.1048089 -5.23828125 9.62109375 C-5.23919266 8.91899277 -5.24010406 8.21689178 -5.24104309 7.49351501 C-5.13930424 0.54673449 -5.13930424 0.54673449 0 0 Z " fill="#050505" transform="translate(617.9375,173.6875)"/>
<path d="M0 0 C-2.46217318 5.90532889 -4.90969907 10.36570317 -11 13 C-18.46111489 14.75049234 -25.50522381 11.47395005 -32 8 C-34.14168967 6.42942757 -35.38102858 5.13935509 -37 3 C-37 2.34 -37 1.68 -37 1 C-32.52093162 0.83062157 -28.04173204 0.66498913 -23.5625 0.5 C-22.30244141 0.45230469 -21.04238281 0.40460938 -19.74414062 0.35546875 C-13.15744354 0.11470175 -6.59105693 -0.0573759 0 0 Z " fill="#F7F7F7" transform="translate(659,290)"/>
</svg>
