<?xml version="1.0" encoding="UTF-8"?>
<svg version="1.1" xmlns="http://www.w3.org/2000/svg" width="50" height="50">
<path d="M0 0 C2.875 1.875 2.875 1.875 5 5 C5.4072392 8.37647691 5.29556031 11.6174764 5 15 C5.33 14.67 5.66 14.34 6 14 C5.95875 13.05125 5.9175 12.1025 5.875 11.125 C6 8 6 8 7.0625 6.125 C10.1069286 4.35726726 12.5631012 4.63176084 16 5 C17.9375 6 17.9375 6 19 8 C19.03211434 10.02320317 19.05781797 12.04864738 18.97265625 14.0703125 C19.00667371 16.47097303 19.78891778 17.95629875 21 20 C21 20.99 21 21.98 21 23 C19.68 23 18.36 23 17 23 C15.25 21 15.25 21 14 19 C12.05000871 19.19471111 12.05000871 19.19471111 10 20 C8.71563266 21.9837767 8.71563266 21.9837767 8 24 C6.68 24 5.36 24 4 24 C3.71125 23.195625 3.4225 22.39125 3.125 21.5625 C2.26737432 18.8673532 2.26737432 18.8673532 0 18 C-4.17316574 17.57157247 -4.17316574 17.57157247 -7.8125 19.3125 C-9.19455846 21.10476225 -9.19455846 21.10476225 -10 24 C-11.32 24 -12.64 24 -14 24 C-15.75 21.5 -15.75 21.5 -17 19 C-18.94074861 19.27617533 -18.94074861 19.27617533 -21 20 C-21.66 20.99 -22.32 21.98 -23 23 C-24.32 23 -25.64 23 -27 23 C-26.47731534 20.23723823 -25.89130413 17.6739124 -25 15 C-25.04125 13.845 -25.0825 12.69 -25.125 11.5 C-25 8 -25 8 -23.9375 6.0625 C-20.88023824 4.3859371 -18.4093712 4.63471023 -15 5 C-13.0625 6 -13.0625 6 -12 8 C-11.76404716 10.71882023 -11.86522477 13.25957022 -12 16 C-11.06208077 13.18624232 -11.05430217 10.91372325 -11.25 8 C-11.28748322 4.65149945 -11.17852458 4.21002892 -8.875 1.5 C-5.46714413 -0.27801176 -3.78454468 -0.70960213 0 0 Z M-7 6 C-6.67 7.65 -6.34 9.3 -6 11 C-3.60280568 11.67958603 -3.60280568 11.67958603 -1 12 C-0.34 11.34 0.32 10.68 1 10 C0.67958603 7.39719432 0.67958603 7.39719432 0 5 C-3.48581856 3.7979936 -3.67992344 3.78661563 -7 6 Z M-20 9 C-20.33 10.32 -20.66 11.64 -21 13 C-19.68 13.33 -18.36 13.66 -17 14 C-16.67 12.68 -16.34 11.36 -16 10 C-17.32 9.67 -18.64 9.34 -20 9 Z M11 9 C10.67 10.32 10.34 11.64 10 13 C11.32 13.33 12.64 13.66 14 14 C14.33 12.68 14.66 11.36 15 10 C13.68 9.67 12.36 9.34 11 9 Z " fill="#000000" transform="translate(28,12)"/>
</svg>
