<?xml version="1.0" encoding="UTF-8"?>
<svg version="1.1" xmlns="http://www.w3.org/2000/svg" width="1024" height="1024">
<path d="M0 0 C337.92 0 675.84 0 1024 0 C1024 337.92 1024 675.84 1024 1024 C686.08 1024 348.16 1024 0 1024 C0 686.08 0 348.16 0 0 Z " fill="#FDFEFE" transform="translate(0,0)"/>
<path d="M0 0 C1.16022171 -0.00902847 2.32044342 -0.01805695 3.51582336 -0.02735901 C5.96584507 -0.0418311 8.41590515 -0.05074066 10.8659668 -0.05444336 C14.58384604 -0.06631228 18.30004991 -0.11550908 22.01757812 -0.16601562 C24.40754406 -0.17548431 26.7975201 -0.18271721 29.1875 -0.1875 C30.28478928 -0.20703232 31.38207855 -0.22656464 32.51261902 -0.24668884 C42.28687749 -0.19052003 50.96723719 2.3441439 58.30078125 9.0234375 C62.377797 13.52057961 65.1676935 18.55823281 67.92578125 23.93359375 C68.68616699 25.3736377 68.68616699 25.3736377 69.46191406 26.84277344 C70.47965615 28.77190712 71.49182543 30.70399243 72.49804688 32.63916016 C73.79965403 35.12975252 75.1270908 37.60326423 76.47265625 40.0703125 C76.8490625 40.7624585 77.22546875 41.45460449 77.61328125 42.16772461 C78.30465726 43.43879526 78.99729942 44.7091783 79.69140625 45.97875977 C81.92578125 50.14353364 81.92578125 50.14353364 81.92578125 52.37109375 C82.78816406 52.12875 83.65054688 51.88640625 84.5390625 51.63671875 C124.32075414 40.714607 124.32075414 40.714607 137.63671875 47.00390625 C145.87206322 51.92262735 151.37187041 59.20956739 157.08984375 66.71484375 C159.82048065 70.282624 162.72956007 73.66876252 165.67578125 77.05859375 C173.9378305 86.69377641 181.82245365 97.189951 181.41015625 110.4453125 C180.3165841 117.05084106 177.48587619 123.22029753 174.92578125 129.37109375 C174.49652344 130.43972656 174.06726563 131.50835937 173.625 132.609375 C171.60737042 137.57129791 169.43700881 142.44085621 167.15234375 147.28515625 C164.91462558 152.1137903 162.82650474 156.97299664 160.85546875 161.9140625 C160.60351746 162.54223373 160.35156616 163.17040497 160.09197998 163.81761169 C159.06157963 166.39005166 158.03347302 168.96309905 157.02490234 171.54418945 C156.27240299 173.46431935 155.50301314 175.37692596 154.73046875 177.2890625 C154.0650708 178.97165161 154.0650708 178.97165161 153.38623047 180.68823242 C151.77184679 183.65387305 150.90626224 184.07141914 147.92578125 185.37109375 C148.41264404 186.56250977 148.89950684 187.75392578 149.40112305 188.98144531 C154.51584312 201.58286672 159.21528372 214.29697122 163.73828125 227.12109375 C164.72268172 229.90057742 165.70821724 232.67965556 166.69425964 235.45855713 C167.29874536 237.16333086 167.90211494 238.86850098 168.50410461 240.57415771 C169.83011705 244.32459132 171.18262588 248.05853081 172.60668945 251.77294922 C175.60178926 259.94281429 174.3158976 268.48650497 170.92578125 276.37109375 C167.59867085 282.5774343 163.03173986 287.62508417 158.28125 292.7734375 C153.48299068 298.06505018 149.03283293 303.66974545 144.640625 309.30078125 C137.48957245 318.35305703 130.54471472 325.15819846 118.6953125 326.65234375 C106.69275665 327.13485856 94.38528691 323.38882809 82.9375 320.140625 C79.9594243 319.24731428 79.9594243 319.24731428 76.92578125 319.37109375 C76.65950928 319.88905518 76.3932373 320.4070166 76.11889648 320.94067383 C58.86648939 354.39482497 58.86648939 354.39482497 45.01708984 359.42822266 C39.75222956 360.88060379 34.38859375 360.69600666 28.96484375 360.70703125 C27.81970306 360.71368805 26.67456238 360.72034485 25.49472046 360.72720337 C23.07917887 360.73730077 20.66360955 360.74202129 18.24804688 360.74169922 C14.5698412 360.7460711 10.89283737 360.78242041 7.21484375 360.8203125 C4.86068116 360.82618163 2.50651291 360.83015038 0.15234375 360.83203125 C-0.9385556 360.84640228 -2.02945496 360.86077332 -3.15341187 360.87557983 C-12.52277939 360.82002897 -19.65268882 358.14339481 -27.07421875 352.37109375 C-32.94042419 346.32763606 -36.57314881 339.35283815 -40.44921875 331.93359375 C-41.09553962 330.71245916 -41.74266915 329.49175221 -42.390625 328.27148438 C-43.95980304 325.30878256 -45.52070135 322.34202844 -47.07421875 319.37109375 C-51.53853994 319.29479712 -54.89539167 319.75194479 -59.13671875 321.18359375 C-86.24775242 329.82100924 -86.24775242 329.82100924 -99.26171875 324.12109375 C-106.22200083 320.18742369 -111.09167775 314.47365166 -116.07421875 308.37109375 C-117.23050781 306.96730469 -117.23050781 306.96730469 -118.41015625 305.53515625 C-119.88701912 303.72664698 -121.35588181 301.91157316 -122.81640625 300.08984375 C-125.19743909 297.2227177 -127.70798538 294.5224119 -130.26171875 291.80859375 C-138.64374356 282.65865051 -144.495711 272.78729151 -144.33300781 260.14990234 C-143.86815932 255.15848203 -142.19728081 250.62834944 -140.51171875 245.93359375 C-140.14747803 244.88155762 -139.7832373 243.82952148 -139.40795898 242.74560547 C-136.96084803 235.7229983 -134.41138224 228.73633387 -131.80395508 221.77172852 C-127.30794414 209.73336201 -123.13781989 197.56189716 -119.07421875 185.37109375 C-119.52916718 184.95732986 -119.9841156 184.54356598 -120.45285034 184.11726379 C-122.16367902 182.27474745 -123.00806679 180.72533704 -124.01611328 178.43237305 C-124.36750366 177.64202667 -124.71889404 176.8516803 -125.08093262 176.03738403 C-125.45254517 175.18200043 -125.82415771 174.32661682 -126.20703125 173.4453125 C-126.79756287 172.10761307 -126.79756287 172.10761307 -127.40002441 170.7428894 C-128.67379802 167.85130035 -129.93693184 164.95521349 -131.19921875 162.05859375 C-132.06403925 160.08639703 -132.92911075 158.11431035 -133.79443359 156.14233398 C-154.23748248 109.45180566 -154.23748248 109.45180566 -149.69921875 96.43359375 C-145.18850819 86.52585757 -137.0067844 78.17897434 -129.97924805 69.97875977 C-127.32988863 66.88461393 -124.78387508 63.74262 -122.32421875 60.49609375 C-116.29573159 52.73299472 -110.72665536 47.27204306 -101.07421875 44.37109375 C-91.28029248 43.41916073 -82.13138436 45.05483554 -72.63671875 47.30859375 C-70.22180395 47.86134376 -67.80645165 48.41218651 -65.390625 48.9609375 C-63.73764404 49.33968018 -63.73764404 49.33968018 -62.05126953 49.72607422 C-58.72911202 50.44586593 -55.44880225 50.97846916 -52.07421875 51.37109375 C-51.81084717 50.68047852 -51.54747559 49.98986328 -51.27612305 49.27832031 C-49.12417703 44.07308506 -46.4712246 39.10534317 -43.89916992 34.09814453 C-43.22896435 32.78940936 -42.56288184 31.47855383 -41.90112305 30.16552734 C-35.79696959 18.05481369 -29.6507697 6.21078926 -16.1784668 1.31982422 C-10.87544829 -0.14525427 -5.46413736 0.02646041 0 0 Z " fill="#FCFDFD" transform="translate(497.07421875,331.62890625)"/>
<path d="M0 0 C1.16022171 -0.00902847 2.32044342 -0.01805695 3.51582336 -0.02735901 C5.96584507 -0.0418311 8.41590515 -0.05074066 10.8659668 -0.05444336 C14.58384604 -0.06631228 18.30004991 -0.11550908 22.01757812 -0.16601562 C24.40754406 -0.17548431 26.7975201 -0.18271721 29.1875 -0.1875 C30.28478928 -0.20703232 31.38207855 -0.22656464 32.51261902 -0.24668884 C42.28687749 -0.19052003 50.96723719 2.3441439 58.30078125 9.0234375 C62.377797 13.52057961 65.1676935 18.55823281 67.92578125 23.93359375 C68.68616699 25.3736377 68.68616699 25.3736377 69.46191406 26.84277344 C70.47965615 28.77190712 71.49182543 30.70399243 72.49804688 32.63916016 C73.79965403 35.12975252 75.1270908 37.60326423 76.47265625 40.0703125 C76.8490625 40.7624585 77.22546875 41.45460449 77.61328125 42.16772461 C78.30465726 43.43879526 78.99729942 44.7091783 79.69140625 45.97875977 C81.92578125 50.14353364 81.92578125 50.14353364 81.92578125 52.37109375 C82.78816406 52.12875 83.65054688 51.88640625 84.5390625 51.63671875 C124.32075414 40.714607 124.32075414 40.714607 137.63671875 47.00390625 C145.87206322 51.92262735 151.37187041 59.20956739 157.08984375 66.71484375 C159.82048065 70.282624 162.72956007 73.66876252 165.67578125 77.05859375 C173.9378305 86.69377641 181.82245365 97.189951 181.41015625 110.4453125 C180.3165841 117.05084106 177.48587619 123.22029753 174.92578125 129.37109375 C174.49652344 130.43972656 174.06726563 131.50835937 173.625 132.609375 C171.60869061 137.56805118 169.44159834 142.43744367 167.1640625 147.28125 C163.75697045 154.63891906 160.67159077 162.11321398 157.61328125 169.62109375 C156.8095623 171.59269797 156.00496737 173.56391707 155.19721985 175.53387451 C154.47762814 177.28885216 153.76153726 179.04526405 153.0456543 180.80175781 C151.92578125 183.37109375 151.92578125 183.37109375 150.92578125 184.37109375 C148.05078125 184.74609375 148.05078125 184.74609375 144.92578125 184.37109375 C141.93889128 180.39373249 140.50750828 175.78178635 138.92578125 171.12109375 C138.66595459 170.36328613 138.40612793 169.60547852 138.13842773 168.82470703 C137.62813069 167.33523455 137.1195216 165.84518245 136.61279297 164.35449219 C136.04920116 162.72740625 135.44775106 161.11348027 134.8359375 159.50390625 C134.55621094 158.75882813 134.27648437 158.01375 133.98828125 157.24609375 C133.63443359 156.34503906 133.63443359 156.34503906 133.2734375 155.42578125 C132.14016677 148.72802393 135.24016111 142.82377871 137.98828125 136.93359375 C138.36533203 136.10666016 138.74238281 135.27972656 139.13085938 134.42773438 C140.05452483 132.40502396 140.98625079 130.38647118 141.92578125 128.37109375 C138.90964198 129.83497087 136.34018694 131.45338272 133.67578125 133.49609375 C132.969375 134.03492188 132.26296875 134.57375 131.53515625 135.12890625 C131.0040625 135.53882813 130.47296875 135.94875 129.92578125 136.37109375 C128.60578125 135.05109375 127.28578125 133.73109375 125.92578125 132.37109375 C127.51138795 127.98981209 130.95137613 125.50048811 134.42578125 122.62109375 C135.36538696 121.83472534 135.36538696 121.83472534 136.32397461 121.0324707 C137.59100876 119.97463887 138.86044022 118.91967142 140.13232422 117.86767578 C141.74038978 116.52579695 143.32134214 115.15158259 144.8984375 113.7734375 C145.75308594 113.04253906 146.60773438 112.31164062 147.48828125 111.55859375 C148.60396484 110.58986328 148.60396484 110.58986328 149.7421875 109.6015625 C151.92578125 108.37109375 151.92578125 108.37109375 154.703125 108.671875 C155.43660156 108.90261719 156.17007812 109.13335937 156.92578125 109.37109375 C156.3692298 114.85098495 154.96726939 119.32533349 152.80078125 124.37109375 C152.49527344 125.10585938 152.18976563 125.840625 151.875 126.59765625 C150.31948552 130.29279676 148.6821152 133.91893794 146.87109375 137.49609375 C142.34023712 145.89630433 142.34023712 145.89630433 142.19140625 155.17578125 C143.40876455 158.81490554 144.65961839 162.42502142 146.0859375 165.98828125 C146.92578125 168.37109375 146.92578125 168.37109375 146.92578125 171.37109375 C147.58578125 171.37109375 148.24578125 171.37109375 148.92578125 171.37109375 C149.02616699 170.70247314 149.12655273 170.03385254 149.22998047 169.3449707 C150.09781797 165.63580277 151.5406467 162.26680023 153.05859375 158.7890625 C153.53097977 157.69130241 153.53097977 157.69130241 154.01290894 156.57136536 C155.02100937 154.23179189 156.03581335 151.89519486 157.05078125 149.55859375 C157.71007046 148.03078662 158.36892842 146.50279331 159.02734375 144.97460938 C159.68353528 143.45440184 160.33978518 141.93421951 160.99609375 140.4140625 C161.32037354 139.66136581 161.64465332 138.90866913 161.97875977 138.13316345 C163.59881872 134.38546835 165.2457655 130.65437244 166.953125 126.94555664 C167.27578339 126.23559036 167.59844177 125.52562408 167.93087769 124.79414368 C168.53459241 123.46905364 169.14739472 122.14804541 169.77151489 120.83244324 C173.10124711 113.47874678 173.53177191 105.65505266 171.171875 97.890625 C168.20199871 91.87415975 163.28752867 86.88506089 158.90625 81.8515625 C155.85339481 78.32548969 152.97537789 74.67754922 150.11328125 70.99609375 C149.19289638 69.82407106 148.27233111 68.65218999 147.3515625 67.48046875 C145.95630297 65.69202014 144.57180555 63.89480609 143.21875 62.07421875 C139.54521228 57.33808747 135.48689986 55.43982987 129.92578125 53.37109375 C129.26578125 53.04109375 128.60578125 52.71109375 127.92578125 52.37109375 C120.61887017 51.97424893 114.10891393 53.14823306 106.99609375 54.7421875 C105.88394501 54.98397232 104.77179626 55.22575714 103.62594604 55.47486877 C100.09891973 56.24407305 96.57493189 57.02633253 93.05078125 57.80859375 C90.66033493 58.33089655 88.26971143 58.85238918 85.87890625 59.37304688 C81.51995423 60.32660719 77.16118282 61.28087011 72.80517578 62.24780273 C71.93297394 62.44099594 71.06077209 62.63418915 70.16213989 62.83323669 C67.77702923 63.37310971 67.77702923 63.37310971 64.92578125 64.37109375 C67.49714031 66.13304315 70.1110845 67.81878101 72.73828125 69.49609375 C73.81625977 70.23666016 73.81625977 70.23666016 74.91601562 70.9921875 C79.27325165 73.71785937 82.14084263 74.74660876 87.26953125 73.83984375 C89.16128868 73.37536374 91.04684943 72.88500335 92.92578125 72.37109375 C94.86559829 71.93428779 96.80704188 71.50464613 98.75 71.08203125 C101.69680768 70.41364258 104.64183619 69.73941028 107.58398438 69.05078125 C113.16587613 67.7945752 118.20066848 67.01119143 123.92578125 67.37109375 C124.92578125 68.37109375 124.92578125 68.37109375 125.37890625 70.57421875 C124.69604972 74.78909181 121.85306191 76.58686366 118.67578125 79.12109375 C117.73581299 79.89791504 117.73581299 79.89791504 116.77685547 80.69042969 C110.97448467 85.44407352 104.99714711 89.96768555 98.92578125 94.37109375 C96.98828125 93.62109375 96.98828125 93.62109375 94.92578125 92.37109375 C94.59578125 91.05109375 94.26578125 89.73109375 93.92578125 88.37109375 C97.88578125 85.07109375 101.84578125 81.77109375 105.92578125 78.37109375 C97.67680195 79.63828271 97.67680195 79.63828271 89.55078125 81.49609375 C83.34681961 82.99360173 79.70406907 82.68734121 74.1953125 79.4140625 C73.14537109 78.79595703 72.09542969 78.17785156 71.01367188 77.54101562 C69.93279297 76.88681641 68.85191406 76.23261719 67.73828125 75.55859375 C66.64580078 74.91599609 65.55332031 74.27339844 64.42773438 73.61132812 C55.09089275 68.05984804 55.09089275 68.05984804 52.92578125 65.37109375 C52.46599866 63.46628015 52.01066366 61.56003113 51.59765625 59.64453125 C50.38125793 55.52857878 48.10823848 52.0468112 45.92578125 48.37109375 C45.59578125 53.65109375 45.26578125 58.93109375 44.92578125 64.37109375 C42.61578125 64.37109375 40.30578125 64.37109375 37.92578125 64.37109375 C37.90113115 59.26245479 37.88294518 54.15385016 37.87084961 49.04516602 C37.86580921 47.30590207 37.85897695 45.56664239 37.8503418 43.82739258 C37.83826333 41.33283438 37.83255017 38.83833202 37.828125 36.34375 C37.82296371 35.56145523 37.81780243 34.77916046 37.81248474 33.97315979 C37.81228899 32.10542261 37.86378431 30.23780171 37.92578125 28.37109375 C38.92578125 27.37109375 38.92578125 27.37109375 41.30078125 27.05859375 C43.92578125 27.37109375 43.92578125 27.37109375 45.34375 28.90625 C47.45156655 32.19028023 49.15351107 35.61687905 50.86328125 39.12109375 C51.19779297 39.79914063 51.53230469 40.4771875 51.87695312 41.17578125 C52.55180812 42.54369542 53.22418048 43.91283723 53.89404297 45.28320312 C54.60792031 46.72785032 55.33437429 48.16632559 56.07080078 49.59960938 C56.4367334 50.31310547 56.80266602 51.02660156 57.1796875 51.76171875 C57.68157593 52.72899902 57.68157593 52.72899902 58.19360352 53.71582031 C58.92578125 55.37109375 58.92578125 55.37109375 58.92578125 57.37109375 C59.66183594 57.15453125 60.39789062 56.93796875 61.15625 56.71484375 C62.13207031 56.43640625 63.10789062 56.15796875 64.11328125 55.87109375 C65.55767578 55.4534375 65.55767578 55.4534375 67.03125 55.02734375 C69.79138274 54.40156467 72.11288833 54.32134472 74.92578125 54.37109375 C73.06300768 50.88647926 71.19720034 47.40350667 69.32885742 43.921875 C68.39024754 42.17138537 67.45387939 40.4196943 66.51757812 38.66796875 C63.47155644 32.99495482 60.39168656 27.34142577 57.21875 21.73828125 C56.68403076 20.79065918 56.14931152 19.84303711 55.59838867 18.86669922 C51.9833734 13.47293392 46.95431618 10.49029979 40.92578125 8.37109375 C38.34723811 8.05326195 38.34723811 8.05326195 35.63574219 8.06469727 C34.60406921 8.04870987 33.57239624 8.03272247 32.50946045 8.01625061 C30.85155487 8.00820656 30.85155487 8.00820656 29.16015625 8 C28.01218567 7.99097153 26.86421509 7.98194305 25.68145752 7.97264099 C23.25397343 7.9581463 20.82645033 7.9492537 18.39892578 7.94555664 C14.70277263 7.93368048 11.00830006 7.88450038 7.3125 7.83398438 C4.94922686 7.82451726 2.58594351 7.81728361 0.22265625 7.8125 C-0.87451721 7.79296768 -1.97169067 7.77343536 -3.10211182 7.75331116 C-10.457233 7.79611803 -14.97942222 9.35623606 -21.07421875 13.37109375 C-22.15378342 13.87503662 -22.15378342 13.87503662 -23.25515747 14.38916016 C-25.89815815 15.81585819 -26.12938148 17.57975863 -27.07421875 20.37109375 C-27.92502507 22.10969063 -28.79905459 23.83704405 -29.69140625 25.5546875 C-30.21041504 26.55459717 -30.72942383 27.55450684 -31.26416016 28.5847168 C-31.82022949 29.64859619 -32.37629883 30.71247559 -32.94921875 31.80859375 C-33.5220459 32.90792236 -34.09487305 34.00725098 -34.68505859 35.13989258 C-39.09654601 43.57497119 -43.61108441 51.95050569 -48.20263672 60.28881836 C-50.58175175 64.61100086 -52.91131488 68.936415 -55.07421875 73.37109375 C-51.79833539 71.94491054 -48.52950268 70.5032275 -45.26171875 69.05859375 C-44.33294922 68.65447266 -43.40417969 68.25035156 -42.44726562 67.83398438 C-41.55458984 67.43759766 -40.66191406 67.04121094 -39.7421875 66.6328125 C-38.92000732 66.27147217 -38.09782715 65.91013184 -37.25073242 65.5378418 C-32.59669023 63.04298284 -30.9697645 59.55980953 -28.60546875 54.91015625 C-28.28388794 54.28257416 -27.96230713 53.65499207 -27.63098145 53.00839233 C-26.60660231 51.00702449 -25.59007637 49.00179841 -24.57421875 46.99609375 C-23.55697868 44.99827092 -22.53808873 43.00131024 -21.51745605 41.00521851 C-20.58988033 39.18948582 -19.66688725 37.37141423 -18.74414062 35.55322266 C-15.65818176 29.67275661 -15.65818176 29.67275661 -14.07421875 27.37109375 C-11.44921875 26.99609375 -11.44921875 26.99609375 -9.07421875 27.37109375 C-8.07421875 28.37109375 -8.07421875 28.37109375 -7.96069336 31.78930664 C-7.96085247 33.30746363 -7.96654649 34.82562604 -7.9765625 36.34375 C-7.97868492 37.540214 -7.97868492 37.540214 -7.98085022 38.760849 C-7.98646559 41.3184681 -7.99902063 43.87600093 -8.01171875 46.43359375 C-8.01673177 48.1634102 -8.02129502 49.89322801 -8.02539062 51.62304688 C-8.03644 55.87242928 -8.05371489 60.12174687 -8.07421875 64.37109375 C-10.38421875 64.37109375 -12.69421875 64.37109375 -15.07421875 64.37109375 C-15.40421875 58.76109375 -15.73421875 53.15109375 -16.07421875 47.37109375 C-16.7290625 48.88960938 -17.38390625 50.408125 -18.05859375 51.97265625 C-26.24665809 70.13593484 -26.24665809 70.13593484 -32.82421875 73.37109375 C-34.88826496 74.09527291 -36.9745103 74.75794885 -39.07421875 75.37109375 C-41.13331194 76.1632875 -43.17069319 77.00001169 -45.20996094 77.84179688 C-47.16948433 78.64575174 -49.14027185 79.41192322 -51.1171875 80.171875 C-53.91658541 81.08361806 -53.91658541 81.08361806 -55.07421875 82.37109375 C-60.911955 82.76687248 -63.85715502 82.14612765 -69.07421875 79.37109375 C-71.40081706 78.99360749 -73.73435273 78.65496442 -76.07421875 78.37109375 C-75.28015625 78.974375 -74.48609375 79.57765625 -73.66796875 80.19921875 C-72.64703125 80.9984375 -71.62609375 81.79765625 -70.57421875 82.62109375 C-69.55328125 83.41 -68.53234375 84.19890625 -67.48046875 85.01171875 C-66.68640625 85.7903125 -65.89234375 86.56890625 -65.07421875 87.37109375 C-65.07421875 91.37109375 -65.07421875 91.37109375 -67.07421875 94.37109375 C-71.540993 93.11481349 -74.2136328 90.6268343 -77.54296875 87.56640625 C-79.54391815 85.83101495 -81.54266361 84.24766754 -83.66796875 82.67578125 C-84.30033447 82.20261475 -84.9327002 81.72944824 -85.58422852 81.24194336 C-86.85105874 80.29988379 -88.12745089 79.37052377 -89.41381836 78.45532227 C-92.45882095 76.16812763 -93.94877175 74.79378463 -95.046875 71.09375 C-95.05589844 70.19527344 -95.06492187 69.29679687 -95.07421875 68.37109375 C-94.74421875 68.04109375 -94.41421875 67.71109375 -94.07421875 67.37109375 C-86.95851766 67.55361818 -79.90825397 69.05058324 -72.94921875 70.43359375 C-71.99273437 70.61986328 -71.03625 70.80613281 -70.05078125 70.99804688 C-67.72443544 71.45168431 -65.39897939 71.90941413 -63.07421875 72.37109375 C-62.70296875 71.10265625 -62.70296875 71.10265625 -62.32421875 69.80859375 C-60.93448248 65.98681901 -59.16301037 62.85241312 -57.07421875 59.37109375 C-58.29496094 59.11714844 -59.51570313 58.86320312 -60.7734375 58.6015625 C-62.43621744 58.25399966 -64.0989764 57.90633638 -65.76171875 57.55859375 C-67.0609729 57.28837402 -67.0609729 57.28837402 -68.38647461 57.01269531 C-73.33090478 55.97658848 -78.235721 54.84928144 -83.13671875 53.62109375 C-91.71230802 51.66716202 -98.61520616 51.11458595 -106.5078125 55.51171875 C-115.52895437 62.04758409 -122.19272354 71.85805698 -128.80517578 80.69921875 C-130.12941079 82.44380538 -131.48537532 84.15919892 -132.8515625 85.87109375 C-133.30716553 86.44674072 -133.76276855 87.0223877 -134.23217773 87.61547852 C-135.49843347 89.21298325 -136.77051904 90.805862 -138.04296875 92.3984375 C-142.7356045 99.26592943 -143.4975064 107.28192494 -142.07421875 115.37109375 C-140.07998946 122.25006237 -136.96536748 128.73941697 -134.01171875 135.24609375 C-133.24959701 136.9729204 -132.48981732 138.70078266 -131.73242188 140.4296875 C-130.25063054 143.80159347 -128.75529576 147.16686122 -127.24560547 150.52636719 C-125.13945797 155.21446021 -123.07116874 159.91843881 -121.015625 164.62890625 C-120.7162352 165.3145163 -120.4168454 166.00012634 -120.10838318 166.70651245 C-119.42982317 168.26115247 -118.75193475 169.81608561 -118.07421875 171.37109375 C-112.33364149 158.87248002 -112.33364149 158.87248002 -113.02050781 145.64550781 C-113.45588867 144.73510742 -113.89126953 143.82470703 -114.33984375 142.88671875 C-114.81808594 141.86835938 -115.29632813 140.85 -115.7890625 139.80078125 C-116.29566406 138.75148438 -116.80226563 137.7021875 -117.32421875 136.62109375 C-123.18396772 124.28639907 -123.18396772 124.28639907 -125.49609375 118.91796875 C-125.82706055 118.15838867 -126.15802734 117.39880859 -126.49902344 116.61621094 C-127.19656755 113.89353876 -126.79997847 112.05747025 -126.07421875 109.37109375 C-122.4147499 108.83770253 -121.20156586 109.28073472 -118.12890625 111.4609375 C-117.05833838 112.39810336 -115.99891717 113.3481102 -114.94921875 114.30859375 C-113.80696962 115.31881753 -112.66372224 116.32791362 -111.51953125 117.3359375 C-110.66149902 118.09946533 -110.66149902 118.09946533 -109.78613281 118.87841797 C-106.3398323 121.88336397 -102.71498846 124.67083548 -99.12109375 127.49609375 C-97.07421875 129.37109375 -97.07421875 129.37109375 -96.07421875 132.37109375 C-97.51171875 134.55859375 -97.51171875 134.55859375 -99.07421875 136.37109375 C-102.35691195 134.88032941 -105.00499316 132.98489054 -107.82421875 130.74609375 C-108.6234375 130.11445313 -109.42265625 129.4828125 -110.24609375 128.83203125 C-110.849375 128.34992188 -111.45265625 127.8678125 -112.07421875 127.37109375 C-110.05261065 133.99747585 -107.40264459 139.92331019 -104.18359375 146.0625 C-101.56037082 153.88598529 -105.31232822 161.70188564 -107.94921875 169.12109375 C-108.30113281 170.14847656 -108.65304687 171.17585937 -109.015625 172.234375 C-112.3581611 181.76495192 -112.3581611 181.76495192 -115.07421875 184.37109375 C-118.26171875 184.62109375 -118.26171875 184.62109375 -121.07421875 184.37109375 C-128.56583609 167.9510572 -135.81305705 151.43963833 -142.82421875 134.80859375 C-143.17959717 133.96818542 -143.53497559 133.1277771 -143.90112305 132.26190186 C-144.91542862 129.86094401 -145.92535328 127.45819765 -146.93359375 125.0546875 C-147.23718811 124.33608047 -147.54078247 123.61747345 -147.85357666 122.87709045 C-151.43251419 114.30195459 -152.84265966 105.45069419 -149.69921875 96.43359375 C-145.18850819 86.52585757 -137.0067844 78.17897434 -129.97924805 69.97875977 C-127.32988863 66.88461393 -124.78387508 63.74262 -122.32421875 60.49609375 C-116.29573159 52.73299472 -110.72665536 47.27204306 -101.07421875 44.37109375 C-91.28029248 43.41916073 -82.13138436 45.05483554 -72.63671875 47.30859375 C-70.22180395 47.86134376 -67.80645165 48.41218651 -65.390625 48.9609375 C-63.73764404 49.33968018 -63.73764404 49.33968018 -62.05126953 49.72607422 C-58.72911202 50.44586593 -55.44880225 50.97846916 -52.07421875 51.37109375 C-51.81084717 50.68047852 -51.54747559 49.98986328 -51.27612305 49.27832031 C-49.12417703 44.07308506 -46.4712246 39.10534317 -43.89916992 34.09814453 C-43.22896435 32.78940936 -42.56288184 31.47855383 -41.90112305 30.16552734 C-35.79696959 18.05481369 -29.6507697 6.21078926 -16.1784668 1.31982422 C-10.87544829 -0.14525427 -5.46413736 0.02646041 0 0 Z " fill="#388C91" transform="translate(497.07421875,331.62890625)"/>
<path d="M0 0 C2.625 0.5 2.625 0.5 4.45703125 2.79296875 C7.51963337 7.68013053 9.6871565 13.01852645 11.9375 18.3125 C12.40478516 19.35470703 12.87207031 20.39691406 13.35351562 21.47070312 C17.93299784 32.2463533 16.21345898 38.96727995 12.0625 49.5625 C11.73314453 50.42810547 11.40378906 51.29371094 11.06445312 52.18554688 C10.26061991 54.29415283 9.4474288 56.39859349 8.625 58.5 C9.09768311 58.09442871 9.57036621 57.68885742 10.05737305 57.27099609 C10.68168213 56.73555176 11.30599121 56.20010742 11.94921875 55.6484375 C12.56627686 55.11911621 13.18333496 54.58979492 13.8190918 54.04443359 C20.30220518 48.5 20.30220518 48.5 22.625 48.5 C24.25 50.5 24.25 50.5 25.625 52.5 C24.06659323 56.46517698 21.31114861 58.87308571 18.1875 61.625 C17.10371284 62.59063672 16.02039029 63.55679512 14.9375 64.5234375 C14.38707031 65.01295898 13.83664062 65.50248047 13.26953125 66.00683594 C11.66483868 67.46382818 10.10951546 68.95867915 8.5625 70.4765625 C7.61375 71.39179687 6.665 72.30703125 5.6875 73.25 C4.83285156 74.09046875 3.97820312 74.9309375 3.09765625 75.796875 C0.625 77.5 0.625 77.5 -2.19140625 77.265625 C-3.27228516 76.88664063 -3.27228516 76.88664063 -4.375 76.5 C-4.71012614 71.42389697 -3.52505506 67.45787206 -1.71484375 62.79296875 C-1.16290557 61.30422391 -0.61148956 59.8152854 -0.06054688 58.32617188 C0.81022047 56.00649472 1.68678426 53.68936754 2.57348633 51.37573242 C3.43167395 49.12487822 4.26580251 46.8661643 5.09765625 44.60546875 C5.36530289 43.92703415 5.63294952 43.24859955 5.90870667 42.54960632 C8.65919606 34.98842587 7.38657048 28.34135815 4.0625 21.125 C1.625 15.78045326 1.625 15.78045326 1.625 12.5 C0.965 12.5 0.305 12.5 -0.375 12.5 C-0.643125 13.77875 -0.91125 15.0575 -1.1875 16.375 C-2.68730127 23.07690916 -4.54516648 29.59600108 -7.1484375 35.95703125 C-9.72810174 42.35642341 -12.21308245 48.78550005 -14.625 55.25 C-15.08390625 56.42304687 -15.5428125 57.59609375 -16.015625 58.8046875 C-19.55780999 68.39810517 -21.6933689 78.62544454 -17.6875 88.4375 C-13.79993516 95.14739299 -8.28860477 100.81352558 -3.12109375 106.54785156 C-0.30292857 109.69858545 2.44172168 112.9112254 5.1875 116.125 C5.67549072 116.69250977 6.16348145 117.26001953 6.66625977 117.84472656 C8.74994121 120.27320551 10.78171126 122.70680027 12.71484375 125.2578125 C14.61759241 127.4913048 15.99013004 128.53548963 18.625 129.75 C19.285 130.06453125 19.945 130.3790625 20.625 130.703125 C29.00090191 134.04039842 36.93620555 132.49271968 45.3125 130 C47.23265848 129.45167163 49.15325836 128.90488739 51.07421875 128.359375 C52.1111084 128.06224609 53.14799805 127.76511719 54.21630859 127.45898438 C57.97507283 126.40151224 61.74479972 125.38917045 65.51953125 124.390625 C66.1911882 124.21289551 66.86284515 124.03516602 67.55485535 123.85205078 C70.23826426 123.14289994 72.92203562 122.43513254 75.60604858 121.72827148 C77.48782552 121.23204634 79.36892416 120.73325124 81.25 120.234375 C82.33539063 119.94788086 83.42078125 119.66138672 84.5390625 119.36621094 C87.60514251 118.50557392 90.61284288 117.53231961 93.625 116.5 C90.6608122 115.11122898 87.6769758 113.77085518 84.6875 112.4375 C83.44129883 111.85258789 83.44129883 111.85258789 82.16992188 111.25585938 C70.48643946 106.118764 59.45178941 110.97469458 47.75244141 114.21240234 C45.69675334 114.7785856 43.63780781 115.33136892 41.578125 115.8828125 C40.36286133 116.21684082 39.14759766 116.55086914 37.89550781 116.89501953 C34.69048211 117.48788708 32.72259101 117.40145024 29.625 116.5 C28.91015625 114.73828125 28.91015625 114.73828125 28.625 112.5 C29.99609375 110.60546875 29.99609375 110.60546875 32.0625 108.6875 C32.80371094 107.99140625 33.54492188 107.2953125 34.30859375 106.578125 C35.07300781 105.89234375 35.83742188 105.2065625 36.625 104.5 C37.29660156 103.89671875 37.96820313 103.2934375 38.66015625 102.671875 C40.63361646 100.92989422 42.62478276 99.21116851 44.625 97.5 C46.1067291 96.23215527 47.58595675 94.96138045 49.0625 93.6875 C49.72121094 93.12417969 50.37992187 92.56085938 51.05859375 91.98046875 C52.73519986 90.56530792 52.73519986 90.56530792 53.625 88.5 C57.10399158 89.89159663 58.10552501 91.13251488 59.625 94.5 C55.95833333 98.16666667 52.29166667 101.83333333 48.625 105.5 C49.5696814 105.21950806 49.5696814 105.21950806 50.53344727 104.93334961 C53.41409859 104.08690857 56.30052144 103.26208982 59.1875 102.4375 C60.17814453 102.14294922 61.16878906 101.84839844 62.18945312 101.54492188 C72.56947981 98.6136851 78.97568489 100.73616769 88.5625 105.125 C89.98852539 105.74568359 89.98852539 105.74568359 91.44335938 106.37890625 C104.37046907 112.24109659 104.37046907 112.24109659 107.625 117.5 C108.56737296 122.5031166 108.38425524 127.38018856 108.125 132.4375 C108.08481576 133.80262979 108.04832359 135.16787353 108.015625 136.53320312 C107.9216267 139.85839304 107.79033504 143.17771956 107.625 146.5 C105.975 146.83 104.325 147.16 102.625 147.5 C98.45524925 140.92948367 94.52072865 134.23613024 90.625 127.5 C88.8615625 127.7165625 88.8615625 127.7165625 87.0625 127.9375 C86.40121094 128.01871094 85.73992187 128.09992188 85.05859375 128.18359375 C81.90977099 128.59299125 78.7681254 129.04914842 75.625 129.5 C77.51549101 133.1175401 79.41811654 136.72840598 81.33178711 140.33374023 C81.97994024 141.55889002 82.6248598 142.78575656 83.26635742 144.0144043 C84.1936017 145.78892073 85.13380976 147.55664373 86.07421875 149.32421875 C86.63455811 150.38729248 87.19489746 151.45036621 87.7722168 152.5456543 C91.36238716 158.27034156 96.34455018 162.90352545 102.625 165.5 C106.78839708 166.196031 110.87195226 166.20179296 115.0859375 166.1640625 C116.27168365 166.16884613 117.45742981 166.17362976 118.67910767 166.17855835 C121.17866345 166.18194949 123.67826406 166.17280255 126.17773438 166.15185547 C129.98148745 166.12513007 133.7822767 166.15160954 137.5859375 166.18359375 C140.02344395 166.18028859 142.46094858 166.17388017 144.8984375 166.1640625 C146.02478607 166.17418365 147.15113464 166.18430481 148.31161499 166.19473267 C155.67469781 166.0867372 161.54132515 164.83115748 167.625 160.5 C170.09521253 157.6997262 171.85499185 154.78257159 173.625 151.5 C174.17575195 150.51209473 174.72650391 149.52418945 175.29394531 148.50634766 C177.14859825 145.12688248 178.95396863 141.72327195 180.75 138.3125 C181.73301292 136.45873209 182.71781374 134.60592194 183.70280457 132.75320435 C184.36672381 131.50434359 185.03014608 130.25521852 185.69306946 129.00582886 C188.93748805 122.89577022 192.24258058 116.81933822 195.5625 110.75 C196.07635254 109.81003174 196.59020508 108.87006348 197.11962891 107.90161133 C198.28715187 105.76722708 199.45551513 103.6333097 200.625 101.5 C197.89425298 102.76752425 195.16540402 104.03888332 192.4375 105.3125 C191.66857422 105.66892578 190.89964844 106.02535156 190.10742188 106.39257812 C188.98110352 106.91948242 188.98110352 106.91948242 187.83203125 107.45703125 C187.1460083 107.77647705 186.45998535 108.09592285 185.75317383 108.42504883 C180.79940448 110.92722233 178.11074361 112.66446522 175.50390625 117.69140625 C174.68889648 119.23344727 174.68889648 119.23344727 173.85742188 120.80664062 C173.30634766 121.88107422 172.75527344 122.95550781 172.1875 124.0625 C170.01673415 128.21738162 167.83264635 132.36458743 165.625 136.5 C165.10663574 137.48081543 164.58827148 138.46163086 164.05419922 139.47216797 C163.55033691 140.37725098 163.04647461 141.28233398 162.52734375 142.21484375 C162.08769287 143.01913818 161.64804199 143.82343262 161.19506836 144.65209961 C159.625 146.5 159.625 146.5 157.00610352 147.33032227 C155.82745728 147.41431274 155.82745728 147.41431274 154.625 147.5 C153.625 146.5 153.625 146.5 153.51147461 143.08178711 C153.51163372 141.56363012 153.51732774 140.04546771 153.52734375 138.52734375 C153.52946617 137.33087975 153.52946617 137.33087975 153.53163147 136.11024475 C153.53724684 133.55262565 153.54980188 130.99509282 153.5625 128.4375 C153.56751302 126.70768355 153.57207627 124.97786574 153.57617188 123.24804688 C153.58722125 118.99866447 153.60449614 114.74934688 153.625 110.5 C155.935 110.5 158.245 110.5 160.625 110.5 C160.955 115.78 161.285 121.06 161.625 126.5 C162.32625 125.11425781 163.0275 123.72851562 163.75 122.30078125 C164.70723251 120.47077793 165.66562774 118.64138247 166.625 116.8125 C167.08261719 115.90048828 167.54023437 114.98847656 168.01171875 114.04882812 C171.30858494 107.83897743 174.28717751 104.51107535 180.625 101.5 C181.50510742 101.06776123 182.38521484 100.63552246 183.29199219 100.19018555 C186.17617071 98.81095659 189.08140597 97.49216952 192 96.1875 C192.99644531 95.73310547 193.99289062 95.27871094 195.01953125 94.81054688 C202.3574953 91.5 202.3574953 91.5 204.625 91.5 C204.625 90.84 204.625 90.18 204.625 89.5 C208.51176512 90.06792915 210.42675349 91.8514821 213.25 94.5 C214.12140625 95.30824219 214.9928125 96.11648438 215.890625 96.94921875 C216.79296875 97.79097656 217.6953125 98.63273438 218.625 99.5 C220.41379905 101.10736371 222.20536026 102.71166011 224 104.3125 C225.55032884 105.69870608 227.09262184 107.09397583 228.625 108.5 C229.76582031 109.53447266 229.76582031 109.53447266 230.9296875 110.58984375 C231.48914063 111.22019531 232.04859375 111.85054687 232.625 112.5 C232.375 115.25 232.375 115.25 231.625 117.5 C225.77665773 117.80492694 220.96353569 116.72531841 215.375 115.0625 C214.57320312 114.83240234 213.77140625 114.60230469 212.9453125 114.36523438 C209.81706037 113.46285395 206.71410327 112.52970109 203.625 111.5 C203.25375 112.7684375 203.25375 112.7684375 202.875 114.0625 C201.48526373 117.88427474 199.71379162 121.01868063 197.625 124.5 C218.72198754 132.90305546 218.72198754 132.90305546 240.5 130.8125 C250.95159622 125.98410099 259.31812254 113.04563915 266.38671875 104.26953125 C267.93325082 102.35593397 269.49975118 100.45836465 271.08203125 98.57421875 C271.87996094 97.62160156 272.67789062 96.66898438 273.5 95.6875 C274.21929688 94.83542969 274.93859375 93.98335937 275.6796875 93.10546875 C280.79392292 86.25567955 281.74964803 80.2330375 280.99169922 71.78759766 C279.75575671 64.07735708 276.4772173 56.72691775 273.625 49.5 C271.55735799 44.09295455 269.60065363 38.65086804 267.6875 33.1875 C265.37563443 26.60929663 263.02830262 20.04546538 260.625 13.5 C258.44007318 16.77739023 257.20518494 20.05890596 255.9375 23.75 C255.69966797 24.39324219 255.46183594 25.03648437 255.21679688 25.69921875 C252.71446773 32.99339814 254.5133753 38.72405116 257.09375 45.75390625 C257.33411987 46.41784897 257.57448975 47.08179169 257.82214355 47.76585388 C258.58339327 49.86712117 259.35328714 51.96505499 260.125 54.0625 C260.89614162 56.16370398 261.66514535 58.26557798 262.42785645 60.36985779 C263.11914788 62.27657151 263.81814674 64.18048568 264.51757812 66.08422852 C265.54406701 69.25036741 266.26720789 72.19319892 266.625 75.5 C265.625 76.5 265.625 76.5 263 77 C258.63388585 76.35316827 257.36931257 74.65990715 254.46875 71.4921875 C252.65642734 69.53395751 250.77081837 67.80264916 248.75 66.0625 C245.68651116 63.41949002 242.64700756 60.75293934 239.625 58.0625 C238.861875 57.38316406 238.09875 56.70382812 237.3125 56.00390625 C236.4771875 55.25947266 236.4771875 55.25947266 235.625 54.5 C236.625 52.5 237.625 50.5 238.625 48.5 C242.38230247 50.1281644 245.241823 52.51401917 248.375 55.125 C249.35984375 55.94226563 250.3446875 56.75953125 251.359375 57.6015625 C252.10703125 58.22804688 252.8546875 58.85453125 253.625 59.5 C253.34712646 58.80962646 253.06925293 58.11925293 252.78295898 57.40795898 C251.52592315 54.25757731 250.29409042 51.09791109 249.0625 47.9375 C248.62486328 46.85146484 248.18722656 45.76542969 247.73632812 44.64648438 C247.32705078 43.58623047 246.91777344 42.52597656 246.49609375 41.43359375 C246.11380615 40.46478271 245.73151855 39.49597168 245.33764648 38.49780273 C243.95684704 32.68936274 245.74598312 27.6292889 247.83984375 22.19921875 C248.27876953 21.05775391 248.71769531 19.91628906 249.16992188 18.74023438 C249.62947266 17.56783203 250.08902344 16.39542969 250.5625 15.1875 C251.01818359 13.99576172 251.47386719 12.80402344 251.94335938 11.57617188 C255.36123029 2.76376971 255.36123029 2.76376971 257.625 0.5 C260.0625 0.1875 260.0625 0.1875 262.625 0.5 C265.02619594 2.48003063 266.15427332 4.30353699 267.19970703 7.20751953 C267.47102951 7.9483075 267.74235199 8.68909546 268.02189636 9.45233154 C268.44804985 10.65541962 268.44804985 10.65541962 268.8828125 11.8828125 C269.18758011 12.7216095 269.49234772 13.56040649 269.80635071 14.42462158 C270.79611478 17.15508109 271.77363478 19.88972338 272.75 22.625 C273.42402552 24.49970417 274.0985877 26.37421547 274.77368164 28.24853516 C275.782436 31.05012879 276.79032915 33.85200638 277.79450989 36.65524292 C279.68320281 41.92110139 281.61715375 47.16455133 283.61328125 52.390625 C284.03528809 53.50937012 284.45729492 54.62811523 284.89208984 55.78076172 C285.64327992 57.76669894 286.40688459 59.74800971 287.18603516 61.72314453 C290.80585453 71.43092247 290.73948395 80.93070778 286.625 90.5 C283.2978896 96.70634055 278.73095861 101.75399042 273.98046875 106.90234375 C269.18220943 112.19395643 264.73205168 117.7986517 260.33984375 123.4296875 C253.1887912 132.48196328 246.24393347 139.28710471 234.39453125 140.78125 C222.3919754 141.26376481 210.08450566 137.51773434 198.63671875 134.26953125 C195.65864305 133.37622053 195.65864305 133.37622053 192.625 133.5 C192.35872803 134.01796143 192.09245605 134.53592285 191.81811523 135.06958008 C174.56570814 168.52373122 174.56570814 168.52373122 160.71630859 173.55712891 C155.45144831 175.00951004 150.0878125 174.82491291 144.6640625 174.8359375 C143.51892181 174.8425943 142.37378113 174.8492511 141.19393921 174.85610962 C138.77839762 174.86620702 136.3628283 174.87092754 133.94726562 174.87060547 C130.26905995 174.87497735 126.59205612 174.91132666 122.9140625 174.94921875 C120.55989991 174.95508788 118.20573166 174.95905663 115.8515625 174.9609375 C114.76066315 174.97530853 113.66976379 174.98967957 112.54580688 175.00448608 C103.17643936 174.94893522 96.04652993 172.27230106 88.625 166.5 C82.75879456 160.45654231 79.12606994 153.4817444 75.25 146.0625 C74.60367913 144.84136541 73.9565496 143.62065846 73.30859375 142.40039062 C71.73941571 139.43768881 70.1785174 136.47093469 68.625 133.5 C64.16067881 133.42370337 60.80382708 133.88085104 56.5625 135.3125 C29.45146633 143.94991549 29.45146633 143.94991549 16.4375 138.25 C9.47721792 134.31632994 4.607541 128.60255791 -0.375 122.5 C-1.14585937 121.56414062 -1.91671875 120.62828125 -2.7109375 119.6640625 C-4.18780037 117.85555323 -5.65666306 116.04047941 -7.1171875 114.21875 C-9.49822034 111.35162395 -12.00876663 108.65131815 -14.5625 105.9375 C-22.94452481 96.78755676 -28.79649225 86.91619776 -28.63378906 74.27880859 C-28.16894057 69.28738828 -26.49806206 64.75725569 -24.8125 60.0625 C-24.44825928 59.01046387 -24.08401855 57.95842773 -23.70874023 56.87451172 C-21.26183907 49.85250658 -18.71805953 42.86378737 -16.10253906 35.90283203 C-14.32795131 31.16421945 -12.64268707 26.40206316 -11.0078125 21.61328125 C-10.60232178 20.42589355 -10.19683105 19.23850586 -9.77905273 18.01513672 C-8.97922765 15.66301214 -8.18432069 13.30920841 -7.39477539 10.95361328 C-7.0311792 9.88481934 -6.66758301 8.81602539 -6.29296875 7.71484375 C-5.97094482 6.75698975 -5.6489209 5.79913574 -5.31713867 4.81225586 C-4.08779036 1.79511207 -3.23107452 0.68022621 0 0 Z " fill="#3B8E92" transform="translate(381.375,517.5)"/>
<path d="M0 0 C5.13605854 4.40102333 5.13605854 4.40102333 6.55859375 7.24609375 C8.92398427 7.12552779 8.92398427 7.12552779 11.55859375 6.24609375 C12.11546875 5.52421875 12.67234375 4.80234375 13.24609375 4.05859375 C17.40217563 -0.99610043 24.28668406 -5.32031808 30.90625 -5.9921875 C41.10903935 -6.27111268 48.71116751 -3.22457563 56.578125 3.25 C62.12510264 8.84074078 64.54416734 15.53504347 64.93359375 23.30859375 C64.53826673 43.27260834 43.88538423 61.25904643 30.61328125 74.08984375 C26.98847924 77.54331296 23.30001197 80.91954617 19.55859375 84.24609375 C18.78563965 84.93614502 18.78563965 84.93614502 17.99707031 85.64013672 C12.20602312 90.74840514 12.20602312 90.74840514 9.55859375 92.24609375 C6.37024276 91.81815695 4.67832024 90.75413384 2.38671875 88.55078125 C1.5203479 87.7299707 1.5203479 87.7299707 0.63647461 86.89257812 C0.03327393 86.30798828 -0.56992676 85.72339844 -1.19140625 85.12109375 C-2.45487426 83.91967322 -3.7191898 82.71914332 -4.984375 81.51953125 C-5.58685059 80.94557617 -6.18932617 80.37162109 -6.81005859 79.78027344 C-8.65914486 78.04132431 -10.56397586 76.3827802 -12.50390625 74.74609375 C-21.36463741 67.01651976 -29.33268386 58.75178459 -36.50390625 49.43359375 C-37.03975342 48.74088379 -37.57560059 48.04817383 -38.12768555 47.33447266 C-45.21648968 37.89700228 -48.90313503 29.23794638 -47.44140625 17.24609375 C-44.26623101 7.62683592 -38.87108771 1.44002402 -30.25390625 -3.62890625 C-20.04803121 -7.71125626 -8.98738853 -6.45653992 0 0 Z " fill="#FCFDFD" transform="translate(503.44140625,471.75390625)"/>
<path d="M0 0 C2.58053586 1.85617492 4.71701594 3.76774892 7 6 C10.82774487 4.1987083 14.13955866 1.87310342 17.5859375 -0.5625 C23.0311719 -3.80496968 28.12573171 -4.38875296 34.3125 -4.375 C35.0650708 -4.37338867 35.8176416 -4.37177734 36.59301758 -4.37011719 C42.47483538 -4.24041328 46.98495912 -3.19338489 52 0 C53.0725 0.639375 54.145 1.27875 55.25 1.9375 C62.4505168 7.3378876 68.6278382 14.17701043 71 23 C72.79178443 40.21904836 66.81970541 52.29981954 56.4375 65.75 C49.0279199 74.77726621 41.04789708 83.79050521 32.05078125 91.265625 C29.84955545 93.12723311 27.74026673 95.0760002 25.6315918 97.04125977 C21.51066844 100.87236557 17.36032859 104.68083484 13.0625 108.3125 C12.39347656 108.88613281 11.72445312 109.45976563 11.03515625 110.05078125 C9 111 9 111 6.546875 110.4296875 C3.70353448 108.83357917 1.56475115 107.04381328 -0.8125 104.8125 C-1.69164062 103.9978125 -2.57078125 103.183125 -3.4765625 102.34375 C-4.30929687 101.5703125 -5.14203125 100.796875 -6 100 C-7.22429532 98.9318905 -8.45315018 97.86897408 -9.6875 96.8125 C-53.60683976 58.41648492 -53.60683976 58.41648492 -55.4296875 35.7265625 C-55.79010725 27.87799345 -55.46825098 20.70237648 -51 14 C-50.50242187 13.23300781 -50.00484375 12.46601563 -49.4921875 11.67578125 C-45.49201738 6.04763492 -41.03790448 2.30495824 -35 -1 C-34.40960938 -1.3403125 -33.81921875 -1.680625 -33.2109375 -2.03125 C-23.39895041 -6.69950818 -9.24618382 -5.06850608 0 0 Z M-42.25 14.3125 C-47.29246669 22.05628814 -49.17187039 28.69827879 -48 38 C-46.03448285 46.18146515 -41.12132368 52.49031029 -36 59 C-35.35417969 59.85078125 -34.70835937 60.7015625 -34.04296875 61.578125 C-25.46301221 72.53684578 -15.32039608 82.34998854 -4.79663086 91.42871094 C-1.8163829 94.03516234 0.99680696 96.82319659 3.82421875 99.59375 C5.90786084 101.25708242 5.90786084 101.25708242 8.40429688 100.78369141 C11.28530404 99.91386137 12.5686158 98.95303563 14.70703125 96.8671875 C15.37669922 96.22523438 16.04636719 95.58328125 16.73632812 94.921875 C17.42146484 94.24640625 18.10660156 93.5709375 18.8125 92.875 C20.17187633 91.55855134 21.53255226 90.24344331 22.89453125 88.9296875 C23.90495483 87.95128906 23.90495483 87.95128906 24.93579102 86.953125 C27.64235075 84.39221691 30.44475406 81.95308002 33.26098633 79.51416016 C40.31346856 73.37356001 46.26643338 66.36582522 52 59 C52.64324219 58.17371094 53.28648437 57.34742188 53.94921875 56.49609375 C59.58148038 48.88459918 65.02347609 39.9442304 64.3515625 30.1484375 C62.88328492 21.17563008 58.93693956 13.8222152 51.6875 8.1875 C44.48303376 3.52114987 36.51517547 1.71672708 28 3 C20.80907335 5.51786048 14.26300115 9.60549827 10 16 C6 16 6 16 4.578125 14.609375 C4.13984375 13.99578125 3.7015625 13.3821875 3.25 12.75 C0.0352841 8.73160512 -3.27957273 6.89770712 -8 5 C-9.4540625 4.38125 -9.4540625 4.38125 -10.9375 3.75 C-23.35275701 0.7095289 -33.60731627 5.42974172 -42.25 14.3125 Z " fill="#368B92" transform="translate(504,463)"/>
<path d="M0 0 C7.18867752 3.81778789 12.48868019 9.4881095 15.19921875 17.16796875 C17.58274396 25.5184142 15.88778313 32.48058691 12.19921875 40.16796875 C8.31098549 46.46714301 2.27396794 50.6095812 -4.78515625 52.77734375 C-13.21711664 54.4114446 -19.68872184 52.94420473 -26.80078125 48.16796875 C-33.80617551 42.7206708 -37.87253321 36.46265078 -39.17578125 27.625 C-39.58097052 19.45790371 -36.67907537 13.23418403 -31.67578125 6.91796875 C-23.08539472 -2.22074032 -11.673163 -4.46388459 0 0 Z " fill="#FAFCFC" transform="translate(691.80078125,360.83203125)"/>
<path d="M0 0 C6.81372338 5.04956986 11.18473258 11.95805809 12.53515625 20.36328125 C13.04541159 29.24636286 10.19537514 36.78163233 4.37109375 43.5234375 C-2.85244351 50.14228952 -9.62337813 51.17716024 -19.25390625 50.94921875 C-26.5153052 50.14411695 -30.89255595 46.89372015 -35.79296875 41.66796875 C-41.87741832 34.05887752 -42.90850892 27.10680485 -41.91796875 17.54296875 C-39.89117015 8.4669901 -34.51026811 2.54202139 -26.85546875 -2.45703125 C-18.22933517 -5.46430718 -7.80187532 -4.61902071 0 0 Z " fill="#F9FCFB" transform="translate(685.91796875,627.45703125)"/>
<path d="M0 0 C6.9284445 4.08098062 12.32658216 10.2012654 14.5 18 C15.39333271 27.81407764 14.57169064 35.30226935 8.5625 43.1875 C2.67417053 49.45931311 -5.140312 52.21004743 -13.625 52.625 C-21.74694916 52.22155677 -27.88876848 49.07287004 -33.4375 43.1875 C-38.87675389 36.28580521 -40.15590432 30.01928941 -39.90234375 21.24609375 C-38.82574673 12.56015079 -34.2513144 7.15253773 -27.78125 1.59375 C-20.0254189 -3.82470734 -8.50194345 -3.87876683 0 0 Z " fill="#FAFCFC" transform="translate(365.5,626)"/>
<path d="M0 0 C6.19197381 4.16037042 10.68815134 9.60409112 12.73828125 16.83984375 C13.81115551 26.29454817 11.90439012 33.48181336 7.11328125 41.58984375 C-0.16000687 48.48032723 -7.75583775 51.23872329 -17.63671875 51.12109375 C-24.53760646 50.38171292 -30.47378224 46.736597 -35.26171875 41.83984375 C-40.65399862 33.68566444 -42.28810645 26.62071475 -41.26171875 16.83984375 C-38.54596451 7.59303177 -31.98107085 1.63649685 -23.88671875 -3.16015625 C-14.89641216 -5.64024083 -8.1551163 -4.49536242 0 0 Z " fill="#FAFCFC" transform="translate(526.26171875,697.16015625)"/>
<path d="M0 0 C7.01278568 4.69165239 10.32413688 9.55063473 13.21875 17.484375 C14.85933087 26.57541334 12.0073075 34.26170222 7.03125 41.796875 C-0.23046329 48.73584547 -7.76058673 50.94032096 -17.61328125 50.8203125 C-24.6493534 50.07419388 -29.92351955 46.75802947 -34.71875 41.671875 C-40.15850962 34.7695385 -41.43118996 28.50721359 -41.1875 19.734375 C-40.17598772 11.64227679 -36.12433365 5.86499646 -29.80078125 0.890625 C-20.50608981 -5.58150057 -9.75171118 -5.41019593 0 0 Z " fill="#F9FCFC" transform="translate(525.78125,279.515625)"/>
<path d="M0 0 C1.53933712 0.88524179 3.0632483 1.79844541 4.5625 2.75 C5.490625 3.3275 6.41875 3.905 7.375 4.5 C12.73710098 10.01530387 15.63832561 16.72668039 15.875 24.375 C15.74886338 32.95229027 12.36921526 39.92370579 6.44921875 46.0546875 C-0.18039827 52.01173468 -6.98055117 52.51574963 -15.65234375 52.125 C-22.60164486 51.43652435 -26.3657509 49.11033399 -31.1875 44.1875 C-36.48971169 37.64770114 -39.3032247 29.66671215 -38.875 21.22265625 C-37.26373863 12.11615228 -31.73099092 6.03936646 -24.4375 0.75 C-16.85718618 -3.82679325 -7.8995735 -3.82009226 0 0 Z " fill="#F9FCFC" transform="translate(354.4375,361.25)"/>
<path d="M0 0 C7.18867752 3.81778789 12.48868019 9.4881095 15.19921875 17.16796875 C17.58274396 25.5184142 15.88778313 32.48058691 12.19921875 40.16796875 C8.31098549 46.46714301 2.27396794 50.6095812 -4.78515625 52.77734375 C-13.21711664 54.4114446 -19.68872184 52.94420473 -26.80078125 48.16796875 C-33.80617551 42.7206708 -37.87253321 36.46265078 -39.17578125 27.625 C-39.58097052 19.45790371 -36.67907537 13.23418403 -31.67578125 6.91796875 C-23.08539472 -2.22074032 -11.673163 -4.46388459 0 0 Z M-26.80078125 13.16796875 C-27.56390625 14.05484375 -28.32703125 14.94171875 -29.11328125 15.85546875 C-32.00703002 21.53579041 -31.58587297 27.39020075 -29.73828125 33.41796875 C-27.36344199 39.00449538 -22.3378282 42.89767677 -16.80078125 45.16796875 C-10.15203356 46.14876228 -4.93420406 45.57285648 0.546875 41.59375 C5.05610978 37.70280273 7.67553007 33.49137766 8.60546875 27.58984375 C8.82762047 21.25851984 7.91608351 17.12744893 4.03125 12.05078125 C-0.12799655 7.77624642 -4.42227131 5.98494016 -10.36328125 5.79296875 C-17.47316262 6.17232559 -22.11981851 7.60141847 -26.80078125 13.16796875 Z " fill="#398C91" transform="translate(691.80078125,360.83203125)"/>
<path d="M0 0 C6.19197381 4.16037042 10.68815134 9.60409112 12.73828125 16.83984375 C13.81115551 26.29454817 11.90439012 33.48181336 7.11328125 41.58984375 C-0.16000687 48.48032723 -7.75583775 51.23872329 -17.63671875 51.12109375 C-24.53760646 50.38171292 -30.47378224 46.736597 -35.26171875 41.83984375 C-40.65399862 33.68566444 -42.28810645 26.62071475 -41.26171875 16.83984375 C-38.54596451 7.59303177 -31.98107085 1.63649685 -23.88671875 -3.16015625 C-14.89641216 -5.64024083 -8.1551163 -4.49536242 0 0 Z M-30.26171875 10.83984375 C-34.42865344 16.39575667 -34.1138773 23.20112284 -33.26171875 29.83984375 C-32.10457075 33.05928663 -30.57566273 35.33700638 -28.26171875 37.83984375 C-27.77703125 38.36578125 -27.29234375 38.89171875 -26.79296875 39.43359375 C-22.38958739 43.31893025 -17.918443 43.51922995 -12.203125 43.26171875 C-6.58004495 42.45522121 -2.82719665 40.44651844 1.11328125 36.40234375 C5.12854196 30.07058648 5.52925687 24.20275262 4.73828125 16.83984375 C2.87401434 11.1765032 -1.08909151 7.67247936 -6.1484375 4.75 C-14.52451022 1.14256018 -24.19422647 4.77235147 -30.26171875 10.83984375 Z " fill="#398D93" transform="translate(526.26171875,697.16015625)"/>
<path d="M0 0 C6.9284445 4.08098062 12.32658216 10.2012654 14.5 18 C15.39333271 27.81407764 14.57169064 35.30226935 8.5625 43.1875 C2.67417053 49.45931311 -5.140312 52.21004743 -13.625 52.625 C-21.74694916 52.22155677 -27.88876848 49.07287004 -33.4375 43.1875 C-38.87675389 36.28580521 -40.15590432 30.01928941 -39.90234375 21.24609375 C-38.82574673 12.56015079 -34.2513144 7.15253773 -27.78125 1.59375 C-20.0254189 -3.82470734 -8.50194345 -3.87876683 0 0 Z M-30.0625 14.0625 C-32.5901893 19.32851938 -32.30983325 25.34512988 -31.5 31 C-29.23838451 36.87649272 -25.14586901 41.1770655 -19.5 44 C-9.4449514 44.83586349 -9.4449514 44.83586349 -0.5 41 C4.39536141 36.19946399 7.24190945 32.14870473 7.8125 25.1875 C7.63314408 19.89650027 6.52484342 15.21069861 2.8828125 11.234375 C-3.00672213 6.02731863 -7.47121422 4.41362114 -15.38671875 4.55859375 C-21.93395429 5.48687181 -25.93502916 9.12966899 -30.0625 14.0625 Z " fill="#3C8E94" transform="translate(365.5,626)"/>
<path d="M0 0 C6.81372338 5.04956986 11.18473258 11.95805809 12.53515625 20.36328125 C13.04541159 29.24636286 10.19537514 36.78163233 4.37109375 43.5234375 C-2.85244351 50.14228952 -9.62337813 51.17716024 -19.25390625 50.94921875 C-26.5153052 50.14411695 -30.89255595 46.89372015 -35.79296875 41.66796875 C-41.87741832 34.05887752 -42.90850892 27.10680485 -41.91796875 17.54296875 C-39.89117015 8.4669901 -34.51026811 2.54202139 -26.85546875 -2.45703125 C-18.22933517 -5.46430718 -7.80187532 -4.61902071 0 0 Z M-31.2578125 11.171875 C-34.95295274 16.41871114 -35.64596273 21.30446476 -34.91796875 27.54296875 C-32.77800101 34.06754432 -28.88869394 38.58499079 -23.16796875 42.35546875 C-17.42566585 44.45361789 -12.27982999 44.44860052 -6.66796875 41.91796875 C-1.63548706 39.09095712 1.91626233 34.9193951 4.08203125 29.54296875 C4.72520592 23.75439676 4.93209118 18.37386707 2.45703125 13.04296875 C-2.92307819 7.37969566 -7.59502271 3.29394117 -15.66796875 3.04296875 C-22.820966 3.16509309 -26.78945841 5.73950282 -31.2578125 11.171875 Z " fill="#398E93" transform="translate(685.91796875,627.45703125)"/>
<path d="M0 0 C7.01278568 4.69165239 10.32413688 9.55063473 13.21875 17.484375 C14.85933087 26.57541334 12.0073075 34.26170222 7.03125 41.796875 C-0.23046329 48.73584547 -7.76058673 50.94032096 -17.61328125 50.8203125 C-24.6493534 50.07419388 -29.92351955 46.75802947 -34.71875 41.671875 C-40.15850962 34.7695385 -41.43118996 28.50721359 -41.1875 19.734375 C-40.17598772 11.64227679 -36.12433365 5.86499646 -29.80078125 0.890625 C-20.50608981 -5.58150057 -9.75171118 -5.41019593 0 0 Z M-29.53125 11.359375 C-33.35486136 16.66994633 -34.25708115 20.80376473 -33.3125 27.1796875 C-31.80091537 33.73729729 -29.08743723 37.88008718 -23.46484375 41.57421875 C-18.79386232 44.09936649 -13.9449508 44.15856739 -8.78125 43.484375 C-2.65295143 41.0245735 2.26276634 36.39634232 5.21875 30.484375 C6.25917084 20.61138691 6.25917084 20.61138691 2.46875 11.796875 C-1.28318951 7.52383278 -4.90450186 4.7186629 -10.70703125 4.24609375 C-19.43278746 4.05487187 -23.39317283 4.94229432 -29.53125 11.359375 Z " fill="#378B90" transform="translate(525.78125,279.515625)"/>
<path d="M0 0 C1.53933712 0.88524179 3.0632483 1.79844541 4.5625 2.75 C5.490625 3.3275 6.41875 3.905 7.375 4.5 C12.73710098 10.01530387 15.63832561 16.72668039 15.875 24.375 C15.74886338 32.95229027 12.36921526 39.92370579 6.44921875 46.0546875 C-0.18039827 52.01173468 -6.98055117 52.51574963 -15.65234375 52.125 C-22.60164486 51.43652435 -26.3657509 49.11033399 -31.1875 44.1875 C-36.48971169 37.64770114 -39.3032247 29.66671215 -38.875 21.22265625 C-37.26373863 12.11615228 -31.73099092 6.03936646 -24.4375 0.75 C-16.85718618 -3.82679325 -7.8995735 -3.82009226 0 0 Z M-26.375 11.6875 C-30.72301734 18.14364696 -31.10403946 22.9910641 -30.4375 30.75 C-28.47422386 36.43316777 -24.80584175 39.7299438 -20.3125 43.5625 C-15.1209704 45.70682745 -9.49575386 45.66283463 -4.12109375 44.05859375 C1.94227556 41.30879249 5.94081055 36.89422373 8.5625 30.75 C9.41926524 24.83053109 8.67781707 18.90601258 5.5625 13.75 C2.41833595 10.39771162 -1.95970566 6.09438658 -6.6015625 5.44921875 C-13.88733107 5.41452461 -21.31959352 5.84865333 -26.375 11.6875 Z " fill="#388C90" transform="translate(354.4375,361.25)"/>
<path d="M0 0 C6.0479966 3.23846626 11.07958392 8.07011972 14.203125 14.1796875 C14.203125 15.1696875 14.203125 16.1596875 14.203125 17.1796875 C13.275 16.65375 13.275 16.65375 12.328125 16.1171875 C11.626875 15.8078125 10.925625 15.4984375 10.203125 15.1796875 C9.213125 15.6746875 9.213125 15.6746875 8.203125 16.1796875 C7.708125 17.6646875 7.708125 17.6646875 7.203125 19.1796875 C6.85121094 18.56480469 6.49929688 17.94992187 6.13671875 17.31640625 C2.85833254 11.94943979 0.56803937 8.79788607 -5.796875 7.1796875 C-11.21942552 6.68847955 -16.45034531 7.26963989 -21.796875 8.1796875 C-23.116875 6.1996875 -24.436875 4.2196875 -25.796875 2.1796875 C-17.49575991 -2.83230652 -9.15322072 -3.45715171 0 0 Z " fill="#419295" transform="translate(691.796875,360.8203125)"/>
<path d="M0 0 C1.485 0.99 1.485 0.99 3 2 C3.99 1.67 4.98 1.34 6 1 C8.76612638 3.38892733 9.87543778 5.53461084 11 9 C11.23046875 12.26171875 11.23046875 12.26171875 11.1875 15.6875 C11.17783203 17.39486328 11.17783203 17.39486328 11.16796875 19.13671875 C11 22 11 22 10 24 C9.34 24 8.68 24 8 24 C7.67 23.01 7.34 22.02 7 21 C6.34 21 5.68 21 5 21 C4.80664062 20.10796875 4.61328125 19.2159375 4.4140625 18.296875 C4.15367187 17.12640625 3.89328125 15.9559375 3.625 14.75 C3.36976563 13.58984375 3.11453125 12.4296875 2.8515625 11.234375 C2.14880936 8.10464413 2.14880936 8.10464413 0.8984375 5.828125 C0 4 0 4 0 0 Z " fill="#398889" transform="translate(369,635)"/>
<path d="M0 0 C1 3.1875 1 3.1875 1 6 C-2.83141968 6 -6.44217382 5.22616805 -10.1875 4.5 C-10.93708984 4.35691406 -11.68667969 4.21382812 -12.45898438 4.06640625 C-14.30645906 3.71338561 -16.15329321 3.35701581 -18 3 C-18.33 1.35 -18.66 -0.3 -19 -2 C-11.88877306 -3.08498499 -6.38413647 -3.66496723 0 0 Z " fill="#36878B" transform="translate(526,697)"/>
<path d="M0 0 C0.66 0 1.32 0 2 0 C2 0.66 2 1.32 2 2 C3.32 1.67 4.64 1.34 6 1 C5.60369144 6.74647406 5.00868456 10.55794413 1 15 C-2.25 15.875 -2.25 15.875 -5 16 C-4.70887831 9.58076669 -3.54784971 5.37899794 0 0 Z " fill="#328489" transform="translate(664,460)"/>
<path d="M0 0 C0.33 0.66 0.66 1.32 1 2 C-2.63 2 -6.26 2 -10 2 C-9.67 3.32 -9.34 4.64 -9 6 C-6.03 6.495 -6.03 6.495 -3 7 C-3 7.33 -3 7.66 -3 8 C-4.08667969 8.14695312 -4.08667969 8.14695312 -5.1953125 8.296875 C-11.14392808 9.21692754 -15.3009104 10.18992735 -20 14 C-20.8125 12.3125 -20.8125 12.3125 -21 10 C-18.5625 7.25 -18.5625 7.25 -16 5 C-16.66 4.34 -17.32 3.68 -18 3 C-11.92122066 -0.24201565 -6.81598387 -0.33278764 0 0 Z " fill="#459799" transform="translate(517,693)"/>
<path d="M0 0 C0.99 0.33 1.98 0.66 3 1 C2.01 2.32 1.02 3.64 0 5 C0.86625 4.2265625 0.86625 4.2265625 1.75 3.4375 C4 2 4 2 6.140625 2.41015625 C7.06101562 2.70212891 7.06101562 2.70212891 8 3 C6.58474822 4.58459815 5.1677358 6.16762391 3.75 7.75 C2.56664062 9.07257812 2.56664062 9.07257812 1.359375 10.421875 C-0.70592672 12.67866165 -2.81735064 14.85739926 -5 17 C-5 15.68 -5 14.36 -5 13 C-6.65 13 -8.3 13 -10 13 C-6.73279209 8.61105071 -3.45101522 4.24740335 0 0 Z " fill="#338F94" transform="translate(649,620)"/>
<path d="M0 0 C3.85602368 1.51486645 5.7785857 3.51978427 8 7 C8.8864503 9.96811448 9.49427265 12.94567295 10 16 C5.35026146 15.55212676 3.62972532 13.97814403 0.6875 10.4375 C-0.00988281 9.61121094 -0.70726562 8.78492188 -1.42578125 7.93359375 C-1.94527344 7.29550781 -2.46476562 6.65742187 -3 6 C-1.125 1.125 -1.125 1.125 0 0 Z " fill="#36878C" transform="translate(381,630)"/>
<path d="M0 0 C0 0.66 0 1.32 0 2 C0.66 2.66 1.32 3.32 2 4 C0.61133677 4.9893091 -0.78629851 5.96603078 -2.1875 6.9375 C-2.96480469 7.48277344 -3.74210938 8.02804687 -4.54296875 8.58984375 C-7.07950299 10.0456289 -9.1218182 10.59613435 -12 11 C-12.99 8.69 -13.98 6.38 -15 4 C-5.77448747 -0.59225513 -5.77448747 -0.59225513 0 0 Z " fill="#38949A" transform="translate(632,646)"/>
<path d="M0 0 C0.33 0 0.66 0 1 0 C1 5.28 1 10.56 1 16 C2.32 16.33 3.64 16.66 5 17 C4.54917531 18.46067199 4.08906463 19.91848032 3.625 21.375 C3.36976563 22.18710937 3.11453125 22.99921875 2.8515625 23.8359375 C2 26 2 26 0 28 C-2.125 27.625 -2.125 27.625 -4 27 C-4 26.34 -4 25.68 -4 25 C-4.66 25 -5.32 25 -6 25 C-5.54554036 23.58208592 -5.08625056 22.16571954 -4.625 20.75 C-4.24214844 19.56664062 -4.24214844 19.56664062 -3.8515625 18.359375 C-3 16 -3 16 -1.9375 14.09375 C-0.68877792 11.30493736 -0.57324322 8.78972938 -0.375 5.75 C-0.30023437 4.67234375 -0.22546875 3.5946875 -0.1484375 2.484375 C-0.09945312 1.66453125 -0.05046875 0.8446875 0 0 Z " fill="#3F9093" transform="translate(670,435)"/>
<path d="M0 0 C0.99 0 1.98 0 3 0 C4.38442 1.96498322 5.71203834 3.97048465 7 6 C8.29682374 7.36886951 9.61823134 8.7169291 11 10 C10.38125 10.45375 9.7625 10.9075 9.125 11.375 C6.94080167 12.97108919 6.94080167 12.97108919 5 15 C2.4369734 12.48171452 0.03917531 9.96558917 -2 7 C-2 2 -2 2 0 0 Z " fill="#368E92" transform="translate(467,671)"/>
<path d="M0 0 C2 2 2 2 3 5 C3.99 4.01 4.98 3.02 6 2 C6.70180531 3.4096347 7.38593958 4.82807641 8.0625 6.25 C8.44535156 7.03890625 8.82820312 7.8278125 9.22265625 8.640625 C10.09257635 11.28098551 10.07357416 12.45939518 9 15 C7 16 7 16 4.5 15.375 C2 14 2 14 0.6875 11.9375 C-0.25036162 7.93027309 -0.16060187 4.09534757 0 0 Z " fill="#368588" transform="translate(654,385)"/>
<path d="M0 0 C0.66 0.33 1.32 0.66 2 1 C1.67 1.66 1.34 2.32 1 3 C1.66 3.33 2.32 3.66 3 4 C-0.61328125 8.6875 -0.61328125 8.6875 -2 10 C-2.99 10 -3.98 10 -5 10 C-5 10.66 -5 11.32 -5 12 C-6.98 12.99 -6.98 12.99 -9 14 C-9.66 13.34 -10.32 12.68 -11 12 C-10.73334487 8.13350055 -8.59344884 5.73363526 -6 3 C-2.875 1.125 -2.875 1.125 0 0 Z " fill="#2F848B" transform="translate(380,390)"/>
<path d="M0 0 C3.85103301 0.53675903 5.31797587 2.11600923 7.75 5.0625 C8.36359375 5.79597656 8.9771875 6.52945312 9.609375 7.28515625 C10.06828125 7.85105469 10.5271875 8.41695313 11 9 C10.360625 9.28875 9.72125 9.5775 9.0625 9.875 C6.84793921 10.82823451 6.84793921 10.82823451 6 13 C2.64193002 11.6104538 0.67947152 10.27054981 -1 7 C-0.6875 3.25 -0.6875 3.25 0 0 Z " fill="#36878C" transform="translate(647,394)"/>
<path d="M0 0 C-0.40316925 6.31631828 -2.71232131 10.64993984 -6 16 C-6.99 15.01 -7.98 14.02 -9 13 C-9.99 13.495 -9.99 13.495 -11 14 C-9.65677666 8.99344026 -7.53050549 4.80288871 -4 1 C-1 0 -1 0 0 0 Z " fill="#2F8288" transform="translate(465,356)"/>
<path d="M0 0 C0.66 0 1.32 0 2 0 C1.88628503 2.29225435 1.75869036 4.58382388 1.625 6.875 C1.55539062 8.15117188 1.48578125 9.42734375 1.4140625 10.7421875 C1 14 1 14 -1 16 C-1 15.34 -1 14.68 -1 14 C-1.66 14 -2.32 14 -3 14 C-3.33 15.32 -3.66 16.64 -4 18 C-4.33 18 -4.66 18 -5 18 C-5.10807131 16.06372231 -5.1856225 14.12572244 -5.25 12.1875 C-5.29640625 11.10855469 -5.3428125 10.02960937 -5.390625 8.91796875 C-5 6 -5 6 -3.046875 4.30078125 C-2.03367187 3.65689453 -2.03367187 3.65689453 -1 3 C-0.67 2.01 -0.34 1.02 0 0 Z " fill="#348386" transform="translate(650,640)"/>
<path d="M0 0 C2.20914 3.31371 2.22481553 4.3446021 2.125 8.1875 C2.10695313 9.08855469 2.08890625 9.98960937 2.0703125 10.91796875 C2.03550781 11.94857422 2.03550781 11.94857422 2 13 C1.34 13 0.68 13 0 13 C-0.33 13.66 -0.66 14.32 -1 15 C-1.99 14.67 -2.98 14.34 -4 14 C-4.10815225 12.23050905 -4.18566083 10.45912513 -4.25 8.6875 C-4.29640625 7.70136719 -4.3428125 6.71523438 -4.390625 5.69921875 C-4 3 -4 3 -1.984375 1.14453125 C-1.00210938 0.57798828 -1.00210938 0.57798828 0 0 Z " fill="#2E8085" transform="translate(668,586)"/>
<path d="M0 0 C0 3.3 0 6.6 0 10 C-0.66 9.67 -1.32 9.34 -2 9 C-2.99 9.99 -3.98 10.98 -5 12 C-5.33 10.68 -5.66 9.36 -6 8 C-6.66 9.32 -7.32 10.64 -8 12 C-8.28528873 8.62091345 -8.44415526 5.36908016 -8 2 C-4.95721218 -0.8783128 -4.00764254 -1.33588085 0 0 Z " fill="#429094" transform="translate(661,379)"/>
<path d="M0 0 C0.99 0.33 1.98 0.66 3 1 C3.66 0.67 4.32 0.34 5 0 C4.38888889 5.5 4.38888889 5.5 2.6875 7.6875 C1.45413716 8.64678221 0.20115013 9.58098172 -1.0625 10.5 C-3.2486367 12.02807664 -3.2486367 12.02807664 -5 15 C-5.66 14.67 -6.32 14.34 -7 14 C-6.34 11.69 -5.68 9.38 -5 7 C-4.34 7 -3.68 7 -3 7 C-2.690625 6.030625 -2.38125 5.06125 -2.0625 4.0625 C-1 1 -1 1 0 0 Z " fill="#31838C" transform="translate(561,662)"/>
<path d="M0 0 C1.65 0.33 3.3 0.66 5 1 C3.14285714 9.71428571 3.14285714 9.71428571 0 12 C-0.66 11.34 -1.32 10.68 -2 10 C-2.99 10.495 -2.99 10.495 -4 11 C-4.36630156 7.06225823 -4.30233203 5.43460229 -2 2.125 C-1.34 1.42375 -0.68 0.7225 0 0 Z " fill="#2E8187" transform="translate(354,418)"/>
<path d="M0 0 C6.15222436 0.43173504 9.81917949 1.65405342 15 5 C14.34 6.98 13.68 8.96 13 11 C8.30840284 7.61227103 3.9700218 4.21814817 0 0 Z " fill="#E0F1EE" transform="translate(420,409)"/>
<path d="M0 0 C2.4138176 0.22117559 4.83114597 0.40572242 7.25 0.5625 C8.51328125 0.64628906 9.7765625 0.73007812 11.078125 0.81640625 C12.04234375 0.87699219 13.0065625 0.93757813 14 1 C14 1.33 14 1.66 14 2 C-1.84 2 -17.68 2 -34 2 C-34 1.67 -34 1.34 -34 1 C-33.11646851 0.96241577 -33.11646851 0.96241577 -32.21508789 0.92407227 C-29.49741329 0.80667639 -26.77996658 0.68461285 -24.0625 0.5625 C-23.13630859 0.52318359 -22.21011719 0.48386719 -21.25585938 0.44335938 C-16.116528 0.20893373 -11.06427491 -0.16435742 -5.97045898 -0.89868164 C-3.77043977 -1.01180368 -2.11406088 -0.58710761 0 0 Z " fill="#DCEDEA" transform="translate(521,330)"/>
<path d="M0 0 C0.66 0.99 1.32 1.98 2 3 C1.52949219 3.53109375 1.05898438 4.0621875 0.57421875 4.609375 C-0.04839844 5.31578125 -0.67101562 6.0221875 -1.3125 6.75 C-1.92738281 7.44609375 -2.54226563 8.1421875 -3.17578125 8.859375 C-5.02916165 10.96978683 -5.02916165 10.96978683 -6.60546875 13.265625 C-7.06566406 13.83796875 -7.52585937 14.4103125 -8 15 C-8.66 15 -9.32 15 -10 15 C-11.63676257 16.9600281 -11.63676257 16.9600281 -13 19 C-13.66 18.67 -14.32 18.34 -15 18 C-14.61666504 17.56131592 -14.23333008 17.12263184 -13.83837891 16.6706543 C-12.09878084 14.67783694 -10.36186674 12.68269819 -8.625 10.6875 C-8.02171875 9.99720703 -7.4184375 9.30691406 -6.796875 8.59570312 C-6.21679688 7.92861328 -5.63671875 7.26152344 -5.0390625 6.57421875 C-4.23782959 5.65515747 -4.23782959 5.65515747 -3.42041016 4.7175293 C-1.8230795 2.84599564 -1.8230795 2.84599564 0 0 Z " fill="#DDE8ED" transform="translate(653,626)"/>
<path d="M0 0 C1.32 0 2.64 0 4 0 C5.8515625 1.86328125 5.8515625 1.86328125 7.625 4.3125 C8.21539063 5.11300781 8.80578125 5.91351563 9.4140625 6.73828125 C13.02035739 11.88124859 13.02035739 11.88124859 12.625 14.1875 C12.41875 14.785625 12.2125 15.38375 12 16 C10.55836993 14.27427512 9.12186835 12.5442653 7.6875 10.8125 C6.48673828 9.36810547 6.48673828 9.36810547 5.26171875 7.89453125 C3.26888012 5.34411083 1.58938754 2.81357599 0 0 Z " fill="#3D9397" transform="translate(651,406)"/>
<path d="M0 0 C-0.66 1.65 -1.32 3.3 -2 5 C-0.68 5.66 0.64 6.32 2 7 C-0.64 7.33 -3.28 7.66 -6 8 C-6 7.34 -6 6.68 -6 6 C-6.66 5.67 -7.32 5.34 -8 5 C-7.67 4.34 -7.34 3.68 -7 3 C-7.66 2.34 -8.32 1.68 -9 1 C-5.8035914 -0.06546953 -3.34252724 -0.07427838 0 0 Z " fill="#479B9B" transform="translate(433,647)"/>
<path d="M0 0 C0.33 0 0.66 0 1 0 C1 1.65 1 3.3 1 5 C2.32 4.67 3.64 4.34 5 4 C5 4.66 5 5.32 5 6 C5.99 6.33 6.98 6.66 8 7 C7.01 8.32 6.02 9.64 5 11 C3.35 10.67 1.7 10.34 0 10 C0 6.7 0 3.4 0 0 Z " fill="#3D9297" transform="translate(535,654)"/>
<path d="M0 0 C1.98 0 3.96 0 6 0 C6 0.66 6 1.32 6 2 C6.8353125 2.3403125 6.8353125 2.3403125 7.6875 2.6875 C10.63246684 4.35896766 12.68156544 6.55276352 15 9 C14.34 10.32 13.68 11.64 13 13 C12.443125 12.0925 11.88625 11.185 11.3125 10.25 C9.07902568 7.11106312 7.09271966 5.24222175 4 3 C3.236875 2.4225 2.47375 1.845 1.6875 1.25 C1.130625 0.8375 0.57375 0.425 0 0 Z " fill="#3D9292" transform="translate(676,631)"/>
<path d="M0 0 C-0.66 1.98 -1.32 3.96 -2 6 C-5 6 -5 6 -7 5 C-6.67 3.35 -6.34 1.7 -6 0 C-3 -1 -3 -1 0 0 Z M-9 5 C-8.34 5.33 -7.68 5.66 -7 6 C-7.99 6.66 -8.98 7.32 -10 8 C-9.67 7.01 -9.34 6.02 -9 5 Z " fill="#2E828A" transform="translate(645,633)"/>
<path d="M0 0 C-3.93963055 4.55519783 -7.26928904 6.15451681 -13 8 C-10.95058999 2.26165198 -5.98766709 -0.70443142 0 0 Z " fill="#409A9E" transform="translate(634,649)"/>
<path d="M0 0 C0.99 0 1.98 0 3 0 C4 6.875 4 6.875 4 8 C2.35 8 0.7 8 -1 8 C-1.625 5.6875 -1.625 5.6875 -2 3 C-1.34 2.01 -0.68 1.02 0 0 Z " fill="#2E848B" transform="translate(467,671)"/>
<path d="M0 0 C0.99 0.33 1.98 0.66 3 1 C-0.2 7.64615385 -0.2 7.64615385 -4.25 9.4375 C-5.61125 9.7159375 -5.61125 9.7159375 -7 10 C-7 8 -7 8 -5 6 C-4.34 5.01 -3.68 4.02 -3 3 C-2.34 3 -1.68 3 -1 3 C-0.67 2.01 -0.34 1.02 0 0 Z " fill="#409498" transform="translate(470,394)"/>
<path d="M0 0 C0.33 1.32 0.66 2.64 1 4 C-0.28716647 5.00578589 -1.57988658 6.00446798 -2.875 7 C-3.95394531 7.8353125 -3.95394531 7.8353125 -5.0546875 8.6875 C-7 10 -7 10 -9 10 C-9 8 -9 8 -7 6 C-5.33333333 4.66666667 -3.66666667 3.33333333 -2 2 C-1.34 1.34 -0.68 0.68 0 0 Z " fill="#3A969E" transform="translate(690,666)"/>
<path d="M0 0 C0.0825 0.61875 0.165 1.2375 0.25 1.875 C0.4975 2.57625 0.745 3.2775 1 4 C1.598125 4.268125 2.19625 4.53625 2.8125 4.8125 C6.23734003 6.67169887 7.22741989 9.58145265 9 13 C7.68 13 6.36 13 5 13 C2.04162929 9.86257001 0.13302308 6.27702158 -0.3125 2 C-0.209375 1.34 -0.10625 0.68 0 0 Z " fill="#348788" transform="translate(357,605)"/>
<path d="M0 0 C0.66 0 1.32 0 2 0 C2 0.66 2 1.32 2 2 C2.99 2 3.98 2 5 2 C4.67 3.65 4.34 5.3 4 7 C2.35 7.33 0.7 7.66 -1 8 C-1.33 7.34 -1.66 6.68 -2 6 C-1.01 6 -0.02 6 1 6 C1 5.34 1 4.68 1 4 C0.34 4 -0.32 4 -1 4 C-0.67 2.68 -0.34 1.36 0 0 Z " fill="#2C8790" transform="translate(369,663)"/>
<path d="M0 0 C0.33 0 0.66 0 1 0 C1.12117188 0.71285156 1.24234375 1.42570313 1.3671875 2.16015625 C2.31063969 7.55234841 3.37362209 12.77235672 5 18 C4.01 18 3.02 18 2 18 C-0.37590142 14.29583874 -0.20500286 11.07015427 -0.125 6.75 C-0.10695313 5.48671875 -0.08890625 4.2234375 -0.0703125 2.921875 C-0.04710937 1.95765625 -0.02390625 0.9934375 0 0 Z " fill="#2F8688" transform="translate(327,646)"/>
<path d="M0 0 C1.21977789 3.9943431 0.4395743 6.08115885 -1 10 C-1.165 10.9075 -1.33 11.815 -1.5 12.75 C-2 15 -2 15 -4 17 C-4.33 16.67 -4.66 16.34 -5 16 C-4.62753202 10.04051225 -2.59893548 5.33083975 0 0 Z " fill="#3E9292" transform="translate(635,469)"/>
<path d="M0 0 C0.66 0.99 1.32 1.98 2 3 C1.3503125 3.5259375 1.3503125 3.5259375 0.6875 4.0625 C-1.65250163 6.74916854 -2.67299998 9.71134777 -4 13 C-4.65288627 14.34013497 -5.31225595 15.67741528 -6 17 C-6.66 17 -7.32 17 -8 17 C-6.3341708 10.83643195 -3.12194714 5.51740344 0 0 Z " fill="#469A96" transform="translate(457,359)"/>
<path d="M0 0 C0.33 0 0.66 0 1 0 C1.34734012 4.1680815 0.64652221 5.82417335 -2 9 C-2.33 9.99 -2.66 10.98 -3 12 C-3.66 12 -4.32 12 -5 12 C-5.66 10.68 -6.32 9.36 -7 8 C-6.21625 7.4225 -5.4325 6.845 -4.625 6.25 C-2.19952756 4.17102363 -1.14305583 2.90959667 0 0 Z " fill="#38979B" transform="translate(529,729)"/>
<path d="M0 0 C0.33 0 0.66 0 1 0 C1.03738281 0.61746094 1.07476562 1.23492187 1.11328125 1.87109375 C1.58723416 7.9767224 2.80600373 13.28733047 5 19 C4.01 19 3.02 19 2 19 C2 17.35 2 15.7 2 14 C1.34 14 0.68 14 0 14 C0 9.38 0 4.76 0 0 Z " fill="#569E9B" transform="translate(353,437)"/>
<path d="M0 0 C0.66 0.99 1.32 1.98 2 3 C-0.64960955 6.63094642 -3.01824456 8.89851796 -7 11 C-7.33 10.01 -7.66 9.02 -8 8 C-7.50628906 7.59007812 -7.01257813 7.18015625 -6.50390625 6.7578125 C-5.86324219 6.21898437 -5.22257813 5.68015625 -4.5625 5.125 C-3.92441406 4.59132813 -3.28632812 4.05765625 -2.62890625 3.5078125 C-0.89194996 2.0777243 -0.89194996 2.0777243 0 0 Z " fill="#3A9596" transform="translate(529,312)"/>
<path d="M0 0 C2.36280927 2.14800843 3.58340234 4.16680467 5 7 C5.66 7.33 6.32 7.66 7 8 C7 8.66 7 9.32 7 10 C4.625 9.75 4.625 9.75 2 9 C-0.17831524 6.09557968 -0.19715281 3.54875053 0 0 Z " fill="#2F8589" transform="translate(480,654)"/>
<path d="M0 0 C0.99 0.66 1.98 1.32 3 2 C2.1875 4.4375 2.1875 4.4375 1 7 C0.01 7.33 -0.98 7.66 -2 8 C-3.32 6.68 -4.64 5.36 -6 4 C-3.525 4.495 -3.525 4.495 -1 5 C-0.67 3.35 -0.34 1.7 0 0 Z " fill="#3F9A9A" transform="translate(397,646)"/>
<path d="M0 0 C6.27 0 12.54 0 19 0 C18.67 0.66 18.34 1.32 18 2 C17.10796875 1.98839844 16.2159375 1.97679687 15.296875 1.96484375 C14.12640625 1.95582031 12.9559375 1.94679688 11.75 1.9375 C10.58984375 1.92589844 9.4296875 1.91429687 8.234375 1.90234375 C5.59022872 1.98217908 3.50173909 2.21356222 1 3 C0.67 2.01 0.34 1.02 0 0 Z " fill="#F3FAF9" transform="translate(501,692)"/>
<path d="M0 0 C-3.33333333 2.66666667 -6.66666667 5.33333333 -10 8 C-9.64505955 5.37344067 -9.27538036 3.42031739 -7.8125 1.1875 C-5.20638339 -0.51995571 -3.0400645 -0.20267097 0 0 Z " fill="#3F9597" transform="translate(393,385)"/>
<path d="M0 0 C0.99 0.33 1.98 0.66 3 1 C1.8758824 2.29243468 0.75067408 3.58392075 -0.375 4.875 C-1.00148438 5.59429688 -1.62796875 6.31359375 -2.2734375 7.0546875 C-3.47426834 8.4076598 -4.7208345 9.7208345 -6 11 C-6.33 10.01 -6.66 9.02 -7 8 C-5.56640625 5.95703125 -5.56640625 5.95703125 -3.5625 3.8125 C-2.90378906 3.09707031 -2.24507812 2.38164063 -1.56640625 1.64453125 C-1.04949219 1.10183594 -0.53257812 0.55914063 0 0 Z " fill="#3D9996" transform="translate(649,620)"/>
<path d="M0 0 C0.33 0 0.66 0 1 0 C1 5.61 1 11.22 1 17 C0.67 17 0.34 17 0 17 C-0.33 13.37 -0.66 9.74 -1 6 C-1.99 6.495 -1.99 6.495 -3 7 C-1.125 1.125 -1.125 1.125 0 0 Z " fill="#DBEBEB" transform="translate(481,378)"/>
<path d="M0 0 C0.33 0 0.66 0 1 0 C1.1799928 5.21979128 0.97094808 9.07262981 -1 14 C-1.99 13.34 -2.98 12.68 -4 12 C-3.525625 10.948125 -3.05125 9.89625 -2.5625 8.8125 C-1.30676259 5.89824149 -0.47765619 3.15253086 0 0 Z " fill="#419A96" transform="translate(373,650)"/>
<path d="M0 0 C0.66 0.66 1.32 1.32 2 2 C1.34 2 0.68 2 0 2 C-0.226875 2.61875 -0.45375 3.2375 -0.6875 3.875 C-2.37929835 6.61410209 -3.99244161 7.05024472 -7 8 C-7 7.01 -7 6.02 -7 5 C-5.46875 3.61328125 -5.46875 3.61328125 -3.5 2.3125 C-2.8503125 1.87550781 -2.200625 1.43851563 -1.53125 0.98828125 C-1.0259375 0.66214844 -0.520625 0.33601562 0 0 Z " fill="#2F868A" transform="translate(344,629)"/>
<path d="M0 0 C0.99 0.33 1.98 0.66 3 1 C-1.625 6.875 -1.625 6.875 -5 8 C-5 5 -5 5 -3 3 C-2 2 -1 1 0 0 Z " fill="#38929A" transform="translate(700,401)"/>
<path d="M0 0 C-0.33 1.32 -0.66 2.64 -1 4 C-1.99 4 -2.98 4 -4 4 C-4.33 4.99 -4.66 5.98 -5 7 C-5.99 7 -6.98 7 -8 7 C-8 6.01 -8 5.02 -8 4 C-2.74285714 0 -2.74285714 0 0 0 Z " fill="#2D8085" transform="translate(581,636)"/>
<path d="M0 0 C1 4 1 4 -0.6875 7.1875 C-3 10 -3 10 -7 11 C-4.69 7.37 -2.38 3.74 0 0 Z " fill="#329292" transform="translate(555,669)"/>
<path d="M0 0 C0.66 0 1.32 0 2 0 C1.75 2.375 1.75 2.375 1 5 C-1.0625 6.3125 -1.0625 6.3125 -3 7 C-2.25 2.25 -2.25 2.25 0 0 Z " fill="#2D848A" transform="translate(636,485)"/>
<path d="M0 0 C4 5 4 5 8 10 C7.01 10 6.02 10 5 10 C3.39453125 8.25 3.39453125 8.25 1.8125 6 C1.28269531 5.2575 0.75289062 4.515 0.20703125 3.75 C-0.19128906 3.1725 -0.58960938 2.595 -1 2 C-0.67 1.34 -0.34 0.68 0 0 Z " fill="#C9E0E3" transform="translate(655,397)"/>
<path d="M0 0 C0.33 0 0.66 0 1 0 C1.3125 2.6875 1.3125 2.6875 1 6 C-1.5 8.875 -1.5 8.875 -4 11 C-4.66 10.67 -5.32 10.34 -6 10 C-5.38125 9.278125 -4.7625 8.55625 -4.125 7.8125 C-2.16333647 5.21618062 -1.04684 3.05328334 0 0 Z " fill="#48A19D" transform="translate(699,391)"/>
<path d="M0 0 C0.66 0 1.32 0 2 0 C0.90931332 3.77545388 0.0916909 6.47043472 -3 9 C-3.75 7.3125 -3.75 7.3125 -4 5 C-2.1875 2.25 -2.1875 2.25 0 0 Z " fill="#3D9394" transform="translate(377,659)"/>
<path d="M0 0 C0.66 0.99 1.32 1.98 2 3 C-0.31 4.98 -2.62 6.96 -5 9 C-5 4.61031544 -2.87194899 3.23094261 0 0 Z " fill="#C2DFE4" transform="translate(653,626)"/>
<path d="M0 0 C0.66 0.99 1.32 1.98 2 3 C-0.31 5.97 -2.62 8.94 -5 12 C-5.66 11.34 -6.32 10.68 -7 10 C-6.21625 9.0925 -5.4325 8.185 -4.625 7.25 C-2.69947504 4.94809764 -1.17794259 2.78422793 0 0 Z " fill="#D6E7EC" transform="translate(367,397)"/>
<path d="M0 0 C0.66 0.33 1.32 0.66 2 1 C1.4409112 4.24271506 0.5867822 5.93057424 -2 8 C-2.66 8 -3.32 8 -4 8 C-2.87548273 5.0280615 -1.77706209 2.66559313 0 0 Z " fill="#2E8996" transform="translate(532,312)"/>
<path d="M0 0 C0.66 0 1.32 0 2 0 C1.45276317 3.37462715 0.9451 5.08235 -1 8 C-1.66 6.68 -2.32 5.36 -3 4 C-1.625 2 -1.625 2 0 0 Z " fill="#3E8C8F" transform="translate(667,465)"/>
<path d="M0 0 C0.99 0.33 1.98 0.66 3 1 C2.67 2.65 2.34 4.3 2 6 C0.68 5.34 -0.64 4.68 -2 4 C-2 3.01 -2 2.02 -2 1 C-1.34 0.67 -0.68 0.34 0 0 Z " fill="#328187" transform="translate(444,391)"/>
<path d="M0 0 C2.15377564 2.62198774 3.40072174 4.64404172 4 8 C3.01 8.33 2.02 8.66 1 9 C0.67 6.03 0.34 3.06 0 0 Z " fill="#439899" transform="translate(465,663)"/>
<path d="M0 0 C2.64752004 2.57784846 4.94432065 4.91648098 7 8 C6.01 8.33 5.02 8.66 4 9 C0 3.375 0 3.375 0 0 Z " fill="#D8E5EA" transform="translate(373,630)"/>
<path d="M0 0 C1.98 0 3.96 0 6 0 C6 0.66 6 1.32 6 2 C7.32 2.66 8.64 3.32 10 4 C9.34 4.66 8.68 5.32 8 6 C6.66402348 5.19185349 5.331275 4.37836819 4 3.5625 C3.2575 3.11003906 2.515 2.65757812 1.75 2.19140625 C1.1725 1.79824219 0.595 1.40507813 0 1 C0 0.67 0 0.34 0 0 Z " fill="#4A9898" transform="translate(676,631)"/>
<path d="M0 0 C2.88575819 0.39803561 3.82189513 0.79009069 5.75 3.0625 C6.1625 3.701875 6.575 4.34125 7 5 C6.01 5.33 5.02 5.66 4 6 C2.62437146 4.71034824 1.29233607 3.37310707 0 2 C0 1.34 0 0.68 0 0 Z " fill="#409599" transform="translate(368,623)"/>
<path d="M0 0 C3.24271506 0.5590888 4.93057424 1.4132178 7 4 C7 4.66 7 5.32 7 6 C6.01 6 5.02 6 4 6 C4 5.34 4 4.68 4 4 C3.34 4 2.68 4 2 4 C2 3.34 2 2.68 2 2 C1.34 2 0.68 2 0 2 C0 1.34 0 0.68 0 0 Z " fill="#419597" transform="translate(368,616)"/>
<path d="M0 0 C1.9375 0.6875 1.9375 0.6875 4 2 C4.75 4.625 4.75 4.625 5 7 C4.01 7 3.02 7 2 7 C0.5393715 4.35261084 0 3.10551666 0 0 Z " fill="#308785" transform="translate(569,377)"/>
<path d="M0 0 C0.99 0.33 1.98 0.66 3 1 C1.515 4.465 1.515 4.465 0 8 C-0.66 7.01 -1.32 6.02 -2 5 C-1.125 2.3125 -1.125 2.3125 0 0 Z " fill="#429697" transform="translate(552,637)"/>
<path d="M0 0 C0.66 0.33 1.32 0.66 2 1 C-0.31 3.31 -2.62 5.62 -5 8 C-5.66 7.67 -6.32 7.34 -7 7 C-4.78071806 4.09197539 -3.07030857 2.04687238 0 0 Z " fill="#DDEBE5" transform="translate(343,633)"/>
<path d="M0 0 C0.66 0 1.32 0 2 0 C2.33 1.65 2.66 3.3 3 5 C1.68 5.33 0.36 5.66 -1 6 C-1.042721 4.33388095 -1.04063832 2.66617115 -1 1 C-0.67 0.67 -0.34 0.34 0 0 Z " fill="#308A93" transform="translate(665,600)"/>
<path d="M0 0 C0.99 0.99 1.98 1.98 3 3 C2.34 4.32 1.68 5.64 1 7 C0.34 6.34 -0.32 5.68 -1 5 C-1.66 5 -2.32 5 -3 5 C-1.125 1.125 -1.125 1.125 0 0 Z " fill="#358D97" transform="translate(702,394)"/>
<path d="M0 0 C4.75 0.75 4.75 0.75 7 3 C6.67 3.99 6.34 4.98 6 6 C3.97945196 4.35830472 1.97956942 2.69088222 0 1 C0 0.67 0 0.34 0 0 Z " fill="#3F9695" transform="translate(491,320)"/>
<path d="M0 0 C0 3 0 3 -1.3125 4.38671875 C-2.875 5.59114583 -4.4375 6.79557292 -6 8 C-5.65120368 4.74456771 -4.97866739 3.98126893 -2.4375 1.75 C-1.633125 1.1725 -0.82875 0.595 0 0 Z " fill="#3B9694" transform="translate(497,280)"/>
<path d="M0 0 C3.16115776 1.36983503 3.9927092 1.9890638 6 5 C3.0625 4.625 3.0625 4.625 0 4 C-0.33 3.34 -0.66 2.68 -1 2 C-0.67 1.34 -0.34 0.68 0 0 Z " fill="#DFF2F2" transform="translate(590,619)"/>
<path d="M0 0 C0.66 0 1.32 0 2 0 C2.1875 2.375 2.1875 2.375 2 5 C1.01 5.66 0.02 6.32 -1 7 C-1.66 6.67 -2.32 6.34 -3 6 C-2 4 -1 2 0 0 Z " fill="#4C989B" transform="translate(381,499)"/>
<path d="M0 0 C0.66 0.66 1.32 1.32 2 2 C0.02 4.97 0.02 4.97 -2 8 C-2.66 6.68 -3.32 5.36 -4 4 C-2.68 2.68 -1.36 1.36 0 0 Z " fill="#409599" transform="translate(627,458)"/>
<path d="M0 0 C0.99 0.33 1.98 0.66 3 1 C1.875 2.5 1.875 2.5 0 4 C-3.1875 4.1875 -3.1875 4.1875 -6 4 C-4.03617993 2.49440461 -2.21736634 1.10868317 0 0 Z " fill="#2A848C" transform="translate(352,408)"/>
<path d="M0 0 C0.66 0.66 1.32 1.32 2 2 C0.515 4.475 0.515 4.475 -1 7 C-1.66 6.67 -2.32 6.34 -3 6 C-2.42655063 3.13275314 -2.1385485 2.1385485 0 0 Z " fill="#3C9290" transform="translate(457,371)"/>
<path d="M0 0 C1 3 1 3 -0.4375 6.1875 C-1.2109375 7.5796875 -1.2109375 7.5796875 -2 9 C-2.66 9 -3.32 9 -4 9 C-2.94124926 5.59687262 -1.99097846 2.98646769 0 0 Z " fill="#469A98" transform="translate(464,346)"/>
<path d="M0 0 C0.66 0 1.32 0 2 0 C2 0.66 2 1.32 2 2 C3.32 2.33 4.64 2.66 6 3 C5.34 4.32 4.68 5.64 4 7 C2.02 3.535 2.02 3.535 0 0 Z " fill="#41999C" transform="translate(488,733)"/>
<path d="M0 0 C1.32 0.66 2.64 1.32 4 2 C2.35 3.32 0.7 4.64 -1 6 C-1.66 5.67 -2.32 5.34 -3 5 C-2.01 3.35 -1.02 1.7 0 0 Z " fill="#45989B" transform="translate(546,684)"/>
<path d="M0 0 C0.99 0 1.98 0 3 0 C3 0.66 3 1.32 3 2 C1.03852126 3.38938077 -0.96166576 4.7260411 -3 6 C-2.42655063 3.13275314 -2.1385485 2.1385485 0 0 Z " fill="#308A89" transform="translate(336,629)"/>
<path d="M0 0 C0.66 0.99 1.32 1.98 2 3 C0.71034824 4.37562854 -0.62689293 5.70766393 -2 7 C-2.66 7 -3.32 7 -4 7 C-2.79618552 4.50638429 -1.54571278 2.31856917 0 0 Z " fill="#409598" transform="translate(558,518)"/>
<path d="M0 0 C1.37562854 1.28965176 2.70766393 2.62689293 4 4 C4 4.66 4 5.32 4 6 C3.01 6 2.02 6 1 6 C0.34 4.35 -0.32 2.7 -1 1 C-0.67 0.67 -0.34 0.34 0 0 Z " fill="#338589" transform="translate(665,420)"/>
<path d="M0 0 C2.0625 0.4375 2.0625 0.4375 4 1 C2.625 2.5 2.625 2.5 1 4 C0.34 4 -0.32 4 -1 4 C-1.33 4.66 -1.66 5.32 -2 6 C-1.125 1.125 -1.125 1.125 0 0 Z " fill="#41959A" transform="translate(473,343)"/>
<path d="M0 0 C0.66 0.33 1.32 0.66 2 1 C0.35 2.98 -1.3 4.96 -3 7 C-3.66 6.67 -4.32 6.34 -5 6 C-3.35 4.02 -1.7 2.04 0 0 Z " fill="#449A98" transform="translate(470,339)"/>
</svg>
