<?xml version="1.0" encoding="UTF-8"?>
<svg version="1.1" xmlns="http://www.w3.org/2000/svg" width="512" height="512">
<path d="M0 0 C0.79985829 -0.00382555 1.59971657 -0.00765109 2.42381299 -0.01159257 C5.09520103 -0.0218842 7.7663726 -0.01793773 10.43777466 -0.01396179 C12.35669147 -0.0183104 14.27560654 -0.02349405 16.19451904 -0.02944946 C21.401166 -0.04283503 26.60774034 -0.04341859 31.81440115 -0.04088616 C36.16327852 -0.0398161 40.51214122 -0.04470077 44.86101544 -0.04949158 C55.1222901 -0.06058537 65.38352815 -0.06102497 75.64480591 -0.05497742 C86.22508529 -0.04893765 96.80523169 -0.06124904 107.38548839 -0.08254749 C116.47441514 -0.10017002 125.56329958 -0.10616379 134.65224278 -0.10290974 C140.07837803 -0.1010977 145.50441842 -0.10372525 150.93053818 -0.11762428 C156.03429682 -0.13020846 161.13784835 -0.12825284 166.24160385 -0.11521339 C168.11204092 -0.11284931 169.98249258 -0.11557625 171.8529129 -0.12383652 C174.41178392 -0.13432007 176.96996206 -0.12619061 179.52880859 -0.11352539 C180.63165422 -0.12458682 180.63165422 -0.12458682 181.75677955 -0.13587171 C189.17620868 -0.0589358 195.81225038 2.19814461 201.22928524 7.4148798 C207.53008502 14.41211343 207.46311102 22.77979444 207.39309692 31.73164368 C207.39688715 33.06973334 207.40239296 34.40781907 207.4094696 35.74589539 C207.4233488 39.35545783 207.41230881 42.96453958 207.39575839 46.57407498 C207.38183343 50.36463304 207.38837629 54.15516529 207.39189148 57.94573975 C207.39458742 64.30820903 207.38117013 70.67048899 207.35794067 77.03291321 C207.33132329 84.37378177 207.32958974 91.71433419 207.34132904 99.05523449 C207.35213192 106.13792727 207.34590084 113.22050644 207.33177376 120.30319023 C207.32603683 123.30818832 207.32607845 126.31310264 207.33083916 129.31810188 C207.33563404 132.86003001 207.32540437 136.40161474 207.30388451 139.94347763 C207.29572477 141.85267246 207.30214059 143.76191242 207.30908203 145.67111206 C207.24494013 153.12318194 206.7734259 159.23012352 202.31326294 165.46772766 C201.76154419 165.99753235 201.20982544 166.52733704 200.64138794 167.07319641 C200.09998169 167.61589172 199.55857544 168.15858704 199.00076294 168.71772766 C193.36442156 172.840607 188.3311745 173.69757406 181.55154419 173.55366516 C180.78458725 173.54942032 180.01763031 173.54517548 179.22743225 173.540802 C176.80254462 173.52414711 174.37851996 173.48652194 171.95388794 173.44819641 C170.29960316 173.43313243 168.64530521 173.41944703 166.99099731 173.40718079 C162.95746691 173.37428718 158.92457321 173.3225989 154.89138794 173.26069641 C154.91233521 174.51205383 154.93328247 175.76341125 154.9548645 177.0526886 C155.02728188 181.69677786 155.07319412 186.34081724 155.1111145 190.98530579 C155.13122599 192.99515679 155.15851909 195.00494932 155.19314575 197.01460266 C155.24168427 199.90407237 155.26436116 202.79276832 155.28201294 205.68257141 C155.30265808 206.580625 155.32330322 207.47867859 155.34457397 208.40394592 C155.34680407 214.60851318 155.34680407 214.60851318 153.10183716 217.82344055 C150.41769032 219.56869927 148.20504245 219.89356128 145.01931763 219.7191925 C141.03857905 218.86147944 138.18632565 216.52792829 135.01638794 214.07319641 C134.28806763 213.53436829 133.55974731 212.99554016 132.80935669 212.44038391 C131.27043205 211.30131661 129.73697786 210.15482549 128.20877075 209.00141907 C124.47692068 206.19820678 120.68080658 203.48525504 116.89138794 200.76069641 C115.3899872 199.67359307 113.88868514 198.58635343 112.38748169 197.49897766 C107.28404115 193.81309787 102.14171303 190.18315621 96.98709106 186.56929016 C96.3483606 186.12069641 95.70963013 185.67210266 95.05154419 185.20991516 C94.41759735 184.7804509 93.78365051 184.35098663 93.13049316 183.9085083 C90.89138794 182.26069641 90.89138794 182.26069641 88.79888916 180.25289917 C79.86012231 172.30503712 70.69726378 173.20868626 59.41091919 173.40132141 C57.42798487 173.40396425 55.44504121 173.40248935 53.46211243 173.39710999 C48.26812357 173.39135933 43.07550976 173.42962479 37.88180542 173.48097229 C29.56076892 173.55880172 21.23982371 173.58242661 12.91846275 173.58087921 C10.02432384 173.58868413 7.13141734 173.62347323 4.23753357 173.66114807 C2.4539422 173.66822818 0.6703471 173.67443857 -1.11325073 173.67964172 C-2.30653488 173.70603981 -2.30653488 173.70603981 -3.52392578 173.73297119 C-10.01708414 173.71267695 -15.07511138 171.76378145 -20.09689331 167.62007141 C-20.75238159 166.82343079 -20.75238159 166.82343079 -21.42111206 166.01069641 C-21.87099487 165.48991516 -22.32087769 164.96913391 -22.78439331 164.43257141 C-27.41170985 156.84322629 -27.54036398 149.87633683 -27.49679565 141.1945343 C-27.50205261 139.90084427 -27.50730957 138.60715424 -27.51272583 137.27426147 C-27.52633411 133.745231 -27.52112753 130.21646538 -27.51158857 126.68743062 C-27.50395651 122.98141251 -27.51104754 119.27541604 -27.51574707 115.56939697 C-27.52119503 109.34641987 -27.51403902 103.12354981 -27.49972534 96.90058899 C-27.4834078 89.7239314 -27.48868459 82.54752965 -27.50520456 75.37087828 C-27.51885548 69.1914121 -27.52072132 63.01202257 -27.51288855 56.83254617 C-27.50823085 53.14965435 -27.50753423 49.46688243 -27.51749802 45.78399849 C-27.52784031 41.67459805 -27.51347168 37.56563268 -27.49679565 33.45625305 C-27.50286835 32.24817993 -27.50894104 31.04010681 -27.51519775 29.79542542 C-27.44901174 20.96766849 -26.62395782 12.77604217 -20.10861206 6.26069641 C-13.6707446 1.362319 -7.98424493 -0.04079408 0 0 Z M-10.10861206 22.26069641 C-10.84008398 24.89353038 -10.84008398 24.89353038 -10.7233429 27.73239136 C-10.73310654 28.81890991 -10.74287018 29.90542847 -10.75292969 31.02487183 C-10.7380954 32.20685654 -10.72326111 33.38884125 -10.70797729 34.60664368 C-10.71192001 35.85915924 -10.71586273 37.1116748 -10.71992493 38.40214539 C-10.72548284 41.83026399 -10.70875308 45.25687151 -10.68144488 48.68479276 C-10.65758645 52.27436275 -10.66055962 55.8639171 -10.66014099 59.45355225 C-10.65551537 65.48014835 -10.63188932 71.50642818 -10.59567261 77.53291321 C-10.55392151 84.49883409 -10.53635652 91.46447033 -10.53305286 98.43050915 C-10.52945226 105.85038055 -10.51057767 113.27014967 -10.48593259 120.68997836 C-10.4797068 122.82676215 -10.47606873 124.96353814 -10.47289848 127.10032845 C-10.46589737 131.08169703 -10.44150303 135.06285489 -10.41500854 139.04414368 C-10.41434387 140.22815262 -10.4136792 141.41216156 -10.41299438 142.63204956 C-10.40301926 143.71574829 -10.39304413 144.79944702 -10.38276672 145.91598511 C-10.37811622 146.8570942 -10.37346571 147.7982033 -10.36867428 148.76783085 C-10.09314058 151.40900065 -9.53620687 153.03340932 -8.10861206 155.26069641 C-4.85976269 156.8851211 -1.2855259 156.41389995 2.28494263 156.41841125 C3.15341827 156.42349197 4.02189392 156.42857269 4.91668701 156.43380737 C6.80681086 156.44452387 8.6969475 156.45313901 10.58708954 156.45992661 C13.57980513 156.47169898 16.57237533 156.49114851 19.56503296 156.51304626 C28.07546136 156.57471145 36.58587609 156.62868178 45.09646606 156.6620636 C50.29898876 156.68302135 55.50124853 156.71833682 60.70362091 156.7628212 C62.68588412 156.77697613 64.66819386 156.78570249 66.65050507 156.78887558 C69.42736763 156.79379001 72.20353422 156.81696286 74.98025513 156.8441925 C76.20553421 156.8396833 76.20553421 156.8396833 77.45556641 156.83508301 C84.04456536 156.93092442 88.52400619 159.07732375 93.81716919 162.97554016 C94.52285034 163.49092346 95.22853149 164.00630676 95.95559692 164.53730774 C96.69753296 165.085401 97.43946899 165.63349426 98.20388794 166.19819641 C99.80484421 167.36829716 101.40642213 168.53754775 103.00857544 169.70600891 C103.81907349 170.29801086 104.62957153 170.89001282 105.46463013 171.49995422 C109.92622983 174.7370827 114.44150013 177.89774509 118.95339966 181.06416321 C123.99301556 184.60740085 128.96146974 188.23242197 133.88748169 191.93257141 C135.76855852 193.44484587 135.76855852 193.44484587 137.89138794 193.26069641 C137.90597046 192.37809143 137.92055298 191.49548645 137.93557739 190.58613586 C137.99680861 187.29630998 138.07099124 184.00729712 138.15383911 180.7179718 C138.18699351 179.29718439 138.21505486 177.87626828 138.23782349 176.45527649 C138.27154641 174.40678821 138.32386539 172.35946921 138.37966919 170.31147766 C138.40585327 169.08082581 138.43203735 167.85017395 138.45901489 166.58222961 C138.92320781 163.01625294 139.68960415 161.08265526 141.89138794 158.26069641 C144.59032962 157.36104919 146.16163555 157.13243508 148.93215942 157.11885071 C149.73987289 157.11181625 150.54758636 157.1047818 151.379776 157.09753418 C152.24856888 157.0933699 153.11736176 157.08920563 154.01248169 157.08491516 C155.85298799 157.06172284 157.69348283 157.03760575 159.53396606 157.01264954 C162.43516788 156.97749388 165.33594598 156.94816383 168.23733521 156.93476868 C171.03790416 156.91930906 173.83723837 156.87912101 176.63748169 156.83491516 C177.93763466 156.83777779 177.93763466 156.83777779 179.26405334 156.84069824 C180.48035179 156.81596184 180.48035179 156.81596184 181.72122192 156.79072571 C182.43165146 156.78485947 183.14208099 156.77899323 183.8740387 156.77294922 C186.81395637 156.02643441 187.97651906 154.57852692 189.89138794 152.26069641 C190.49123215 149.68931697 190.49123215 149.68931697 190.40605164 146.83332825 C190.42513832 145.18036995 190.42513832 145.18036995 190.4446106 143.49401855 C190.43482178 141.68759636 190.43482178 141.68759636 190.42483521 139.84468079 C190.43345078 138.57280411 190.44206635 137.30092743 190.45094299 135.99050903 C190.47344287 132.50491498 190.47049638 129.01977484 190.46162152 125.53413582 C190.45651153 122.6239614 190.46380415 119.71387228 190.4710936 116.80370665 C190.48809407 109.93887088 190.48452495 103.0742574 190.46780396 96.20942688 C190.45087587 89.12690704 190.46672563 82.04500321 190.49902683 74.96255064 C190.52571304 68.88088275 190.53300163 62.79940674 190.52451175 56.71768618 C190.51958037 53.08565885 190.52180912 49.45400233 190.54229927 45.82202148 C190.56404791 41.77319294 190.54526926 37.72553475 190.52249146 33.67671204 C190.53418365 32.47243057 190.54587585 31.26814911 190.55792236 30.02737427 C190.5452684 28.92540207 190.53261444 27.82342987 190.51957703 26.68806458 C190.51899072 25.73090797 190.51840441 24.77375137 190.51780033 23.78759003 C190.05598486 21.08525517 190.05598486 21.08525517 187.83842373 18.95365238 C184.19140226 16.85858221 181.20252421 16.69928361 177.11062622 16.74603271 C176.33400698 16.73908719 175.55738773 16.73214166 174.75723457 16.72498566 C172.15842992 16.70670893 169.56053744 16.71698145 166.96170044 16.72724915 C165.09717119 16.72019104 163.23264767 16.71144649 161.36813354 16.70114136 C156.3061781 16.67862671 151.244535 16.68159177 146.18254852 16.69046283 C141.95768927 16.69556994 137.73288885 16.68828249 133.50803566 16.68099076 C123.54266856 16.66398552 113.57745456 16.66756436 103.61209106 16.6842804 C93.32761529 16.70120848 83.04356374 16.68535906 72.75913429 16.65305752 C63.93097096 16.62637922 55.10293982 16.61908068 46.27474022 16.6275726 C41.00121012 16.6325062 35.7279354 16.63026253 30.45443726 16.60978508 C25.49665458 16.59145527 20.53948334 16.59735362 15.5817337 16.62198448 C13.76164303 16.62700068 11.94150599 16.62348168 10.12145233 16.61083603 C7.63764518 16.59494295 5.15586077 16.60981872 2.67214966 16.63250732 C1.95084429 16.6206716 1.22953892 16.60883587 0.48637581 16.59664148 C-4.71996172 16.69335404 -7.05131771 18.08514892 -10.10861206 22.26069641 Z " fill="#000000" transform="translate(215.10861206054688,18.739303588867188)"/>
<path d="M0 0 C8.27925088 6.94603818 15.57353823 15.34136698 22.20703125 23.8515625 C27.11356469 28.19154633 34.12084409 29.34181593 40.3359375 30.7421875 C42.14071981 31.16496005 43.94540435 31.58815014 45.75 32.01171875 C48.56162502 32.66413732 51.37407655 33.31228989 54.18847656 33.95263672 C56.92808689 34.57876482 59.66328046 35.22192301 62.3984375 35.8671875 C63.2268515 36.0507077 64.0552655 36.23422791 64.90878296 36.42330933 C74.08160225 38.61015985 82.15343746 42.88932598 88 50.4375 C92.60502197 58.06083948 95.06166431 65.48064191 94 74.4375 C92.14804238 80.35318176 89.01063956 83.91939137 84 87.4375 C75.76084779 90.18388407 65.59221372 88.60736745 57 88.4375 C56.23997681 88.42372314 55.47995361 88.40994629 54.69689941 88.39575195 C49.61346555 88.29892464 44.53381612 88.15451688 39.45300293 87.96450806 C37.75486532 87.90554885 36.05631245 87.85740395 34.35754395 87.82089233 C22.43202157 87.54857378 14.27353009 85.6088109 4 79.4375 C1.00815165 77.75607498 -1.99540443 76.09602267 -5 74.4375 C-5.00364563 75.40358688 -5.00729126 76.36967377 -5.01104736 77.36503601 C-5.04800113 86.47297264 -5.10577783 95.58057128 -5.18390274 104.68825054 C-5.22339893 109.37055036 -5.25557685 114.05266151 -5.27099609 118.73510742 C-5.28614865 123.25462718 -5.32056903 127.77362834 -5.36830902 132.29291725 C-5.38313733 134.01642154 -5.39104185 135.73999986 -5.39188385 137.46356773 C-5.39425098 139.87951207 -5.42130786 142.29402022 -5.45410156 144.7097168 C-5.44655602 145.77678864 -5.44655602 145.77678864 -5.43885803 146.86541748 C-5.51240933 150.37136282 -5.94990102 152.35707599 -7.8192749 155.35798645 C-10.82828281 158.22734065 -12.8889567 158.4375 -17 158.4375 C-19.94755732 157.09187601 -21.54277272 156.35195456 -23 153.4375 C-23.11971545 150.38252468 -23.17842757 147.34968537 -23.19287109 144.29370117 C-23.20513733 142.87153542 -23.20513733 142.87153542 -23.21765137 141.42063904 C-23.24252346 138.27392209 -23.25902542 135.12725028 -23.2734375 131.98046875 C-23.27876118 130.90735254 -23.28408485 129.83423634 -23.28956985 128.72860146 C-23.31630843 123.04946227 -23.3356817 117.37034512 -23.35009766 111.69116211 C-23.36675359 105.81964143 -23.41153768 99.94868117 -23.4624691 94.07737255 C-23.49609251 89.5675236 -23.5076697 85.05780852 -23.51332474 80.54784584 C-23.52005001 78.38326036 -23.53530499 76.21868407 -23.55921555 74.0542202 C-23.59076611 71.02550689 -23.59091888 67.99831631 -23.58349609 64.96948242 C-23.59990143 64.07422852 -23.61630676 63.17897461 -23.63320923 62.2565918 C-23.58885948 57.83909359 -23.42476923 55.99746516 -20.67590332 52.37368774 C-17.13601101 49.81234853 -15.29426983 49.82831559 -11 50.4375 C-7.71435547 51.7668457 -7.71435547 51.7668457 -4.3671875 53.61328125 C-3.76746124 53.9391069 -3.16773499 54.26493256 -2.54983521 54.60063171 C-0.65041694 55.63688471 1.2370571 56.69301278 3.125 57.75 C4.39901637 58.44858618 5.67375095 59.14586424 6.94921875 59.84179688 C16.36658195 65.0002914 16.36658195 65.0002914 19.43066406 67.11523438 C22.74789098 68.82238954 25.82061169 69.01586434 29.4765625 69.16796875 C30.19598526 69.20820663 30.91540802 69.24844452 31.65663147 69.28990173 C33.97894094 69.41553966 36.30163171 69.52094938 38.625 69.625 C40.21332937 69.70559237 41.80162708 69.78681086 43.38989258 69.86865234 C54.26147004 70.40773537 65.11539706 70.69907924 76 70.4375 C75.268662 65.38845495 74.41182215 62.36109547 71 58.4375 C64.87337399 54.88174432 58.1679289 53.33584966 51.3046875 51.88671875 C49.26931766 51.43129206 47.23416759 50.97488226 45.19921875 50.51757812 C42.03069852 49.81578408 38.8610411 49.122025 35.68701172 48.44555664 C32.5956528 47.78223538 29.51288151 47.08687713 26.4296875 46.38671875 C25.48785614 46.19478439 24.54602478 46.00285004 23.57565308 45.80509949 C16.92000449 44.26106812 13.33335697 41.67257844 9 36.4375 C8.37351562 35.75042969 7.74703125 35.06335938 7.1015625 34.35546875 C6.61429687 33.78441406 6.12703125 33.21335937 5.625 32.625 C5.04878906 31.95984375 4.47257812 31.2946875 3.87890625 30.609375 C2.94884766 29.53429687 2.94884766 29.53429687 2 28.4375 C-8.06052012 16.86699223 -18.00994055 6.38989619 -34.25 5.19921875 C-48.38283856 4.91950632 -58.93618694 8.49887016 -69.6875 17.75 C-78.473159 27.96036046 -82.63098331 38.30682672 -82.49829102 51.79638672 C-82.50380981 52.87260788 -82.50932861 53.94882904 -82.51501465 55.05766296 C-82.52427758 57.37324075 -82.52448753 59.68886949 -82.51642036 62.00445175 C-82.50372365 65.66990199 -82.51513971 69.33460675 -82.53245544 73.00003052 C-82.55906817 79.45231583 -82.56475394 85.90441622 -82.56335449 92.35675049 C-82.56111928 102.7043508 -82.57519591 113.05172392 -82.61894035 123.39923477 C-82.62878287 127.0094322 -82.62006273 130.6192716 -82.61024475 134.22946167 C-82.61638702 136.43797034 -82.6232981 138.64647705 -82.63110352 140.85498047 C-82.62338425 141.85765457 -82.61566498 142.86032867 -82.60771179 143.89338684 C-82.67066169 152.50978363 -82.67066169 152.50978363 -86 156.4375 C-89.51824511 158.78299674 -90.85775694 159.01741403 -95 158.4375 C-97.9327238 156.3991091 -99.72838277 154.76883548 -100.46042061 151.18074226 C-100.64591886 148.28811548 -100.6638358 145.4338989 -100.63110352 142.53540039 C-100.63825882 141.43549774 -100.64541412 140.33559509 -100.65278625 139.20236206 C-100.66970402 135.56287172 -100.65023945 131.92460866 -100.62890625 128.28515625 C-100.62973519 125.74751178 -100.63219551 123.20986737 -100.63621521 120.67222595 C-100.63907606 115.34665396 -100.62488501 110.02151406 -100.59692383 104.69604492 C-100.56501979 98.57314784 -100.56482979 92.45088919 -100.5821386 86.32794768 C-100.59812267 80.40924236 -100.59108463 74.4907296 -100.57420158 68.57201958 C-100.56904871 66.06882684 -100.56946606 63.56561578 -100.57574654 61.06242561 C-100.61090129 38.61220546 -98.20832651 20.8698707 -81.85546875 4.16796875 C-74.49231569 -2.8728575 -66.58574738 -7.19631162 -57 -10.5625 C-55.94619141 -10.93375 -55.94619141 -10.93375 -54.87109375 -11.3125 C-36.24296787 -16.56191316 -15.12619813 -11.43511629 0 0 Z " fill="#000000" transform="translate(104,334.5625)"/>
<path d="M0 0 C12.70652097 10.22219669 21.39786715 23.55837104 24.32470703 39.76318359 C24.61464705 43.55928695 24.62866809 47.34271883 24.63110352 51.14868164 C24.63942703 52.263479 24.64775055 53.37827637 24.65632629 54.52685547 C24.68032276 58.19290707 24.68918308 61.85878068 24.69580078 65.52490234 C24.70477051 68.07981926 24.71389242 70.63473564 24.72315979 73.18965149 C24.73962099 78.53489791 24.74737831 83.88007793 24.75024414 89.2253418 C24.75388778 95.39791713 24.78385922 101.56999786 24.82564873 107.74242181 C24.86452932 113.69474451 24.87583658 119.64691827 24.87697029 125.59937477 C24.88118017 128.12678537 24.89364495 130.65419611 24.91448784 133.18152428 C24.9412877 136.71008223 24.93661106 140.23726203 24.92407227 143.76586914 C24.9463237 145.33305443 24.9463237 145.33305443 24.96902466 146.93190002 C24.92069222 151.69868942 24.89021959 154.0046197 21.9747467 157.9153595 C19.32470703 159.76318359 19.32470703 159.76318359 16.32470703 160.32568359 C12.64236799 159.63524502 10.95656775 158.39504432 8.32470703 155.76318359 C7.38051756 152.93061519 7.19800678 151.19594094 7.19340515 148.26245117 C7.18739288 146.87915367 7.18739288 146.87915367 7.18125916 145.46791077 C7.18205223 143.95311378 7.18205223 143.95311378 7.18286133 142.40771484 C7.1793869 141.34229965 7.17591248 140.27688446 7.17233276 139.17918396 C7.16497269 136.86128259 7.15962865 134.54337415 7.1560421 132.22546387 C7.14887727 128.55080457 7.13320849 124.87627886 7.11470032 121.20166016 C7.06224532 110.75197224 7.01429427 100.30235568 6.9987793 89.85253906 C6.98866921 83.46227768 6.95926288 77.0723498 6.91745949 70.68222046 C6.90518315 68.25192799 6.90002204 65.82158832 6.90225792 63.39126587 C6.90462412 59.97842153 6.8823413 56.56652443 6.85473633 53.15380859 C6.86133774 52.16013779 6.86793915 51.16646698 6.8747406 50.14268494 C6.71385778 37.95152244 1.86407561 28.20082816 -5.98779297 19.07568359 C-16.44995646 10.07335687 -27.07725906 5.95342795 -40.99560547 6.38037109 C-57.83483579 8.13222308 -68.53747281 18.55542803 -79.23779297 30.76318359 C-80.04265137 31.66278809 -80.04265137 31.66278809 -80.86376953 32.58056641 C-82.72242253 34.7136322 -82.72242253 34.7136322 -84.11401367 37.1171875 C-91.54726231 47.80476776 -104.35120502 48.62774104 -116.30029297 51.13818359 C-119.66553798 51.87481334 -123.02796793 52.62217889 -126.38827515 53.38101196 C-128.46963285 53.84792995 -130.55423339 54.30069635 -132.64224243 54.73690796 C-138.81490969 56.08421224 -145.17576386 57.48175051 -149.19873047 62.76318359 C-149.47974609 63.42318359 -149.76076172 64.08318359 -150.05029297 64.76318359 C-150.34677734 65.42318359 -150.64326172 66.08318359 -150.94873047 66.76318359 C-151.66889323 68.74556712 -152.17876081 70.71518846 -152.67529297 72.76318359 C-146.77102349 72.49958643 -140.86690179 72.23294393 -134.96289062 71.96362305 C-132.95934665 71.8726407 -130.95576638 71.78245376 -128.95214844 71.69311523 C-124.18051973 71.48011734 -119.41012729 71.25626059 -114.64038086 71.00439453 C-111.79027213 70.85474475 -108.96997472 70.75718706 -106.11450195 70.73291016 C-97.31413856 70.50686463 -90.68044943 66.64901327 -83.23779297 62.38818359 C-81.98692084 61.69352514 -80.73497075 61.0008041 -79.48193359 60.31005859 C-75.27366509 57.97912443 -71.07217951 55.64791675 -67.00708008 53.07324219 C-63.66771053 51.1970976 -61.44010854 51.2253528 -57.67529297 51.76318359 C-54.91347659 53.75959496 -52.99516101 55.35111215 -52.2191925 58.77665901 C-52.03736667 61.28517218 -52.02266869 63.74850961 -52.06005859 66.26342773 C-52.05450958 67.21358261 -52.04896057 68.16373749 -52.04324341 69.14268494 C-52.03144768 72.27841875 -52.05572046 75.41270745 -52.08154297 78.54833984 C-52.08325401 80.7287947 -52.08318846 82.90925161 -52.0814209 85.08970642 C-52.08307405 89.65692859 -52.1017733 94.22365987 -52.13330078 98.79077148 C-52.17300154 104.64765173 -52.17734322 110.50388966 -52.16983795 116.36087894 C-52.16677006 120.86215611 -52.17888203 125.36328861 -52.19596863 129.86453056 C-52.20300376 132.02430756 -52.20612254 134.18410095 -52.20527649 136.34388924 C-52.20707221 139.36033964 -52.2284344 142.37601707 -52.25537109 145.39233398 C-52.25244049 146.28647003 -52.24950989 147.18060608 -52.24649048 148.10183716 C-52.32978758 154.14087668 -52.32978758 154.14087668 -54.08483887 157.30198669 C-56.50079473 159.52159631 -58.48790509 159.6751404 -61.67138672 159.93896484 C-64.90037526 159.65572024 -66.51505418 158.05434595 -68.67529297 155.76318359 C-70.17507788 152.76361378 -69.85438001 149.66784345 -69.88061523 146.37597656 C-69.89051483 145.61490601 -69.90041443 144.85383545 -69.91061401 144.06970215 C-69.94225975 141.54829036 -69.96699854 139.02685971 -69.99169922 136.50537109 C-70.0122661 134.75944523 -70.0332625 133.01352437 -70.05467224 131.26760864 C-70.10992043 126.66778617 -70.15931757 122.06791856 -70.20751953 117.46801758 C-70.25771452 112.7760007 -70.31341102 108.08404954 -70.36865234 103.39208984 C-70.4762675 94.18251054 -70.57770501 84.97287422 -70.67529297 75.76318359 C-71.56051636 76.25516235 -71.56051636 76.25516235 -72.46362305 76.75708008 C-75.13690637 78.24089305 -77.81231701 79.72082815 -80.48779297 81.20068359 C-81.4165625 81.71695313 -82.34533203 82.23322266 -83.30224609 82.76513672 C-84.19492187 83.25820313 -85.08759766 83.75126953 -86.00732422 84.25927734 C-86.82950439 84.71488037 -87.65168457 85.1704834 -88.4987793 85.63989258 C-92.81693261 87.86847625 -96.90063604 88.05720184 -101.65576172 88.29833984 C-102.45299149 88.3415889 -103.25022125 88.38483795 -104.0716095 88.42939758 C-106.66839841 88.56757869 -109.26547291 88.69789087 -111.86279297 88.82568359 C-112.74233643 88.86920959 -113.62187988 88.9127356 -114.52807617 88.95758057 C-125.23828438 89.47978515 -135.95242309 89.99179334 -146.67529297 90.13818359 C-147.60881592 90.16404541 -148.54233887 90.18990723 -149.50415039 90.21655273 C-155.42345101 90.23372618 -158.81624041 89.18903565 -163.67529297 85.76318359 C-167.77697615 81.43978781 -169.7475515 77.51904862 -169.98779297 71.57568359 C-169.70312948 61.49524723 -165.88603851 54.28044358 -159.08154297 47.07568359 C-152.08159683 40.47196082 -143.14271883 38.51754556 -134.01123047 36.43115234 C-133.12922974 36.22904144 -132.247229 36.02693054 -131.33850098 35.81869507 C-127.64441826 34.97847282 -123.94933919 34.14522642 -120.24658203 33.34399414 C-105.85739383 30.59554468 -105.85739383 30.59554468 -94.67529297 21.76318359 C-93.84900391 20.90853516 -93.02271484 20.05388672 -92.17138672 19.17333984 C-91.49205078 18.39861328 -90.81271484 17.62388672 -90.11279297 16.82568359 C-89.35740234 15.97490234 -88.60201172 15.12412109 -87.82373047 14.24755859 C-86.49634817 12.71262198 -85.18533167 11.16314288 -83.90185547 9.59130859 C-63.74181624 -14.82789385 -25.31993136 -18.69291348 0 0 Z " fill="#000000" transform="translate(483.67529296875,333.23681640625)"/>
<path d="M0 0 C1.20139114 -0.00524185 2.40278229 -0.0104837 3.64057922 -0.0158844 C6.17126697 -0.02228959 8.70198456 -0.02098717 11.23266602 -0.01245117 C15.11072322 -0.00391188 18.98732141 -0.03277364 22.86523438 -0.06445312 C25.32682248 -0.0660645 27.78841319 -0.06548883 30.25 -0.0625 C31.99068001 -0.07935097 31.99068001 -0.07935097 33.76652527 -0.09654236 C34.84477066 -0.08716141 35.92301605 -0.07778046 37.03393555 -0.06811523 C37.98100876 -0.06794907 38.92808197 -0.0677829 39.90385437 -0.06761169 C43.19771089 0.58700634 44.36680095 1.82812782 46.42578125 4.43359375 C47.42578125 7.87109375 47.42578125 7.87109375 47.42578125 11.43359375 C45.65936953 14.23548821 44.39528303 15.94884286 41.42578125 17.43359375 C39.80258147 17.53716765 38.17528621 17.57951127 36.54882812 17.59130859 C35.02715027 17.60670181 35.02715027 17.60670181 33.47473145 17.62240601 C31.82628235 17.633358 31.82628235 17.633358 30.14453125 17.64453125 C27.83593029 17.67258961 25.52733662 17.70125399 23.21875 17.73046875 C19.56461715 17.77183072 15.9106221 17.80870268 12.25634766 17.83496094 C8.73961996 17.86244648 5.22351999 17.90830836 1.70703125 17.95703125 C0.05858215 17.96191055 0.05858215 17.96191055 -1.62316895 17.96688843 C-2.63762085 17.9834549 -3.65207275 18.00002136 -4.69726562 18.01708984 C-5.59280151 18.0251767 -6.4883374 18.03326355 -7.41101074 18.04159546 C-8.48179871 18.23563461 -8.48179871 18.23563461 -9.57421875 18.43359375 C-11.72416078 21.6585068 -11.82491605 22.50325514 -11.82818604 26.21594238 C-11.83382568 27.20018692 -11.83946533 28.18443146 -11.84527588 29.19850159 C-11.84122742 30.27703903 -11.83717896 31.35557648 -11.83300781 32.46679688 C-11.83651245 33.60358383 -11.84001709 34.74037079 -11.84362793 35.91160583 C-11.85244987 39.67941343 -11.84659435 43.44703415 -11.83984375 47.21484375 C-11.84119026 49.82653845 -11.84313068 52.43823291 -11.84564209 55.04992676 C-11.8492814 60.52760859 -11.84448359 66.00523651 -11.83496094 71.48291016 C-11.82407642 77.81714019 -11.82760203 84.15124147 -11.83861375 90.48546839 C-11.84878024 96.57715724 -11.84770806 102.66878898 -11.84185028 108.76048279 C-11.84051329 111.35371417 -11.84216323 113.94694883 -11.84680939 116.54017639 C-11.85187156 120.16033717 -11.84416847 123.78024849 -11.83300781 127.40039062 C-11.83705627 128.47892807 -11.84110474 129.55746552 -11.84527588 130.66868591 C-11.83963623 131.65293045 -11.83399658 132.63717499 -11.82818604 133.65124512 C-11.82705496 134.93544971 -11.82705496 134.93544971 -11.82590103 136.24559784 C-11.70916208 138.72516117 -11.70916208 138.72516117 -9.57421875 141.43359375 C-6.72899724 141.73467943 -4.09002616 141.85052936 -1.2421875 141.83984375 C-0.41342606 141.85067993 0.41533539 141.86151611 1.26921082 141.87268066 C3.92564644 141.90703119 6.58165247 141.92254748 9.23828125 141.93359375 C12.72437115 141.94817592 16.20950312 141.98192356 19.6953125 142.02734375 C20.89399712 142.02281189 20.89399712 142.02281189 22.11689758 142.01818848 C26.69879262 142.07963497 29.69649135 142.47580324 33.42578125 145.43359375 C34.8213817 148.22479466 34.64386413 150.63565067 34.7421875 153.75390625 C34.78408203 155.01074219 34.82597656 156.26757812 34.86914062 157.5625 C34.90845703 158.88121094 34.94777344 160.19992188 34.98828125 161.55859375 C35.03147637 162.89845126 35.07509098 164.23829531 35.11914062 165.578125 C35.22549106 168.8631719 35.32751933 172.14829656 35.42578125 175.43359375 C35.88202881 175.10262695 36.33827637 174.77166016 36.80834961 174.43066406 C47.34835637 166.78958644 57.92926431 159.21142689 68.58251953 151.72900391 C70.27015549 150.54296465 71.95550769 149.35367752 73.640625 148.1640625 C74.53910156 147.53113281 75.43757813 146.89820313 76.36328125 146.24609375 C77.11480469 145.71628906 77.86632812 145.18648437 78.640625 144.640625 C82.43606233 142.07434462 85.74283603 142.27899682 90.19262695 142.27246094 C90.9944339 142.26749603 91.79624084 142.26253113 92.62234497 142.25741577 C95.2820928 142.24277866 97.94178097 142.2359892 100.6015625 142.23046875 C102.44760643 142.22471809 104.29365033 142.21896034 106.13969421 142.2131958 C110.01427489 142.20268107 113.88883479 142.19684166 117.76342773 142.19335938 C122.72679879 142.18787701 127.68989517 142.16385649 132.65318012 142.13538742 C136.46818339 142.11675664 140.2831206 142.11155518 144.09816551 142.1100235 C145.92779223 142.10699688 147.75741778 142.09896802 149.58699989 142.08583832 C152.14846246 142.06877033 154.70925548 142.07065991 157.27075195 142.07714844 C158.4032412 142.06332626 158.4032412 142.06332626 159.55860901 142.04922485 C164.01818381 142.08458582 166.88434962 142.66863784 170.42578125 145.43359375 C171.99049358 148.5630184 172.12280083 152.04441598 171.42578125 155.43359375 C169.86868286 157.54176331 169.86868286 157.54176331 167.42578125 159.43359375 C164.77342106 159.770509 162.55348329 159.86845306 159.91357422 159.77319336 C159.16161774 159.76264923 158.40966125 159.7521051 157.63491821 159.74124146 C156.00225844 159.71710708 154.36970714 159.68447928 152.73736191 159.6443615 C150.13578018 159.58520558 147.53580887 159.55885435 144.93362427 159.5426178 C137.53581252 159.4944389 130.13967726 159.41941612 122.74365234 159.24536133 C96.87606737 157.67045059 96.87606737 157.67045059 74.40049744 168.38742065 C73.21814814 169.53200855 72.05696087 170.69908729 70.92370605 171.89230347 C68.92557178 173.94828447 66.69668626 175.52070432 64.328125 177.125 C63.66063232 177.60855957 62.99313965 178.09211914 62.30541992 178.59033203 C55.59770177 183.44552262 48.87026913 188.27218018 42.11328125 193.05859375 C41.41388428 193.55560791 40.7144873 194.05262207 39.99389648 194.56469727 C29.09550313 202.26042819 29.09550313 202.26042819 23.42578125 201.43359375 C18.87101861 198.59951922 18.87101861 198.59951922 17.79516602 195.78222656 C17.26201372 192.39232234 17.30370234 189.02692816 17.328125 185.60546875 C17.32953995 184.85646301 17.3309549 184.10745728 17.33241272 183.33575439 C17.33799466 180.95165963 17.3505438 178.56765997 17.36328125 176.18359375 C17.36829859 174.56380344 17.37286109 172.94401166 17.37695312 171.32421875 C17.38795817 167.36064063 17.40521034 163.3971333 17.42578125 159.43359375 C16.56936035 159.45977783 15.71293945 159.48596191 14.83056641 159.51293945 C11.6063476 159.59893313 8.38271944 159.6612128 5.15771484 159.70825195 C3.77079861 159.7331618 2.38401038 159.76710377 0.99755859 159.81079102 C-7.81320115 160.08115729 -15.20535531 159.78735646 -22.57421875 154.43359375 C-24.828125 152.15234375 -24.828125 152.15234375 -26.13671875 149.93359375 C-26.59175781 149.20140625 -27.04679687 148.46921875 -27.515625 147.71484375 C-29.38992464 143.67576261 -29.69968534 139.70927758 -29.71466064 135.29925537 C-29.72037079 134.28727585 -29.72608093 133.27529633 -29.73196411 132.23265076 C-29.73308197 131.13332718 -29.73419983 130.0340036 -29.73535156 128.90136719 C-29.74031647 127.73491165 -29.74528137 126.56845612 -29.75039673 125.36665344 C-29.76499841 121.50875253 -29.77181712 117.65089275 -29.77734375 113.79296875 C-29.78164249 111.78737802 -29.78594177 109.78178728 -29.79031825 107.77619672 C-29.80211843 102.18787339 -29.80966271 96.59955998 -29.81311345 91.01122546 C-29.81759031 83.80231842 -29.83512564 76.59360134 -29.86411405 69.38475204 C-29.88578659 63.7998395 -29.89582071 58.2149802 -29.89715457 52.6300261 C-29.89819871 49.3002525 -29.90548641 45.9707994 -29.92197418 42.64104462 C-29.93907636 38.92168384 -29.93714385 35.20278285 -29.93066406 31.48339844 C-29.94448624 29.84655846 -29.94448624 29.84655846 -29.95858765 28.176651 C-29.91909804 20.92095363 -29.18305284 14.24352472 -24.99609375 8.12890625 C-24.444375 7.61070313 -23.89265625 7.0925 -23.32421875 6.55859375 C-22.51210937 5.75808594 -22.51210937 5.75808594 -21.68359375 4.94140625 C-14.73372386 -0.02646371 -8.30984725 -0.02113229 0 0 Z " fill="#000000" transform="translate(131.57421875,58.56640625)"/>
<path d="M0 0 C14.61530516 -0.66797556 27.69064685 4.69504128 38.75 13.9140625 C47.74308272 22.57462787 53.89296393 34.4140771 54.375 46.95703125 C54.39445747 48.64702792 54.39796554 50.33727249 54.38671875 52.02734375 C54.3810791 52.91284912 54.37543945 53.79835449 54.36962891 54.71069336 C54.12351107 67.92917065 49.14311526 79.58806342 40.03515625 89.3125 C28.96935766 99.69495246 15.41363532 104.56397472 0.34765625 104.359375 C-14.29107469 103.43353641 -26.7996089 97.49193794 -36.7734375 86.7421875 C-46.05509069 75.57388248 -49.9454194 62.4781878 -49.3125 48.05078125 C-47.80186177 32.82232713 -40.42735373 20.15182941 -28.80078125 10.36328125 C-20.31113332 4.27695277 -10.34392598 0.81828218 0 0 Z M-23.92578125 29.15234375 C-30.65645231 38.09392131 -33.02518366 47.03307126 -31.92578125 58.15234375 C-29.74632745 67.84895557 -24.69217477 75.71796272 -16.61328125 81.52734375 C-8.46898009 86.50518487 0.1427854 88.46843869 9.54296875 86.68359375 C20.28797892 83.89785037 28.64294321 77.44166091 34.39453125 67.98046875 C38.5518533 59.31695847 38.74004823 47.84421421 35.63671875 38.77734375 C31.1034235 29.34490836 23.8182376 22.76299151 14.07421875 19.15234375 C0.16770958 14.40806535 -13.90617463 18.589178 -23.92578125 29.15234375 Z " fill="#000000" transform="translate(436.92578125,211.84765625)"/>
<path d="M0 0 C7.68987341 7.10055601 12.2778962 14.13649331 16.08984375 23.9296875 C16.49203125 24.96029297 16.49203125 24.96029297 16.90234375 26.01171875 C20.76375751 38.31997513 18.12930523 52.56420745 12.96484375 64.0546875 C6.26359491 76.57173489 -4.79530539 85.05530394 -17.91015625 89.9296875 C-32.80904689 94.41562493 -47.53072071 91.85673419 -61.08984375 84.65234375 C-73.01119145 77.37074495 -80.89840867 66.17354514 -84.49609375 52.7421875 C-87.02332454 35.57609155 -84.12038077 21.47308607 -74.64453125 6.99609375 C-66.5261214 -3.59207331 -53.93495914 -9.23475937 -41.22265625 -11.8203125 C-26.18082648 -12.95554494 -11.81230392 -9.9539487 0 0 Z M-62.40625 19.7265625 C-67.74322899 27.54489016 -69.63731748 36.03458215 -68.28515625 45.3046875 C-66.39621493 54.33657912 -62.42785423 62.35598737 -54.91015625 67.9296875 C-45.51983098 73.44167126 -36.84424692 76.68342791 -25.9765625 74.28125 C-15.91458384 71.28188311 -8.61459876 66.27443586 -3.12890625 57.23828125 C1.30801522 48.83372809 2.55586772 40.39590038 0.43359375 31.03515625 C-2.29034715 22.64025217 -7.25849348 14.88116686 -14.76171875 9.9921875 C-32.25124069 1.34282392 -49.94191673 4.57270952 -62.40625 19.7265625 Z " fill="#000000" transform="translate(105.91015625,224.0703125)"/>
<path d="M0 0 C1.02994835 -0.00935994 1.02994835 -0.00935994 2.08070374 -0.01890898 C4.38097496 -0.03486111 6.68018972 -0.02222711 8.98046875 -0.00964355 C10.62972634 -0.01506373 12.27897909 -0.0221858 13.92822266 -0.03088379 C18.40757091 -0.04913268 22.886551 -0.04204323 27.36590576 -0.02936745 C32.05123901 -0.01924786 36.73654052 -0.02863023 41.421875 -0.03491211 C49.29042222 -0.04219156 57.15881932 -0.03259303 65.02734375 -0.0135498 C74.12742646 0.00821953 83.22715071 0.00116837 92.32722473 -0.02085543 C100.13710094 -0.03900097 107.94686917 -0.0415719 115.75675964 -0.03110075 C120.42269772 -0.02486116 125.08846725 -0.02404295 129.75439453 -0.0372467 C134.14085692 -0.04879232 138.52685669 -0.0408033 142.91326904 -0.01766968 C144.52414176 -0.01237565 146.13505333 -0.01390823 147.74591064 -0.02272034 C149.94311376 -0.03363283 152.13882949 -0.01996683 154.3359375 0 C156.18094849 0.00226215 156.18094849 0.00226215 158.06323242 0.00457001 C161.76075815 0.60404231 162.91092788 1.57983733 165.16796875 4.50793457 C166.50170761 7.88673968 166.26341187 9.2375124 165.04296875 12.69543457 C162.85054627 15.98406829 161.88012125 16.3942868 158.16796875 17.50793457 C155.0522995 17.75961685 155.0522995 17.75961685 151.48815918 17.76190186 C150.50086484 17.76658183 150.50086484 17.76658183 149.49362516 17.77135634 C147.29578828 17.77931149 145.0982294 17.77302254 142.90039062 17.76672363 C141.32157734 17.7694346 139.74276532 17.77299613 138.16395569 17.77734375 C133.88096322 17.78645742 129.59806716 17.78292771 125.31507301 17.77658558 C120.83175014 17.77152031 116.3484355 17.7762185 111.8651123 17.77935791 C104.33632933 17.78299601 96.80758561 17.77820253 89.27880859 17.76867676 C80.57587333 17.75779251 71.87303178 17.76131819 63.17009878 17.77232957 C55.69651281 17.78140687 48.22295504 17.78268555 40.74936533 17.77745223 C36.28634003 17.77433497 31.82335877 17.7739165 27.3603363 17.78052521 C23.16440382 17.78630447 18.9685921 17.78229113 14.77267265 17.77073669 C13.23316587 17.76809322 11.69364892 17.76884988 10.15414619 17.77326202 C8.05188657 17.77873131 5.95001337 17.77186687 3.84777832 17.76190186 C2.08352886 17.76077078 2.08352886 17.76077078 0.283638 17.75961685 C-3.55775996 17.44931055 -6.38997909 16.40300143 -9.64453125 14.38293457 C-11.24022955 11.86341094 -11.24343685 9.47330088 -11.328125 6.54309082 C-9.87567446 0.58461261 -5.41407885 0.00663816 0 0 Z " fill="#000000" transform="translate(134.83203125,427.4920654296875)"/>
<path d="M0 0 C1.89276169 -0.01898094 1.89276169 -0.01898094 3.82376099 -0.03834534 C5.21966962 -0.02702932 6.61557419 -0.01520185 8.01147461 -0.00291443 C9.48339704 -0.00805319 10.95531332 -0.01533415 12.42721558 -0.02459717 C16.423219 -0.0431254 20.41855595 -0.03016417 24.41453171 -0.01050687 C28.59537289 0.00586949 32.77617151 -0.00293184 36.95703125 -0.00802612 C43.97821712 -0.01254823 50.99913668 0.00332988 58.02026367 0.03126526 C66.1388044 0.06331784 74.25686481 0.06330191 82.37543964 0.04605049 C90.18377521 0.03018916 97.9919346 0.03691637 105.80026245 0.0539875 C109.12397956 0.06086188 112.44755561 0.05982163 115.77127075 0.05244255 C119.68500878 0.04478383 123.59819989 0.05689164 127.51184464 0.08429146 C128.94855246 0.09118083 130.38531132 0.09126729 131.82201767 0.08407593 C133.78222937 0.07539446 135.74250545 0.09375935 137.70263672 0.11352539 C139.34854042 0.11773577 139.34854042 0.11773577 141.0276947 0.12203121 C144.51036739 0.74632907 145.68946502 1.88431725 147.85131836 4.62818909 C148.57936787 7.36908137 148.42575077 9.85840115 147.85131836 12.62818909 C145.64391155 15.59677065 144.36534463 16.456847 140.85131836 17.62818909 C138.9219019 17.72556669 136.98926807 17.76317174 135.05740356 17.76863098 C133.84886719 17.77434113 132.64033081 17.78005127 131.39517212 17.78593445 C130.05389415 17.78717978 128.71261606 17.78830488 127.37133789 17.7893219 C125.96030548 17.79395066 124.54927433 17.7989754 123.13824463 17.80436707 C119.30349859 17.81748659 115.46877005 17.82393502 111.63400507 17.82837772 C109.23839107 17.83130887 106.84278185 17.83541374 104.44717026 17.8398819 C96.95231115 17.853555 89.45746297 17.86322285 81.96259224 17.86708379 C73.30980603 17.87156571 64.65717768 17.88912053 56.00443947 17.91808438 C49.31645481 17.93969481 42.62851458 17.94978771 35.94049537 17.95112491 C31.94576377 17.9521733 27.95118061 17.95808842 23.95648575 17.97594452 C20.19883966 17.99241447 16.44145379 17.99458608 12.68378448 17.98580551 C11.30552601 17.98503458 9.9272536 17.98938529 8.5490303 17.99926376 C6.66579616 18.01196918 4.78245763 18.00431984 2.89920044 17.99568176 C1.84580034 17.99714832 0.79240025 17.99861488 -0.29292107 18.00012589 C-4.54862507 17.44585921 -7.15632 15.62055073 -10.14868164 12.62818909 C-10.59932003 8.64755001 -10.61542345 6.39450255 -8.50953674 2.93698215 C-5.51038566 0.00396893 -4.14370559 0.00221413 0 0 Z " fill="#000000" transform="translate(236.148681640625,83.37181091308594)"/>
<path d="M0 0 C1.27827164 -0.00503792 1.27827164 -0.00503792 2.58236694 -0.01017761 C5.40925541 -0.01970345 8.23608475 -0.0216316 11.06298828 -0.02270508 C13.0235293 -0.02591671 14.98407008 -0.02928071 16.9446106 -0.03279114 C21.05878251 -0.03878663 25.1729334 -0.04063063 29.28710938 -0.04003906 C34.56215308 -0.03993746 39.83706212 -0.05358593 45.1120739 -0.07081127 C49.16293966 -0.08192379 53.21377281 -0.08395849 57.26465225 -0.08342934 C59.20952951 -0.08461073 61.15440757 -0.08904138 63.09926987 -0.0967617 C65.81888026 -0.10654571 68.53819751 -0.10368974 71.2578125 -0.09765625 C72.0631543 -0.10327576 72.86849609 -0.10889526 73.69824219 -0.11468506 C80.74002859 -0.07493465 80.74002859 -0.07493465 83.75830078 2.14526367 C86.25861733 5.89573849 86.29433632 7.70382633 85.75830078 12.14526367 C83.78856836 14.81682861 82.20387666 16.79111761 78.87524414 17.60658646 C76.57266213 17.7968088 74.3186389 17.82090163 72.00830078 17.79223633 C70.70252075 17.80537872 70.70252075 17.80537872 69.37036133 17.81878662 C66.49916414 17.84075362 63.62951302 17.82623767 60.75830078 17.80932617 C58.75959986 17.81269509 56.76090094 17.81754833 54.76220703 17.82382202 C50.57581046 17.83118969 46.38994774 17.82049108 42.20361328 17.79711914 C36.83981839 17.76863161 31.47727439 17.78503612 26.11352539 17.81498146 C21.98704621 17.83305717 17.86086315 17.82729511 13.734375 17.8143425 C11.75683443 17.81100925 9.77926689 17.8150927 7.80175781 17.82674026 C5.03654875 17.83945341 2.27335954 17.82006605 -0.49169922 17.79223633 C-1.71530151 17.80741806 -1.71530151 17.80741806 -2.96362305 17.82290649 C-7.17708826 17.74442258 -8.79999109 17.48519649 -12.25341797 14.82748413 C-14.24169922 12.14526367 -14.24169922 12.14526367 -14.80419922 8.58276367 C-14.16298733 4.66424656 -13.34670703 3.51968141 -10.24169922 1.14526367 C-7.02896442 -0.46110373 -3.5292111 -0.00197604 0 0 Z " fill="#000000" transform="translate(240.24169921875,119.854736328125)"/>
<path d="M0 0 C0.87269531 -0.00241196 1.74539063 -0.00482391 2.64453125 -0.00730896 C4.48702546 -0.00633079 6.32954916 0.0070557 8.171875 0.03198242 C10.99059984 0.06629183 13.80618937 0.0526415 16.625 0.03320312 C18.41668 0.04010175 20.20835191 0.04977429 22 0.0625 C22.84175781 0.05754013 23.68351562 0.05258026 24.55078125 0.04747009 C30.38552412 0.16478716 30.38552412 0.16478716 33.52929688 2.53930664 C35.57242275 5.44221408 35.57048673 7.27707138 35.390625 10.7265625 C34.78078578 13.69647951 33.44436955 14.93142739 31 16.62890625 C25.43817639 18.56160178 19.12452637 17.81485041 13.30102539 17.81420898 C11.07353608 17.81639542 8.84654242 17.83457053 6.61914062 17.85351562 C5.19531418 17.85645003 3.7714854 17.85843451 2.34765625 17.859375 C0.41418335 17.86553833 0.41418335 17.86553833 -1.55834961 17.87182617 C-5.5987577 17.5866445 -8.44463827 16.64793635 -11.8125 14.44140625 C-13.76962553 11.45421465 -13.41874237 9.09848589 -13 5.62890625 C-9.76267465 -0.3099671 -6.15428034 -0.09693374 0 0 Z " fill="#000000" transform="translate(353,427.37109375)"/>
<path d="M0 0 C1.82144531 -0.02513672 1.82144531 -0.02513672 3.6796875 -0.05078125 C7.3451773 0.33571597 9.21201875 1.10357879 12.125 3.3125 C13.69435594 6.45121188 13.47701103 8.85105822 13.125 12.3125 C10.35633951 16.00761748 8.88365532 17.18849644 4.27734375 17.94140625 C2.87222702 17.94535691 1.46681493 17.92262571 0.0625 17.875 C-0.64455078 17.88595703 -1.35160156 17.89691406 -2.08007812 17.90820312 C-5.54397647 17.85941582 -7.52722974 17.57667164 -10.3125 15.4609375 C-12.35379374 12.6541586 -12.80426825 10.77835593 -12.875 7.3125 C-10.00141078 0.99060371 -6.6633238 0.02113105 0 0 Z " fill="#000000" transform="translate(341.875,119.6875)"/>
<path d="M0 0 C0.7115625 -0.01546875 1.423125 -0.0309375 2.15625 -0.046875 C5.60314984 -0.02115187 7.64752229 0.24568064 10.46875 2.28125 C12.53166958 5.27037837 12.57472029 7.06697163 12.390625 10.59765625 C11.78078578 13.56757326 10.44436955 14.80252114 8 16.5 C2.47978165 18.22073752 -3.02085803 18.21968799 -8.4375 16.25 C-11.13704062 14.40641128 -12.19149026 13.64420456 -13 10.5 C-12.85821982 7.09727577 -12.44483819 5.11696151 -10.4453125 2.34375 C-7.07617364 -0.19655917 -4.05136956 -0.08807325 0 0 Z " fill="#000000" transform="translate(319,427.5)"/>
</svg>
