<?xml version="1.0" encoding="UTF-8"?>
<svg version="1.1" xmlns="http://www.w3.org/2000/svg" width="512" height="512">
<path d="M0 0 C18.12740976 15.06268382 30.64609072 35.62613629 33.59423828 59.32470703 C34.68873809 80.35935595 32.48452594 100.43218903 20.97460938 118.57299805 C20.5278183 119.27965103 20.08102722 119.98630402 19.62069702 120.71437073 C19.28196564 121.24578171 18.94323425 121.77719269 18.59423828 122.32470703 C19.78573486 122.26412109 20.97723145 122.20353516 22.20483398 122.14111328 C61.98171625 120.13841968 61.98171625 120.13841968 78.09423828 119.94970703 C79.61658081 119.91103516 79.61658081 119.91103516 81.16967773 119.87158203 C93.44709432 119.83843062 103.4723382 124.24036904 112.59423828 132.32470703 C120.94535677 140.80211843 125.59920297 152.06549438 125.84423828 163.94970703 C125.67586915 176.39031507 121.050416 187.31297535 112.66455078 196.40673828 C105.46072309 203.08047299 97.97630659 206.00828808 88.59423828 208.32470703 C88.71541016 209.07341064 88.83658203 209.82211426 88.96142578 210.59350586 C96.48497086 257.82907083 96.48497086 257.82907083 83.50830078 276.82470703 C79.26697521 282.36439758 74.75589796 286.60291341 68.9453125 290.4465332 C68.13150116 290.98581955 67.31768982 291.5251059 66.47921753 292.08073425 C65.85717438 292.49124527 65.23513123 292.90175629 64.59423828 293.32470703 C64.73204712 294.58401031 64.86985596 295.8433136 65.01184082 297.14077759 C66.31471877 309.05564991 67.60962854 320.97136534 68.89690399 332.88793373 C69.5588268 339.01313003 70.22347422 345.13800417 70.89453125 351.26220703 C71.54301243 357.18133141 72.1840975 363.10121582 72.82023621 369.02167892 C73.06321886 371.27117398 73.30878706 373.52039142 73.55708313 375.76930618 C77.63343859 412.73944876 77.63343859 412.73944876 69.67626953 424.05126953 C63.95303545 430.91915043 57.39890901 435.44598398 48.59423828 437.32470703 C47.11832007 437.41378191 45.63897638 437.45372616 44.16037464 437.4561348 C42.82958007 437.46189651 42.82958007 437.46189651 41.47190076 437.46777463 C40.50139034 437.46690815 39.53087991 437.46604167 38.53096008 437.46514893 C36.97952522 437.46960561 36.97952522 437.46960561 35.39674824 437.47415233 C31.92000828 437.48284585 28.44330272 437.48434814 24.96655273 437.48583984 C22.4781334 437.49046757 19.98971479 437.49549217 17.501297 437.50088501 C10.73254908 437.51401584 3.96381465 437.52049211 -2.80494285 437.52489567 C-7.03298108 437.52765958 -11.26101703 437.53189723 -15.48905373 437.53639984 C-27.19951452 437.54859216 -38.90997348 437.55889118 -50.62044048 437.56227493 C-51.3698092 437.5624945 -52.11917791 437.56271407 -52.89125477 437.56294028 C-54.01797265 437.5632677 -54.01797265 437.5632677 -55.16745251 437.56360173 C-56.68951587 437.5640452 -58.21157922 437.56449176 -59.73364258 437.56494141 C-60.48863593 437.56516284 -61.24362928 437.56538427 -62.02150122 437.56561241 C-74.24986245 437.5695588 -86.47816403 437.58700815 -98.70650222 437.61030093 C-111.26676252 437.63403243 -123.82699292 437.64647762 -136.38727599 437.64764285 C-143.43711299 437.64855866 -150.48687229 437.65428716 -157.53668785 437.67246246 C-164.16949061 437.68950256 -170.8021721 437.69110261 -177.43499947 437.68232346 C-179.86780059 437.68155262 -182.30060962 437.68590186 -184.73339081 437.69578171 C-188.05829109 437.70849126 -191.3826685 437.70262928 -194.70756531 437.69219971 C-195.66692212 437.70025611 -196.62627894 437.70831252 -197.61470717 437.71661305 C-207.55121038 437.64387649 -215.74535162 434.7155953 -223.40576172 428.32470703 C-230.77807272 420.56691572 -233.32302717 411.8753228 -233.40576172 401.32470703 C-232.82950348 395.53268179 -231.86161847 389.82500855 -230.87841797 384.09033203 C-230.60659754 382.44152622 -230.33614985 380.79249359 -230.06700134 379.14324951 C-229.36015636 374.83026834 -228.63810064 370.51998863 -227.91168213 366.21026611 C-226.74919901 359.3008121 -225.60786769 352.38786321 -224.47088432 345.4741745 C-224.07322786 343.07199001 -223.66764748 340.67124573 -223.26100159 338.27056885 C-223.01484116 336.7902798 -222.76889384 335.3099553 -222.52319336 333.82958984 C-222.30699844 332.54594543 -222.09080353 331.26230103 -221.86805725 329.9397583 C-221.40789479 326.34138722 -221.23191602 322.94760827 -221.40576172 319.32470703 C-222.62492723 317.65951516 -222.62492723 317.65951516 -224.46826172 316.63720703 C-231.67611365 311.17271766 -236.03923202 302.16030027 -237.40576172 293.32470703 C-238.73889678 276.3073654 -238.58580682 260.10350354 -227.40576172 246.32470703 C-226.65359375 245.38691406 -226.65359375 245.38691406 -225.88623047 244.43017578 C-221.09801355 239.08275105 -215.0217217 235.96528755 -208.40576172 233.32470703 C-207.41576172 233.32470703 -206.42576172 233.32470703 -205.40576172 233.32470703 C-205.36112793 232.69886719 -205.31649414 232.07302734 -205.27050781 231.42822266 C-204.63271724 223.47527653 -203.40132464 215.68096946 -202.03076172 207.82470703 C-201.82193359 206.58333984 -201.61310547 205.34197266 -201.39794922 204.06298828 C-200.12265649 196.68339802 -198.54074093 189.50415228 -196.40576172 182.32470703 C-197.78634766 181.92251953 -197.78634766 181.92251953 -199.19482422 181.51220703 C-212.96083763 177.32318843 -224.59016636 170.94470086 -235.40576172 161.32470703 C-236.16373047 160.66083984 -236.92169922 159.99697266 -237.70263672 159.31298828 C-254.59831387 143.55339976 -263.29476021 120.76723339 -264.59326172 98.04345703 C-265.10569102 71.65334781 -255.26213746 48.68941701 -237.21826172 29.63720703 C-218.79523332 11.85386712 -195.83711545 4.76537977 -170.65966797 4.83447266 C-154.6825421 5.19718703 -141.23994582 9.49361097 -127.40576172 17.32470703 C-127.12216797 16.72787109 -126.83857422 16.13103516 -126.54638672 15.51611328 C-119.19762316 1.39742712 -100.62712831 -9.32426491 -85.92529297 -14.24169922 C-56.58643081 -23.38831785 -24.44234197 -19.38162632 0 0 Z M-105.40576172 17.32470703 C-106.10185547 17.92798828 -106.79794922 18.53126953 -107.51513672 19.15283203 C-121.91895207 32.44007254 -128.33888204 51.35455074 -129.36669922 70.42626953 C-129.57310803 91.02586933 -121.0931007 109.04237612 -107.07373047 123.70751953 C-104.86908351 125.87020396 -102.68036503 127.72688102 -100.21826172 129.57470703 C-96.94992033 132.77041861 -96.94992033 132.77041861 -96.78076172 136.51220703 C-97.40576172 140.32470703 -97.40576172 140.32470703 -98.71826172 142.26220703 C-102.24489773 144.48268155 -105.59703921 144.47755379 -109.66235352 144.61401367 C-129.58022334 145.29855027 -147.28416182 149.64924766 -162.40576172 163.32470703 C-163.01548828 163.85451172 -163.62521484 164.38431641 -164.25341797 164.93017578 C-169.38879396 169.68180939 -172.95503426 175.27559007 -176.40576172 181.32470703 C-176.87111328 182.13294922 -177.33646484 182.94119141 -177.81591797 183.77392578 C-185.09464764 197.95298022 -186.07972378 215.74730147 -188.40576172 231.32470703 C-187.59494141 231.53224609 -186.78412109 231.73978516 -185.94873047 231.95361328 C-172.45143698 235.70897201 -163.69595263 241.18035951 -156.40576172 253.32470703 C-152.07062042 261.39078875 -152.16588379 269.43532606 -152.09326172 278.38720703 C-152.04975586 280.13420898 -152.04975586 280.13420898 -152.00537109 281.91650391 C-151.9151129 294.37907699 -155.12166517 304.85716812 -163.40576172 314.32470703 C-171.57870575 322.37191347 -182.36983068 327.09589351 -193.83544922 327.42236328 C-195.54087891 327.40496094 -195.54087891 327.40496094 -197.28076172 327.38720703 C-198.43318359 327.37818359 -199.58560547 327.36916016 -200.77294922 327.35986328 C-201.64177734 327.34826172 -202.51060547 327.33666016 -203.40576172 327.32470703 C-204.790672 331.94118175 -205.86947721 336.45797104 -206.67431641 341.21875 C-206.84050728 342.19346252 -206.84050728 342.19346252 -207.01005554 343.18786621 C-207.37076022 345.31342664 -207.72494894 347.43998997 -208.07763672 349.56689453 C-208.19965706 350.29945591 -208.3216774 351.03201729 -208.44739532 351.7867775 C-209.09199911 355.66075192 -209.73118128 359.53557805 -210.36621094 363.41113281 C-211.01990729 367.3932644 -211.69322653 371.37181632 -212.37098312 375.34991264 C-212.89185179 378.42977343 -213.39758861 381.51198606 -213.89939117 384.59500504 C-214.14090937 386.06221839 -214.38807089 387.52851528 -214.6411972 388.9937706 C-216.88704634 401.64415421 -216.88704634 401.64415421 -213.07373047 413.66455078 C-212.34089844 414.45539063 -212.34089844 414.45539063 -211.59326172 415.26220703 C-210.87203125 416.08011719 -210.87203125 416.08011719 -210.13623047 416.91455078 C-205.84189263 420.4139999 -201.30613634 420.61053621 -195.97099304 420.56521606 C-194.86202572 420.56777934 -194.86202572 420.56777934 -193.73065501 420.5703944 C-191.25856984 420.57368313 -188.78675735 420.56269586 -186.31469727 420.55175781 C-184.54058336 420.55119357 -182.76646898 420.55151052 -180.99235535 420.55264282 C-176.17871444 420.55321681 -171.36517315 420.54145504 -166.5515554 420.52749491 C-161.52003722 420.51499522 -156.48851678 420.51381765 -151.45698547 420.51144409 C-141.93023475 420.50522709 -132.40352992 420.48881327 -122.8767994 420.46874511 C-112.03046336 420.44639299 -101.18412512 420.43539441 -90.33777177 420.42535424 C-68.02707631 420.40444725 -45.71642159 420.36926697 -23.40576172 420.32470703 C-22.25638435 416.08990982 -21.97099121 411.85010986 -21.6496582 407.48876953 C-21.58123718 406.5972821 -21.51281616 405.70579468 -21.44232178 404.78729248 C-21.21713224 401.84167596 -20.99691414 398.89571096 -20.77685547 395.94970703 C-20.62160142 393.90232414 -20.46608532 391.8549611 -20.31031799 389.80761719 C-19.98461708 385.51724752 -19.66121862 381.22671271 -19.33959961 376.93603516 C-18.92714992 371.43439989 -18.51035471 365.93310507 -18.09200954 360.43191528 C-17.77077437 356.20444093 -17.45115545 351.97684571 -17.13209724 347.74920654 C-16.97893255 345.72057532 -16.82542426 343.69197 -16.67156792 341.66339111 C-16.4569957 338.82925547 -16.24443244 335.99497645 -16.0324707 333.16064453 C-15.96858658 332.32104187 -15.90470245 331.48143921 -15.83888245 330.61639404 C-15.58310994 327.17151269 -15.40576172 323.78130013 -15.40576172 320.32470703 C-16.66388672 320.65470703 -17.92201172 320.98470703 -19.21826172 321.32470703 C-34.02063918 324.2345761 -47.95591351 323.39457775 -60.71826172 315.01220703 C-69.4596989 308.48379192 -75.86194527 299.57636195 -78.12060547 288.69970703 C-79.73582603 275.24691108 -78.22215578 262.41917357 -70.01123047 251.30908203 C-69.48142578 250.65423828 -68.95162109 249.99939453 -68.40576172 249.32470703 C-67.92751953 248.71111328 -67.44927734 248.09751953 -66.95654297 247.46533203 C-56.51872211 235.58146546 -37.64036178 231.84415015 -23.21826172 227.26220703 C-20.89506673 226.51487051 -18.57223636 225.76639966 -16.24975586 225.0168457 C-11.54529454 223.49993281 -6.83911199 221.98856339 -2.13134766 220.48193359 C3.93665389 218.53838643 9.99784088 216.57466021 16.05517578 214.59814453 C17.39331329 214.16160553 17.39331329 214.16160553 18.75848389 213.71624756 C21.39135968 212.8569476 24.02407546 211.99715922 26.65673828 211.13720703 C36.59962964 207.88961353 46.54497506 204.65188423 56.51325989 201.48292542 C60.48222665 200.22007872 64.44858933 198.94916504 68.4147644 197.67758179 C70.30127533 197.07525175 72.18904711 196.47685423 74.07815552 195.88272095 C76.69487817 195.059527 79.30693612 194.22282636 81.91845703 193.38330078 C82.68106842 193.14737213 83.44367981 192.91144348 84.22940063 192.66836548 C93.05122102 189.79834733 100.40020661 185.1363114 105.59423828 177.32470703 C109.22474661 169.81417089 109.43792335 162.00525022 106.87158203 154.09814453 C103.39998451 146.31335008 97.83099288 141.51736408 90.12849426 138.184021 C85.90580113 136.7521928 81.9486305 136.82683354 77.52783203 136.94970703 C75.96155312 136.97121826 75.96155312 136.97121826 74.3636322 136.99316406 C55.53134472 137.34584238 36.70318935 138.33022247 17.88842773 139.17895508 C9.35449251 139.56384284 0.82034753 139.9436237 -7.71414375 140.315979 C-10.65073513 140.44552198 -13.58707163 140.57997003 -16.52342224 140.71484375 C-25.20632148 141.10355184 -33.87968974 141.40828957 -42.57202148 141.44189453 C-43.32223289 141.44698029 -44.07244429 141.45206604 -44.84538937 141.45730591 C-47.97287451 141.45105375 -50.41574755 141.32137842 -53.40576172 140.32470703 C-53.71132398 138.93606269 -53.9737698 137.53789439 -54.21826172 136.13720703 C-54.36908203 135.35990234 -54.51990234 134.58259766 -54.67529297 133.78173828 C-54.40576172 131.32470703 -54.40576172 131.32470703 -52.46899414 128.72241211 C-48.3157578 125.47152073 -45.26232259 125.5556323 -40.12451172 125.50439453 C-38.78785461 125.45909103 -38.78785461 125.45909103 -37.42419434 125.41287231 C-34.5848458 125.31910382 -31.74606254 125.25700417 -28.90576172 125.19970703 C-26.06580807 125.13182545 -23.22661658 125.05683365 -20.3873291 124.96511841 C-18.6236559 124.9091291 -16.85946369 124.86722471 -15.09509277 124.84127808 C-9.39714379 124.67355285 -6.01151299 123.6493885 -1.66748047 119.77392578 C7.01862403 110.05324804 12.52114178 98.94697346 15.59423828 86.32470703 C15.78501953 85.58091797 15.97580078 84.83712891 16.17236328 84.07080078 C19.22373061 64.20865976 15.05901045 44.78648537 3.45751953 28.28564453 C-7.24467181 14.72580001 -20.75110883 5.17062441 -37.40576172 0.32470703 C-38.15470703 0.10041016 -38.90365234 -0.12388672 -39.67529297 -0.35498047 C-63.17266081 -6.19930024 -87.7262879 1.37609079 -105.40576172 17.32470703 Z M-226.40576172 43.32470703 C-238.34320365 55.49394395 -246.33695191 72.22375011 -247.40576172 89.32470703 C-247.48503906 90.50033203 -247.48503906 90.50033203 -247.56591797 91.69970703 C-248.20125757 110.26267268 -241.99022418 126.93831158 -230.40576172 141.32470703 C-229.93654297 141.95763672 -229.46732422 142.59056641 -228.98388672 143.24267578 C-219.50258309 155.42893956 -203.45302672 164.03578392 -188.28466797 166.13330078 C-187.66462891 166.19646484 -187.04458984 166.25962891 -186.40576172 166.32470703 C-186.03064453 165.81681641 -185.65552734 165.30892578 -185.26904297 164.78564453 C-183.66063616 162.62219558 -182.03447859 160.47289475 -180.40576172 158.32470703 C-179.66326172 157.33470703 -178.92076172 156.34470703 -178.15576172 155.32470703 C-165.11313125 140.10144749 -144.7846176 132.0240487 -125.40576172 129.32470703 C-127.1827139 126.12619311 -128.94784904 122.99217298 -131.01904297 119.97314453 C-144.01027063 100.90398109 -148.006813 76.92887279 -143.85058594 54.35693359 C-142.76221259 49.38458468 -141.16822801 44.56323151 -139.52685547 39.75048828 C-138.60352294 36.92901572 -137.90269283 34.24487522 -137.40576172 31.32470703 C-149.48724939 25.51283234 -149.48724939 25.51283234 -162.40576172 22.32470703 C-163.36353516 22.19322266 -164.32130859 22.06173828 -165.30810547 21.92626953 C-188.59762475 19.3855947 -209.43182527 27.64497102 -226.40576172 43.32470703 Z M63.89916992 216.12207031 C62.69528122 216.5178125 61.49139252 216.91355469 60.25102234 217.32128906 C58.91880156 217.76249779 57.58659264 218.20374236 56.25439453 218.64501953 C54.87129236 219.10070189 53.4880965 219.5561 52.10481262 220.01123047 C48.38985886 221.23427773 44.67605783 222.46078975 40.96248627 223.68802643 C34.8297065 225.7139284 28.69501043 227.73402775 22.56058502 229.75494003 C21.02536067 230.26076403 19.49017915 230.766718 17.95503998 231.27280045 C8.27707422 234.46318059 -1.40703096 237.632957 -11.10498047 240.76220703 C-12.10655685 241.08583221 -13.10813324 241.4094574 -14.14006042 241.7428894 C-17.81613133 242.93024708 -21.49220307 244.11747868 -25.17160034 245.29449463 C-46.26855301 251.44728876 -46.26855301 251.44728876 -60.46044922 267.17626953 C-63.56161032 274.22436295 -63.43601186 282.30043681 -60.90576172 289.51220703 C-57.8330722 296.2936867 -52.84200496 301.33026464 -46.28076172 304.82470703 C-35.09035479 308.93873457 -23.81308248 305.79806521 -13.03076172 302.01220703 C-11.69160017 301.55876856 -10.35182096 301.10715074 -9.01147461 300.65722656 C-5.50848227 299.47567 -2.01476823 298.26875047 1.4776001 297.05621338 C4.96268014 295.85177599 8.45665825 294.67375535 11.94970703 293.49267578 C17.9975992 291.44334503 24.03315128 289.3606353 30.06062317 287.25202942 C34.09237064 285.842625 38.13335812 284.46358958 42.18017578 283.09814453 C44.13102405 282.42461302 46.0815683 281.75019996 48.03173828 281.07470703 C49.30803101 280.65390869 49.30803101 280.65390869 50.61010742 280.22460938 C60.5607464 276.71380128 67.55289984 270.55100271 72.59423828 261.32470703 C72.93455078 260.72271484 73.27486328 260.12072266 73.62548828 259.50048828 C79.26262014 247.46938742 75.68432167 226.59495719 71.59423828 214.32470703 C68.79774489 214.32470703 66.55762821 215.24456626 63.89916992 216.12207031 Z M-214.40576172 257.32470703 C-219.57642374 265.14375692 -220.62212783 271.2897622 -220.71826172 280.51220703 C-220.74726563 281.42035156 -220.77626953 282.32849609 -220.80615234 283.26416016 C-220.87837015 291.02479653 -219.10525178 297.02533029 -214.15576172 303.07470703 C-209.48041613 306.89998978 -204.61514622 310.84706207 -198.40576172 311.32470703 C-197.33326172 311.40720703 -196.26076172 311.48970703 -195.15576172 311.57470703 C-186.41144679 310.9917527 -181.20715596 307.81675414 -174.66748047 302.06689453 C-168.79277042 294.94418909 -167.74189351 287.92090307 -167.84326172 278.88720703 C-167.81941406 277.91460937 -167.79556641 276.94201172 -167.77099609 275.93994141 C-167.78678791 268.05982389 -169.75366646 261.33893852 -175.14648438 255.41137695 C-181.43239415 249.54897261 -187.92141027 247.73982487 -196.40576172 247.97314453 C-203.55103146 248.81048083 -209.40433407 252.20961057 -214.40576172 257.32470703 Z M40.4140625 300.59399414 C39.5766452 300.87105698 38.73922791 301.14811981 37.87643433 301.43357849 C36.5263176 301.88822227 36.5263176 301.88822227 35.14892578 302.35205078 C34.22330841 302.66042374 33.29769104 302.96879669 32.34402466 303.28651428 C30.38813341 303.93925826 28.43298063 304.59421854 26.47851562 305.2512207 C23.47599562 306.25993686 20.47088511 307.2606161 17.46533203 308.26025391 C15.56803752 308.89454384 13.67089671 309.52929375 11.77392578 310.16455078 C10.41773636 310.61615822 10.41773636 310.61615822 9.03414917 311.07688904 C8.20303619 311.35710403 7.37192322 311.63731903 6.515625 311.92602539 C5.78076874 312.17251328 5.04591248 312.41900116 4.28878784 312.67295837 C2.58821289 313.19535275 2.58821289 313.19535275 1.59423828 314.32470703 C1.40276794 315.65523197 1.27339907 316.99478294 1.17027283 318.33505249 C1.10158493 319.19874954 1.03289703 320.06244659 0.96212769 320.95231628 C0.89091705 321.90713394 0.81970642 322.8619516 0.74633789 323.84570312 C0.629076 325.3456205 0.629076 325.3456205 0.50944519 326.87583923 C0.25074003 330.19961534 -0.00139361 333.5238557 -0.25341797 336.84814453 C-0.43098461 339.14884217 -0.60892192 341.44951122 -0.78721619 343.75015259 C-1.16063121 348.5804603 -1.5310748 353.41098323 -1.89916992 358.24169922 C-2.37164053 364.44194857 -2.84904208 370.64180472 -3.32836246 376.84152794 C-3.78417711 382.73944163 -4.23769535 388.63753117 -4.69091797 394.53564453 C-4.77798571 395.66663952 -4.86505344 396.79763451 -4.9547596 397.96290207 C-5.20018403 401.15681396 -5.44399634 404.35084446 -5.68725586 407.54492188 C-5.76049072 408.49569107 -5.83372559 409.44646027 -5.90917969 410.42604065 C-5.97504776 411.29537735 -6.04091583 412.16471405 -6.10877991 413.06039429 C-6.16647584 413.81588751 -6.22417177 414.57138073 -6.28361607 415.34976768 C-6.38601433 417.00541702 -6.40576172 418.66589417 -6.40576172 420.32470703 C0.99558083 420.45187291 8.39663984 420.53921223 15.79882812 420.59936523 C18.31488575 420.62445136 20.83087091 420.65852828 23.34667969 420.7019043 C26.97104815 420.76281203 30.59444997 420.79097724 34.21923828 420.81298828 C35.3372583 420.83879471 36.45527832 420.86460114 37.60717773 420.89118958 C44.51956713 420.89365116 49.32496382 419.99467991 54.59423828 415.32470703 C58.65312864 410.91210379 58.86385079 406.72592985 58.77902222 400.94818115 C58.3548549 392.63057884 57.35217893 384.3581842 56.44189453 376.08251953 C56.21964142 374.02518447 55.99784211 371.96780034 55.776474 369.91036987 C55.31347102 365.61839679 54.84663117 361.32686545 54.37670898 357.03564453 C53.7748131 351.53853298 53.18007999 346.04067698 52.58788395 340.54251289 C52.13086124 336.30269397 51.67134229 332.06314881 51.21093559 327.82369614 C50.9907831 325.79596991 50.77110989 323.76819158 50.55192757 321.74036026 C50.24554183 318.91160582 49.93610408 316.08320233 49.62573242 313.25488281 C49.53582031 312.420522 49.4459082 311.58616119 49.35327148 310.72651672 C48.92792334 306.87924864 48.44264633 303.10742453 47.59423828 299.32470703 C44.73321029 299.32470703 43.08462828 299.70304472 40.4140625 300.59399414 Z " fill="#000000" transform="translate(325.40576171875,46.67529296875)"/>
</svg>
