<?xml version="1.0" encoding="UTF-8"?>
<svg version="1.1" xmlns="http://www.w3.org/2000/svg" width="1024" height="1024">
<path d="M0 0 C337.92 0 675.84 0 1024 0 C1024 337.92 1024 675.84 1024 1024 C686.08 1024 348.16 1024 0 1024 C0 686.08 0 348.16 0 0 Z " fill="#FEFEFE" transform="translate(0,0)"/>
<path d="M0 0 C0.66 0 1.32 0 2 0 C3.80654279 17.35797058 3.80654279 17.35797058 -0.23828125 23.2734375 C-3.05924197 25.69358513 -5.9713826 27.84863729 -9 30 C-15.01707042 36.18794057 -18.48869238 44.05735966 -19.375 52.625 C-18.41220412 61.29016295 -16.39659362 67.04250823 -11 74 C-10.44570312 74.73089844 -9.89140625 75.46179688 -9.3203125 76.21484375 C8.29386173 97.72227966 40.20322655 109.50611606 65.921875 117.36083984 C68.37062686 118.11399214 70.80966544 118.8957954 73.25 119.67578125 C85.44178684 123.5291601 97.6604509 126.80276939 110.17773438 129.41162109 C112.04256999 129.80039738 113.90590928 130.19642952 115.76757812 130.60009766 C146.14087781 137.15916845 177.519709 141.25788749 208.55444336 142.7980957 C211 143 211 143 213.6547699 143.50254822 C217.44310222 144.06589143 221.14959696 144.1552763 224.96923828 144.16113281 C225.74887341 144.16601274 226.52850855 144.17089268 227.33176899 144.17592049 C229.91128949 144.1902952 232.49075983 144.19710661 235.0703125 144.203125 C236.89274632 144.21016684 238.71517979 144.21729957 240.53761292 144.22451782 C246.40007872 144.2442813 252.2625041 144.24921252 258.125 144.25 C259.61569693 144.25044186 259.61569693 144.25044186 261.13650894 144.25089264 C304.64261875 144.27086202 304.64261875 144.27086202 348 141 C348.88516296 140.90054077 349.77032593 140.80108154 350.68231201 140.6986084 C374.93657339 137.94467336 398.87704627 134.0855743 422.69433594 128.74023438 C425.40953496 128.1322223 428.12714315 127.54903384 430.8515625 126.984375 C451.73385539 122.5412281 472.47232492 115.5869281 492 107 C492.80083008 106.64969727 493.60166016 106.29939453 494.42675781 105.93847656 C514.34169093 97.12522783 538.29261789 85.19499705 547.9375 64.3125 C550.54818129 56.00128045 550.1157712 47.3876828 546.375 39.5625 C544.95371837 36.91921698 543.59336762 34.59308479 541.46337891 32.46411133 C538.07894611 29.06216077 536.60713063 26.81932239 536.4140625 21.94140625 C536.45348917 20.14749256 536.52439604 18.35402439 536.625 16.5625 C536.65207031 15.64017578 536.67914062 14.71785156 536.70703125 13.76757812 C536.77723881 11.5092348 536.87547106 9.25588963 537 7 C549.14706193 12.91317635 559.24756253 24.3186254 564 37 C567.62192653 47.68205869 567.82770093 61.65738093 563 72 C551.46448596 95.32112052 529.64894151 108.15056976 506.96582031 119.04736328 C505.13102442 119.93650555 503.31093452 120.85581826 501.4921875 121.77734375 C490.98458244 126.96062544 480.027133 130.52442 468.87744141 134.07421875 C466.34950522 134.88755101 463.83556612 135.73090207 461.32421875 136.59375 C406.29615814 155.22794656 344.10975749 161.10158179 286.33874512 161.9642334 C284.66496405 161.98983066 282.99121945 162.01785737 281.31750488 162.04748535 C254.42337321 162.52077869 227.7060786 162.21301423 200.875 160.1875 C199.76199524 160.10472809 198.64899048 160.02195618 197.5022583 159.93667603 C184.31429026 158.93338484 171.29086666 157.4644214 158.23547363 155.35366821 C154.80220151 154.81049955 151.36100719 154.33686265 147.91796875 153.859375 C95.89279295 146.47169402 36.85728295 134.08992102 -6 102 C-7.0003125 101.25105469 -8.000625 100.50210938 -9.03125 99.73046875 C-22.39044568 89.2523084 -32.56283131 76.93481428 -36 60 C-37.45955701 46.58101156 -33.93295498 34.84777768 -26 24 C-18.70232839 14.94796326 -10.26626443 7.95622386 -1 1 C-0.67 0.67 -0.34 0.34 0 0 Z " fill="#538D8A" transform="translate(264,580)"/>
<path d="M0 0 C10.24564257 8.65393641 18.41175377 21.52265101 20.33984375 35 C21.59390193 51.26715215 20.08667224 66.97650853 9.33984375 80 C8.68113281 80.83015625 8.02242187 81.6603125 7.34375 82.515625 C-1.34350628 92.85980895 -13.10321325 100.28737556 -26.66015625 102 C-44.9856075 103.19392149 -59.36899591 100.18886132 -73.66015625 88 C-79.9368308 81.36865035 -84.49840936 74.56210289 -87.66015625 66 C-88.04747925 65.04782593 -88.04747925 65.04782593 -88.44262695 64.07641602 C-90.83512197 57.75628309 -91.16491472 51.90487303 -91.09765625 45.1875 C-91.08935791 44.12305664 -91.08105957 43.05861328 -91.07250977 41.96191406 C-90.90859934 34.35320363 -90.15276105 27.86084384 -86.66015625 21 C-86.17417969 20.00226563 -85.68820312 19.00453125 -85.1875 17.9765625 C-77.98701935 4.46076666 -66.71680813 -5.31444937 -52.1796875 -10.16015625 C-33.31866437 -14.74221272 -15.57565152 -11.71032831 0 0 Z " fill="#FCFDFD" transform="translate(720.66015625,335)"/>
<path d="M0 0 C0.84046875 0.4125 1.6809375 0.825 2.546875 1.25 C17.10639841 9.20800037 25.94441676 20.89955571 31.5 36.25 C35.95645188 52.69690535 32.74841618 68.68983754 24.75 83.4375 C21.21541797 89.09283124 17.00482716 93.61964494 12 98 C11.48308594 98.47953125 10.96617187 98.9590625 10.43359375 99.453125 C-0.39935976 108.39101876 -16.51972828 110.81372939 -30 110 C-45.42055839 107.85058713 -58.52011415 99.19236635 -68.25 87.25 C-77.61028493 73.95414072 -80.37663483 59.8760412 -79 44 C-76.28879308 28.64162899 -68.6641276 15.59938817 -56.3671875 5.9296875 C-53.64788077 4.09831766 -50.90358353 2.52092471 -48 1 C-47.08347656 0.49339844 -46.16695313 -0.01320313 -45.22265625 -0.53515625 C-31.9880776 -6.7785383 -13.04224082 -6.56213375 0 0 Z " fill="#518D8A" transform="translate(403,356)"/>
<path d="M0 0 C9.7127579 8.05481914 15.1866608 16.7362791 19.74609375 28.27734375 C20.13023437 29.19902344 20.514375 30.12070312 20.91015625 31.0703125 C24.83479914 46.12700322 21.83621848 63.0522881 14.62109375 76.52734375 C5.72769998 90.7491888 -7.02441837 99.00335602 -23.13964844 102.87011719 C-38.13127353 105.7576496 -52.91292731 101.97268944 -65.55859375 93.78515625 C-75.38463549 86.67912607 -81.9012197 77.49993316 -86.25390625 66.27734375 C-86.60582031 65.47039062 -86.95773437 64.6634375 -87.3203125 63.83203125 C-91.37220841 52.7444165 -91.10651781 36.01545206 -86.25390625 25.27734375 C-85.90199219 24.45363281 -85.55007813 23.62992187 -85.1875 22.78125 C-78.58748626 8.47032912 -67.83626861 -1.80490869 -53.25390625 -7.72265625 C-35.0632529 -14.28119113 -15.56706644 -11.34262508 0 0 Z " fill="#518C89" transform="translate(601.25390625,394.72265625)"/>
<path d="M0 0 C1.02738281 0.82371094 2.05476562 1.64742187 3.11328125 2.49609375 C4.02722656 3.22699219 4.94117188 3.95789063 5.8828125 4.7109375 C24.0378067 20.13292182 35.39290856 43.49249829 37.332901 67.17737579 C37.65690773 74.08668184 37.57420336 80.99580548 37.50390625 87.91015625 C37.49642495 90.10402912 37.49074098 92.29790877 37.48675537 94.49179077 C37.47164763 100.20295401 37.43249783 105.9136956 37.38793945 111.62469482 C37.34666207 117.47760315 37.32867573 123.33058112 37.30859375 129.18359375 C37.26598601 140.62127671 37.19791989 152.05864986 37.11328125 163.49609375 C35.21836119 163.83458027 33.32229659 164.16666286 31.42578125 164.49609375 C30.37003906 164.68171875 29.31429687 164.86734375 28.2265625 165.05859375 C25.46424063 165.44677449 22.89586082 165.57869351 20.11328125 165.49609375 C20.10781281 163.63259277 20.10781281 163.63259277 20.10223389 161.73144531 C20.06512379 149.96335965 20.00717771 138.19553179 19.92937851 126.42764282 C19.89004597 120.37916048 19.85778805 114.33082064 19.84228516 108.28222656 C19.82702452 102.43352655 19.79241374 96.58521867 19.74497223 90.73669434 C19.73025486 88.51708404 19.72224585 86.29741772 19.7213974 84.07775879 C19.70366271 60.92317151 16.18435601 41.31470286 0.11328125 23.49609375 C-0.47839844 22.81160156 -1.07007813 22.12710938 -1.6796875 21.421875 C-13.84869356 8.21500062 -32.98278125 -0.83625998 -50.90600586 -1.63916016 C-77.36777837 -2.42241526 -98.89880948 1.05346822 -118.88671875 19.49609375 C-119.54027344 20.06972656 -120.19382812 20.64335938 -120.8671875 21.234375 C-128.15842891 27.97837092 -132.67667709 36.60188925 -136.69921875 45.55859375 C-136.98925781 46.19466553 -137.27929688 46.8307373 -137.578125 47.48608398 C-141.39956754 56.34682856 -142.18495183 65.25895463 -142.20556641 74.82080078 C-142.21561203 75.90490738 -142.22565765 76.98901398 -142.23600769 78.10597229 C-142.266663 81.65527869 -142.28382559 85.20451027 -142.30078125 88.75390625 C-142.3195071 91.22826778 -142.33908155 93.70262302 -142.35946655 96.17697144 C-142.41064396 102.66398397 -142.4503466 109.15101717 -142.48760986 115.63812256 C-142.52773993 122.26791505 -142.5787911 128.89761977 -142.62890625 135.52734375 C-142.72549508 148.5168673 -142.80995418 161.50643897 -142.88671875 174.49609375 C-151.30171875 174.00109375 -151.30171875 174.00109375 -159.88671875 173.49609375 C-159.95655816 159.83866168 -160.00970126 146.18127285 -160.04215527 132.52369785 C-160.05773992 126.18036607 -160.07884523 119.83715743 -160.11303711 113.49389648 C-160.14588909 107.3600794 -160.16362575 101.22637996 -160.17135048 95.09248161 C-160.17684796 92.76479175 -160.18758161 90.43710755 -160.20390892 88.10946846 C-160.41304041 57.02914761 -154.0956453 31.00693365 -131.88671875 8.05859375 C-97.25260924 -26.61078471 -38.67453355 -29.83090765 0 0 Z " fill="#548D8A" transform="translate(628.88671875,533.50390625)"/>
<path d="M0 0 C10.6448017 8.28742471 19.91274295 19.14326679 21.96484375 32.8984375 C23.08453055 47.3583927 20.29304005 59.40089322 10.96484375 70.8984375 C7.54940474 74.65152447 4.19498052 78.07834632 -0.03515625 80.8984375 C0.52731496 89.29637568 0.52731496 89.29637568 1.52734375 97.6484375 C2.99201766 108.52887228 2.99201766 108.52887228 0.08984375 112.3984375 C-3.5394792 114.96031252 -5.55950794 115.46535295 -10.03515625 114.8984375 C-13.63060165 113.13437429 -16.93711462 110.9641902 -20.28515625 108.7734375 C-22.97814907 107.05085743 -25.6724103 105.33027699 -28.36694336 103.61010742 C-30.14450426 102.46979454 -31.9136565 101.31626549 -33.67407227 100.1496582 C-38.773007 96.88205491 -42.2564027 95.22218474 -48.47265625 95.3359375 C-62.01941002 95.10466346 -75.72343406 91.47186794 -87.03515625 83.8984375 C-88.1025 83.18880859 -88.1025 83.18880859 -89.19140625 82.46484375 C-91.22264914 81.02344254 -93.12950244 79.50154421 -95.03515625 77.8984375 C-95.69128906 77.3725 -96.34742188 76.8465625 -97.0234375 76.3046875 C-104.54774528 69.6423878 -111.29655662 57.93888922 -112.22802734 47.79882812 C-112.82085929 31.2857636 -110.20667647 20.20069309 -99.0390625 7.65625 C-73.77153983 -19.09759753 -29.55379242 -20.46324366 0 0 Z M-82.03515625 13.8984375 C-82.65648437 14.34832031 -83.2778125 14.79820312 -83.91796875 15.26171875 C-89.75014929 19.74315618 -94.76148027 26.53029043 -96.03515625 33.8984375 C-97.25313878 45.86241779 -94.34928456 53.36561463 -87.84765625 63.2109375 C-80.7566281 69.98680884 -72.38172499 74.14791309 -63.03515625 76.8984375 C-61.80023438 77.26453125 -60.5653125 77.630625 -59.29296875 78.0078125 C-55.48194492 78.94859044 -51.98653908 78.9601024 -48.08129883 78.87133789 C-35.34999414 78.68987331 -27.9336005 83.35972275 -18.03515625 90.8984375 C-17.70515625 90.8984375 -17.37515625 90.8984375 -17.03515625 90.8984375 C-17.06738281 89.59648437 -17.09960938 88.29453125 -17.1328125 86.953125 C-17.16195619 73.35097189 -17.16195619 73.35097189 -14.2109375 69.546875 C-11.88021887 68.13024127 -9.51518087 67.02827101 -7.03515625 65.8984375 C0.80756133 59.65472059 4.50800751 51.69956059 6.328125 41.953125 C7.1548835 33.16678959 2.19033733 24.8517049 -3.19921875 18.24609375 C-15.72996214 5.98775783 -31.94206214 2.45335586 -48.90722656 2.46240234 C-61.2085688 2.71552528 -72.35842456 6.08879305 -82.03515625 13.8984375 Z " fill="#528D8A" transform="translate(305.03515625,296.1015625)"/>
<path d="M0 0 C8.37280662 7.8483048 15.18404549 16.56868767 20.6875 26.625 C21.11289062 27.37136719 21.53828125 28.11773438 21.9765625 28.88671875 C24.74512778 33.98125554 24.74512778 33.98125554 24.52734375 36.4140625 C23.28982936 39.67189109 21.56395407 42.62430091 19.8125 45.625 C19.46058594 46.24117187 19.10867188 46.85734375 18.74609375 47.4921875 C16.89996077 50.6903212 14.98647 53.73321384 12.6875 56.625 C12.40777344 55.63242187 12.12804687 54.63984375 11.83984375 53.6171875 C5.43112397 31.58004238 -5.08214321 14.61815881 -25.31640625 2.8828125 C-46.1332669 -8.02771942 -71.59616574 -11.30215631 -94.3125 -4.375 C-113.79103557 2.43408957 -130.06811768 14.5583013 -140.1015625 32.89453125 C-145.13702317 43.34993358 -147.76203206 53.18582161 -147.74487305 64.7878418 C-147.7550647 65.84283371 -147.76525635 66.89782562 -147.77575684 67.98478699 C-147.80566899 71.43131979 -147.81511943 74.87757369 -147.82421875 78.32421875 C-147.84108157 80.72989307 -147.85923395 83.13555865 -147.87861633 85.54121399 C-147.92594813 91.8424507 -147.95586624 98.14365201 -147.98205566 104.44500732 C-148.01194623 110.8872374 -148.05844729 117.32934576 -148.10351562 123.77148438 C-148.18935732 136.38925651 -148.25735247 149.00705826 -148.3125 161.625 C-152.05636371 160.16060905 -155.53763328 158.5011767 -159.0625 156.5625 C-160.50882812 155.77166016 -160.50882812 155.77166016 -161.984375 154.96484375 C-164.3125 153.625 -164.3125 153.625 -165.3125 152.625 C-165.42914957 149.70156467 -165.48053248 146.80145589 -165.48950195 143.87695312 C-165.49607315 142.95801773 -165.50264435 142.03908234 -165.50941467 141.09230042 C-165.52922665 138.03028282 -165.54083716 134.96831482 -165.55078125 131.90625 C-165.55485678 130.85822708 -165.5589323 129.81020416 -165.56313133 128.73042297 C-165.58404076 123.16712641 -165.59831269 117.60385476 -165.60766602 112.04052734 C-165.61864889 106.33054218 -165.65293939 100.62095558 -165.69283772 94.91110992 C-165.71919536 90.49427648 -165.72737545 86.07753441 -165.73094749 81.66062927 C-165.73577624 79.55900935 -165.74728215 77.45739246 -165.76598549 75.35585022 C-165.99777746 47.5480682 -159.17254965 24.08579848 -139.3125 3.625 C-138.71179688 2.95082031 -138.11109375 2.27664063 -137.4921875 1.58203125 C-102.35593749 -36.52026584 -36.77999092 -33.14292345 0 0 Z " fill="#538D8A" transform="translate(448.3125,506.375)"/>
<path d="M0 0 C6.88863529 3.85006187 11.76322525 8.43176017 14.625 15.875 C16.86195156 23.91145561 15.833827 31.56625556 13.6875 39.5 C13.0275 39.5 12.3675 39.5 11.6875 39.5 C11.39045166 40.53157227 11.39045166 40.53157227 11.08740234 41.58398438 C9.17995015 45.55723323 6.42899836 48.11193384 3.2890625 51.15625 C2.65769379 51.7810022 2.02632507 52.40575439 1.37582397 53.04943848 C-0.6382887 55.04020678 -2.66228726 57.0205303 -4.6875 59 C-6.70382687 60.98114717 -8.71795812 62.96445547 -10.72940063 64.95056152 C-11.97941239 66.18373629 -13.23250151 67.4138019 -14.48910522 68.64025879 C-17.68050802 71.77738964 -20.52167424 74.99372105 -23.3125 78.5 C-26.6463861 80.16694305 -29.74376925 80.29477582 -33.3125 79.5 C-36.57160983 77.39829838 -39.1418145 74.72147543 -41.828125 71.94140625 C-42.60637634 71.1636937 -43.38462769 70.38598114 -44.1864624 69.58470154 C-45.8263115 67.93716275 -47.45636865 66.27982728 -49.07714844 64.61352539 C-51.54560614 62.07984027 -54.04667083 59.58235711 -56.5546875 57.08789062 C-58.14789672 55.47860265 -59.73910997 53.86733571 -61.328125 52.25390625 C-62.06983948 51.51290176 -62.81155396 50.77189728 -63.57574463 50.00843811 C-70.80661123 42.51270671 -74.68228504 34.41795422 -74.52734375 23.93359375 C-73.91702165 17.02030882 -71.17079123 10.48927457 -66.3125 5.5 C-57.61229411 -1.28554791 -50.16458325 -2.37839608 -39.3125 -1.5 C-36.73494328 -0.61575485 -34.49667003 0.46176284 -32.09375 1.73046875 C-30.21797558 2.74520774 -30.21797558 2.74520774 -27.6875 1.9375 C-26.90375 1.463125 -26.12 0.98875 -25.3125 0.5 C-16.89532039 -3.96625857 -8.69239659 -3.99763101 0 0 Z " fill="#518E8B" transform="translate(722.3125,503.5)"/>
<path d="M0 0 C0.76957031 0.66644531 1.53914062 1.33289063 2.33203125 2.01953125 C3.09128906 2.63441406 3.85054687 3.24929688 4.6328125 3.8828125 C19.01095308 15.87701268 27.8462191 33.05407565 32.33203125 51.01953125 C32.49662338 51.63412956 32.66121552 52.24872787 32.83079529 52.88195038 C34.408121 59.21394043 34.69091636 65.31612347 34.78125 71.82226562 C34.81542023 73.54356438 34.81542023 73.54356438 34.85028076 75.29963684 C35.04440476 85.81162684 35.14796482 96.32589879 35.22166443 106.83942413 C35.27686801 114.59469891 35.37864155 122.34632863 35.54261303 130.10008574 C35.66792716 136.23561654 35.71612878 142.36970219 35.7381897 148.50642395 C35.75897882 151.10616786 35.80380224 153.70583751 35.87338257 156.30473328 C36.3769431 176.12517339 36.3769431 176.12517339 32.92022705 181.01779175 C29.08390966 184.65669039 23.76636712 188.01953125 18.33203125 188.01953125 C18.33259679 187.05490306 18.33259679 187.05490306 18.33317375 186.07078743 C18.34032566 170.34191829 18.31408041 154.61349993 18.25175285 138.88476753 C18.22239554 131.27808667 18.20388298 123.67168231 18.21191406 116.06494141 C18.21889449 109.4262305 18.20449508 102.7879485 18.16559517 96.14934242 C18.14575856 92.64193326 18.13583002 89.13519513 18.15160751 85.6277504 C18.25439192 60.00520263 14.16782385 38.62692748 -4.04467773 19.50195312 C-20.11487742 3.31419711 -40.00626123 -4.15660006 -62.54296875 -4.35546875 C-85.28781761 -4.19007726 -105.28521681 2.00494046 -122.04296875 17.95703125 C-126.12093326 22.25190877 -129.42687166 27.07685819 -132.66796875 32.01953125 C-135.43073052 31.49684659 -137.99405635 30.91083538 -140.66796875 30.01953125 C-139.15827724 26.31619958 -137.00160445 24.34189181 -133.98046875 21.76953125 C-123.82594079 12.75137801 -117.77693069 3.30920066 -112.73828125 -9.30859375 C-108.16508264 -16.45213027 -92.46567086 -18.85272204 -84.7265625 -20.671875 C-55.26337547 -26.16501156 -23.12705056 -19.54030282 0 0 Z " fill="#518C89" transform="translate(748.66796875,474.98046875)"/>
<path d="M0 0 C10.24564257 8.65393641 18.41175377 21.52265101 20.33984375 35 C21.59390193 51.26715215 20.08667224 66.97650853 9.33984375 80 C8.68113281 80.83015625 8.02242187 81.6603125 7.34375 82.515625 C-1.34350628 92.85980895 -13.10321325 100.28737556 -26.66015625 102 C-44.9856075 103.19392149 -59.36899591 100.18886132 -73.66015625 88 C-79.9368308 81.36865035 -84.49840936 74.56210289 -87.66015625 66 C-88.04747925 65.04782593 -88.04747925 65.04782593 -88.44262695 64.07641602 C-90.83512197 57.75628309 -91.16491472 51.90487303 -91.09765625 45.1875 C-91.08935791 44.12305664 -91.08105957 43.05861328 -91.07250977 41.96191406 C-90.90859934 34.35320363 -90.15276105 27.86084384 -86.66015625 21 C-86.17417969 20.00226563 -85.68820312 19.00453125 -85.1875 17.9765625 C-77.98701935 4.46076666 -66.71680813 -5.31444937 -52.1796875 -10.16015625 C-33.31866437 -14.74221272 -15.57565152 -11.71032831 0 0 Z M-57.66015625 11 C-58.41683594 11.52980469 -59.17351563 12.05960937 -59.953125 12.60546875 C-67.85938185 18.85037332 -73.02634781 28.09001439 -74.66015625 38 C-75.82910573 50.52074775 -73.90811963 60.43070454 -66.41015625 70.8125 C-59.56478504 78.97372011 -51.07159244 85.24947482 -40.265625 86.34375 C-26.65785396 86.69758153 -16.91222243 82.90955952 -6.91015625 73.75 C0.50285456 65.99299797 3.72949724 55.76712291 3.65234375 45.25 C3.6467041 44.45158691 3.64106445 43.65317383 3.63525391 42.83056641 C3.42744946 32.71398752 1.0790175 25.6292533 -5.66015625 18 C-6.4490625 17.071875 -6.4490625 17.071875 -7.25390625 16.125 C-13.41217302 9.38576466 -21.61428188 5.1239348 -30.78515625 4.69140625 C-41.12015341 4.31831317 -48.91306919 4.86479586 -57.66015625 11 Z " fill="#518C88" transform="translate(720.66015625,335)"/>
<path d="M0 0 C8.00870288 6.33835889 13.94948942 13.81398868 15.81640625 24.08203125 C17.32712116 37.93025125 15.63421138 48.56656848 7.09765625 59.66015625 C6.35386719 60.65917969 5.61007812 61.65820312 4.84375 62.6875 C2.11123977 65.93389447 -1.14929678 67.72066066 -4.96484375 69.47265625 C-5.57650391 69.77107422 -6.18816406 70.06949219 -6.81835938 70.37695312 C-16.04006548 74.79340264 -26.94009729 75.32996689 -36.71484375 72.16015625 C-46.00131787 68.22169624 -53.31140602 61.64440856 -57.90234375 52.66015625 C-59.093335 49.70143389 -60.04551737 46.72993711 -60.90234375 43.66015625 C-61.39734375 42.17515625 -61.39734375 42.17515625 -61.90234375 40.66015625 C-62.88873651 26.24364672 -60.37010409 15.98528262 -51.37890625 4.7578125 C-38.04298385 -10.10686198 -15.79444797 -11.33746089 0 0 Z " fill="#FCFDFD" transform="translate(402.90234375,375.33984375)"/>
<path d="M0 0 C2.93786835 2.11605258 5.49252837 4.39293253 8 7 C9.3303125 8.36125 9.3303125 8.36125 10.6875 9.75 C18.41833166 20.61495261 19.4438685 30.9577062 18 44 C16.59427734 50.43635453 13.99814041 55.75244071 10 61 C9.443125 61.825 8.88625 62.65 8.3125 63.5 C1.09385101 71.30394486 -7.64244693 74.98501088 -18.13647461 75.40307617 C-28.84240246 75.5677109 -36.94770368 73.91140726 -45.3125 66.8125 C-54.27973273 58.10147392 -58.95269824 49.23347122 -59.3515625 36.69140625 C-59.48976069 23.40134727 -55.85833007 14.08044894 -46.6875 4.25 C-34.33050362 -7.55779654 -14.43775132 -8.79973204 0 0 Z " fill="#FCFDFD" transform="translate(588,406)"/>
<path d="M0 0 C2.75036313 1.62521458 4.99343821 3.50954067 7 6 C7 6.66 7 7.32 7 8 C10.0544131 8.29945226 12.9533192 8.42058557 16 8 C18.87551522 5.79135579 18.87551522 5.79135579 21 3 C23.64171505 0.26393799 25.67106454 -0.27082674 29.375 -0.5 C34.4446815 -0.3494154 36.55877551 1.38671429 40 5 C41.55944339 8.11888678 41.28316275 10.5454145 41 14 C38.44347207 19.16435117 35.47368926 22.9455976 31.359375 26.93359375 C30.83232971 27.4563942 30.30528442 27.97919464 29.76226807 28.51783752 C28.09849846 30.16498672 26.42454791 31.80131709 24.75 33.4375 C23.61128536 34.56114628 22.47325776 35.68548927 21.3359375 36.81054688 C18.56516123 39.54847511 15.78521099 42.27676027 13 45 C9.0979309 43.40187906 6.61161117 40.87004774 3.6484375 37.9140625 C2.89827866 37.16677383 2.89827866 37.16677383 2.13296509 36.40438843 C1.07999841 35.35277896 0.02953805 34.29865468 -1.01855469 33.2421875 C-2.61958034 31.6304559 -4.23098798 30.02966543 -5.84375 28.4296875 C-6.86782936 27.40428646 -7.8912881 26.37826516 -8.9140625 25.3515625 C-10.3055249 23.95671631 -10.3055249 23.95671631 -11.72509766 22.53369141 C-15.60784393 18.20925045 -16.49813346 14.96535227 -16.39453125 9.2578125 C-15.72202988 5.40924032 -13.79323112 3.66022012 -11 1 C-7.48250886 -0.75874557 -3.82846892 -0.67964676 0 0 Z " fill="#F9FDFC" transform="translate(681,518)"/>
<path d="M0 0 C0.33 0 0.66 0 1 0 C1 37.62 1 75.24 1 114 C2.98 114.33 4.96 114.66 7 115 C2.25 119 2.25 119 0 119 C0 79.73 0 40.46 0 0 Z " fill="#61938F" transform="translate(767,544)"/>
<path d="M0 0 C0.33 0.66 0.66 1.32 1 2 C-0.84114107 5.49181927 -2.81159561 8.71739341 -5 12 C-4.34 12 -3.68 12 -3 12 C-3.66 13.32 -4.32 14.64 -5 16 C-7.76276177 15.47731534 -10.3260876 14.89130413 -13 14 C-11.45493286 10.14174662 -9.04184365 8.01484232 -5.9375 5.3125 C-5.03902344 4.52488281 -4.14054688 3.73726563 -3.21484375 2.92578125 C-2.48394531 2.29027344 -1.75304687 1.65476562 -1 1 C-0.67 0.67 -0.34 0.34 0 0 Z " fill="#55908C" transform="translate(621,491)"/>
<path d="M0 0 C0.67578125 1.77734375 0.67578125 1.77734375 1 4 C-0.14453125 5.81640625 -0.14453125 5.81640625 -1.8125 7.5625 C-3.79988365 9.68206119 -5.37153504 11.55730256 -7 14 C-7.99 14 -8.98 14 -10 14 C-7.77306827 8.00441457 -5.39260296 3.59506864 0 0 Z " fill="#4B8583" transform="translate(626,489)"/>
<path d="M0 0 C-1.42152903 3.43536181 -3.07260444 4.80445333 -6 7 C-6.309375 7.66 -6.61875 8.32 -6.9375 9 C-8.38355196 11.72198016 -10.32183558 12.59043978 -13 14 C-11.6145759 9.76090342 -9.67287988 7.29341975 -6.5 4.1875 C-5.7059375 3.39730469 -4.911875 2.60710937 -4.09375 1.79296875 C-2 0 -2 0 0 0 Z " fill="#E4F6F4" transform="translate(359,375)"/>
<path d="M0 0 C0.33 0.66 0.66 1.32 1 2 C0.09515208 3.15518918 -0.8244206 4.29885406 -1.75 5.4375 C-2.26046875 6.07558594 -2.7709375 6.71367187 -3.296875 7.37109375 C-5 9 -5 9 -7.140625 9.53515625 C-8.06101562 9.76525391 -8.06101562 9.76525391 -9 10 C-9.33 10.99 -9.66 11.98 -10 13 C-10.66 12.67 -11.32 12.34 -12 12 C-10.56665422 10.37133456 -9.12817021 8.74719006 -7.6875 7.125 C-6.88699219 6.22007812 -6.08648437 5.31515625 -5.26171875 4.3828125 C-3 2 -3 2 0 0 Z " fill="#5D938E" transform="translate(347,362)"/>
<path d="M0 0 C0 0.99 0 1.98 0 3 C0.66 3.66 1.32 4.32 2 5 C-1.3340947 7.19097652 -4.04179141 8.43454163 -8 9 C-7.04270084 7.87411986 -6.08412105 6.7493285 -5.125 5.625 C-4.59132813 4.99851562 -4.05765625 4.37203125 -3.5078125 3.7265625 C-2.38567993 2.44163349 -1.20628025 1.20628025 0 0 Z " fill="#679D98" transform="translate(702,554)"/>
<path d="M0 0 C0.8971875 0.99 0.8971875 0.99 1.8125 2 C3.87501834 4.3373846 3.87501834 4.3373846 7 4 C7 5.32 7 6.64 7 8 C7.66 8 8.32 8 9 8 C8.67 8.99 8.34 9.98 8 11 C5.03 8.03 2.06 5.06 -1 2 C-0.67 1.34 -0.34 0.68 0 0 Z " fill="#609490" transform="translate(671,562)"/>
<path d="M0 0 C0 4.13781054 -1.71509607 5.20919996 -4.5 8.1875 C-5.3353125 9.08855469 -6.170625 9.98960937 -7.03125 10.91796875 C-7.6809375 11.60503906 -8.330625 12.29210937 -9 13 C-9.66 12.67 -10.32 12.34 -11 12 C-7.37 8.04 -3.74 4.08 0 0 Z " fill="#DEEFED" transform="translate(324,518)"/>
<path d="M0 0 C0.66 0 1.32 0 2 0 C2 1.32 2 2.64 2 4 C2.66 4 3.32 4 4 4 C3.67 9.61 3.34 15.22 3 21 C2.67 21 2.34 21 2 21 C1.93941406 19.98679687 1.87882813 18.97359375 1.81640625 17.9296875 C1.73193296 16.57811486 1.64728843 15.22655291 1.5625 13.875 C1.50352539 12.87726563 1.50352539 12.87726563 1.44335938 11.859375 C1.187848 7.84981183 0.73217587 3.95005804 0 0 Z " fill="#DBEEEC" transform="translate(739,364)"/>
<path d="M0 0 C-3.85623679 3.97674419 -3.85623679 3.97674419 -7.11328125 4.04296875 C-9.08863015 3.7798228 -11.04718291 3.39718314 -13 3 C-8.8341563 0.22277086 -4.9360889 -1.89849573 0 0 Z " fill="#649892" transform="translate(733,698)"/>
<path d="M0 0 C3.96 0 7.92 0 12 0 C11.67 0.99 11.34 1.98 11 3 C7.37 2.67 3.74 2.34 0 2 C0 1.34 0 0.68 0 0 Z " fill="#709C97" transform="translate(704,501)"/>
<path d="M0 0 C2 4 2 4 1.875 6.5625 C1 9 1 9 -3 12 C-2.01 8.04 -1.02 4.08 0 0 Z " fill="#D5E9E6" transform="translate(829,642)"/>
<path d="M0 0 C0.99 0.33 1.98 0.66 3 1 C2.01 2.32 1.02 3.64 0 5 C0.33 5.66 0.66 6.32 1 7 C-0.65 7.66 -2.3 8.32 -4 9 C-2.94124926 5.59687262 -1.99097846 2.98646769 0 0 Z " fill="#5F938E" transform="translate(236,607)"/>
<path d="M0 0 C4 0 4 0 5.75 1.375 C7 3 7 3 7 5 C4.23723823 4.47731534 1.6739124 3.89130413 -1 3 C-0.67 2.01 -0.34 1.02 0 0 Z " fill="#639791" transform="translate(609,502)"/>
<path d="M0 0 C0.33 0.66 0.66 1.32 1 2 C-0.70847138 6.13629913 -2.67356033 9.01767477 -6 12 C-6.66 11.67 -7.32 11.34 -8 11 C-5.36 7.37 -2.72 3.74 0 0 Z " fill="#DCEDEC" transform="translate(623,496)"/>
<path d="M0 0 C-0.97566112 1.16959987 -1.955625 2.33561177 -2.9375 3.5 C-3.48277344 4.1496875 -4.02804687 4.799375 -4.58984375 5.46875 C-5.05519531 5.9740625 -5.52054687 6.479375 -6 7 C-6.33 7 -6.66 7 -7 7 C-7 5.02 -7 3.04 -7 1 C-3.375 -1.125 -3.375 -1.125 0 0 Z " fill="#5C938E" transform="translate(354,379)"/>
<path d="M0 0 C0.66 0 1.32 0 2 0 C0.68938409 4.23429756 -0.94356259 8.07407404 -3 12 C-4.39746302 7.80761095 -2.84031875 5.89298197 -1 2 C-0.67 1.34 -0.34 0.68 0 0 Z " fill="#E2F5F2" transform="translate(479,562)"/>
<path d="M0 0 C0.33 1.32 0.66 2.64 1 4 C-2.75 7 -2.75 7 -5 7 C-5.33 6.01 -5.66 5.02 -6 4 C-4.02 2.68 -2.04 1.36 0 0 Z " fill="#4C8A83" transform="translate(697,561)"/>
<path d="M0 0 C2.97 0 5.94 0 9 0 C5.79663178 2.83374881 3.21912747 3.5205537 -1 4 C-0.67 2.68 -0.34 1.36 0 0 Z " fill="#6B9893" transform="translate(699,432)"/>
<path d="M0 0 C0.33 0.99 0.66 1.98 1 3 C-0.98 4.98 -2.96 6.96 -5 9 C-5.66 8.67 -6.32 8.34 -7 8 C-4.69 5.36 -2.38 2.72 0 0 Z " fill="#5F948E" transform="translate(646,339)"/>
<path d="M0 0 C0.33 0 0.66 0 1 0 C1 1.65 1 3.3 1 5 C-1.31 6.32 -3.62 7.64 -6 9 C-4.25 4.125 -4.25 4.125 -2 3 C-1.34 3.33 -0.68 3.66 0 4 C0 2.68 0 1.36 0 0 Z " fill="#628E93" transform="translate(782,649)"/>
<path d="M0 0 C0.66 0.33 1.32 0.66 2 1 C2 3 2 3 0.5 4.625 C-3.12010808 6.61605945 -5.89993009 6.2050035 -10 6 C-10 5.67 -10 5.34 -10 5 C-6.97265625 4.36523438 -6.97265625 4.36523438 -3.9453125 3.73046875 C-1.62953451 3.07691162 -1.62953451 3.07691162 0 0 Z " fill="#DBF1EF" transform="translate(701,522)"/>
<path d="M0 0 C-2.66666667 1.33333333 -5.33333333 2.66666667 -8 4 C-10.125 3.0625 -10.125 3.0625 -12 2 C-10.75579353 1.4654744 -9.50429064 0.94791389 -8.25 0.4375 C-7.55390625 0.14746094 -6.8578125 -0.14257812 -6.140625 -0.44140625 C-3.69987216 -1.07831803 -2.3596345 -0.80248831 0 0 Z " fill="#699893" transform="translate(657,458)"/>
<path d="M0 0 C0.33 0 0.66 0 1 0 C1.08131463 1.43655854 1.13933559 2.8744483 1.1875 4.3125 C1.23970703 5.51326172 1.23970703 5.51326172 1.29296875 6.73828125 C0.93801608 9.47851584 0.10633718 10.29171079 -2 12 C-1.44687265 7.97007218 -0.8441938 3.97977076 0 0 Z " fill="#7DA09F" transform="translate(306,397)"/>
<path d="M0 0 C0.33 0.99 0.66 1.98 1 3 C-0.98 4.98 -2.96 6.96 -5 9 C-5.66 8.67 -6.32 8.34 -7 8 C-4.69 5.36 -2.38 2.72 0 0 Z " fill="#D9EEED" transform="translate(659,349)"/>
<path d="M0 0 C0.99 0.495 0.99 0.495 2 1 C2.8125 3.875 2.8125 3.875 3 7 C2.01 7.99 1.02 8.98 0 10 C0 6.7 0 3.4 0 0 Z " fill="#699590" transform="translate(470,537)"/>
<path d="M0 0 C6.57403846 -0.37211538 6.57403846 -0.37211538 8.73046875 1.51171875 C9.35888672 2.24841797 9.35888672 2.24841797 10 3 C8.5199159 2.88637738 7.04089926 2.75877092 5.5625 2.625 C4.73878906 2.55539062 3.91507812 2.48578125 3.06640625 2.4140625 C2.38449219 2.27742188 1.70257813 2.14078125 1 2 C0.67 1.34 0.34 0.68 0 0 Z " fill="#66958D" transform="translate(396,498)"/>
<path d="M0 0 C1.98 0.99 1.98 0.99 4 2 C4 2.99 4 3.98 4 5 C4.66 5.33 5.32 5.66 6 6 C3 6 3 6 1.3125 4.6875 C0 3 0 3 0 0 Z " fill="#51877F" transform="translate(801,604)"/>
<path d="M0 0 C-2.31 1.65 -4.62 3.3 -7 5 C-6.67 3.35 -6.34 1.7 -6 0 C-3 -1 -3 -1 0 0 Z " fill="#E5F5F4" transform="translate(259,585)"/>
<path d="M0 0 C1.32 0.33 2.64 0.66 4 1 C2.68 2.65 1.36 4.3 0 6 C-0.66 5.01 -1.32 4.02 -2 3 C-1.34 2.01 -0.68 1.02 0 0 Z " fill="#59938B" transform="translate(315,522)"/>
<path d="M0 0 C-2.17424117 2.50037734 -3.73045798 3.43628586 -7 4 C-7 3.01 -7 2.02 -7 1 C-4.53721199 -0.231394 -2.7204945 -0.07159196 0 0 Z " fill="#689894" transform="translate(790,688)"/>
<path d="M0 0 C0.8125 1.6875 0.8125 1.6875 1 4 C-1.4375 6.75 -1.4375 6.75 -4 9 C-2.94124926 5.59687262 -1.99097846 2.98646769 0 0 Z " fill="#DDF0F0" transform="translate(251,614)"/>
<path d="M0 0 C1 2 1 2 0.3125 4.5625 C-1 7 -1 7 -3.125 7.8125 C-3.74375 7.874375 -4.3625 7.93625 -5 8 C-1.125 1.125 -1.125 1.125 0 0 Z " fill="#619891" transform="translate(526,402)"/>
<path d="M0 0 C1.98 1.65 3.96 3.3 6 5 C4.68 5.33 3.36 5.66 2 6 C0 3 0 3 0 0 Z " fill="#E2F5F1" transform="translate(202,366)"/>
</svg>
