<?xml version="1.0" encoding="UTF-8"?>
<svg version="1.1" xmlns="http://www.w3.org/2000/svg" width="512" height="512">
<path d="M0 0 C0.97066406 -0.03738281 1.94132813 -0.07476563 2.94140625 -0.11328125 C13.93328109 1.22539401 20.62953815 7.58112722 28.1328125 15.140625 C29.21639093 16.21506304 30.30070431 17.28876033 31.38571167 18.36175537 C33.64294067 20.60121873 35.88860846 22.85153087 38.12695312 25.10986328 C40.99065156 27.99663877 43.88502474 30.85030078 46.78920174 33.69627762 C49.03044934 35.90078909 51.25273758 38.12367433 53.46996689 40.35231781 C54.52992956 41.4125862 55.59608067 42.46670674 56.6685524 43.51432037 C66.05027035 52.70871935 66.05027035 52.70871935 66.21435547 57.86230469 C65.4375 61.3125 65.4375 61.3125 63.375 63.875 C59.36765055 65.83604335 57.69256447 65.682775 53.4375 64.3125 C47.16010862 59.67754346 41.83487936 53.73456007 36.44140625 48.1328125 C34.73219317 46.38176412 33.02187342 44.63179542 31.31054688 42.8828125 C28.64311844 40.1535799 25.98237704 37.4191412 23.33959961 34.66601562 C20.76702854 31.99037032 18.1695427 29.34118619 15.56640625 26.6953125 C14.78487686 25.86935577 14.00334747 25.04339905 13.19813538 24.19241333 C8.93029382 19.90289083 5.78319307 17.41457229 -0.32875061 16.84591675 C-5.86302494 18.00191022 -10.04095678 22.5413586 -13.90888977 26.41165161 C-14.41150414 26.91185157 -14.91411851 27.41205152 -15.43196362 27.92740905 C-17.10174975 29.59159455 -18.76433869 31.26278251 -20.42700195 32.93408203 C-21.62779798 34.13380431 -22.82902703 35.33309332 -24.03065491 36.53198242 C-27.28278625 39.77927881 -30.52865354 43.03277029 -33.77328134 46.28756189 C-37.17012142 49.6931989 -40.57224601 53.09354935 -43.97367859 56.49459839 C-49.6806116 62.20246693 -55.38366341 67.91419003 -61.08422852 73.62841797 C-67.68043193 80.24037204 -74.28187288 86.84705947 -80.88632232 93.45077622 C-87.23833671 99.80218104 -93.58749294 106.15643452 -99.93504906 112.51229477 C-102.63800053 115.21878186 -105.34180413 117.92441348 -108.04625893 120.62939835 C-111.22593027 123.81007166 -114.40304796 126.99327404 -117.5781765 130.17848206 C-118.74599591 131.34923012 -119.91467057 132.51912576 -121.08424377 133.6881218 C-122.67549756 135.27888728 -124.26365761 136.87267691 -125.85102844 138.46731567 C-126.74198369 139.35994677 -127.63293894 140.25257786 -128.55089283 141.17225838 C-131.87698973 144.71104623 -131.91902032 147.34694837 -131.828125 152.05078125 C-131.66183785 154.52087346 -131.66183785 154.52087346 -130.125 157.3125 C-126.56479346 160.09119779 -123.05168208 160.79699857 -118.5625 160.3125 C-114.73019282 158.29820659 -111.88231836 155.87811289 -108.83662415 152.82040405 C-107.45493546 151.44067162 -107.45493546 151.44067162 -106.04533386 150.0330658 C-105.03705035 149.0161105 -104.02885946 147.99906336 -103.02075195 146.98193359 C-101.94981936 145.9087985 -100.87843722 144.83611189 -99.80664062 143.76383972 C-97.50436667 141.45863756 -95.20527893 139.15032043 -92.90862465 136.8395195 C-89.27920185 133.18780826 -85.64268351 129.54321889 -82.00517273 125.89956665 C-76.25590288 120.13892555 -70.51132821 114.37362847 -64.76878566 108.60628188 C-54.47531948 98.26843757 -44.17621105 87.9362215 -33.87191743 77.6091696 C-30.25456607 73.98339657 -26.64004239 70.35483432 -23.02774584 66.72402549 C-20.78500932 64.47067126 -18.54026403 62.21932619 -16.2950058 59.96848488 C-15.25162717 58.92162631 -14.20912175 57.87389663 -13.1675396 56.82525063 C-11.74979195 55.3980975 -10.32870245 53.97426648 -8.90742493 52.55062866 C-8.11195912 51.75164343 -7.31649332 50.9526582 -6.49692249 50.12946129 C-4.21688584 47.98787208 -3.01013424 47.39776367 0.0625 46.8125 C8.52200117 48.06575943 15.93540108 58.68653921 21.72143555 64.51464844 C22.72903474 65.5258117 23.73687452 66.53673527 24.74493408 67.54743958 C26.89992255 69.7089338 29.05338874 71.87192887 31.2056942 74.03609467 C34.61118501 77.46000142 38.02112771 80.87945135 41.43183899 84.29815674 C51.12444695 94.01482741 60.81104579 103.73747581 70.4934082 113.46435547 C75.85259113 118.84810009 81.21537327 124.22823352 86.58202583 129.60453248 C89.97175386 133.00079058 93.35693238 136.40149869 96.73877943 139.8056035 C98.84231918 141.92088644 100.95004105 144.03196322 103.05895996 146.14188194 C104.03423371 147.11929967 105.00778954 148.0984351 105.97947121 149.0794239 C107.30825042 150.42043463 108.64386288 151.75466405 109.9797821 153.08856201 C110.72434001 153.83626232 111.46889791 154.58396263 112.23601818 155.35432053 C115.69747035 158.43322154 118.29258278 160.1898303 122.9375 160.6875 C126.6861869 160.28585498 128.51192224 159.6529622 131.4375 157.3125 C133.76489191 153.55926488 133.66707372 150.82990306 133.06091118 146.5621376 C132.04367174 142.89133384 129.73635818 140.59757887 127.03149414 138.07763672 C126.46885361 137.52185944 125.90621307 136.96608215 125.32652283 136.39346313 C123.47617043 134.57398824 121.5997184 132.78405613 119.72265625 130.9921875 C118.42640367 129.72358666 117.13227992 128.45280726 115.8401947 127.17996216 C112.44289162 123.84138146 109.0244672 120.52540386 105.59881592 117.21594238 C100.11590195 111.91687114 94.65479875 106.59592947 89.21487236 101.2527504 C87.31469108 99.39604656 85.39898748 97.55650427 83.48146057 95.71774292 C82.31129919 94.57534323 81.14174649 93.43231961 79.97290039 92.28857422 C79.43931915 91.78553772 78.90573792 91.28250122 78.35598755 90.76422119 C74.80412914 87.24639121 73.30056199 84.22794908 72.4375 79.3125 C73.96148775 75.70305533 75.15374898 74.50166735 78.4375 72.3125 C83.61721667 72.35631797 86.41675163 73.6002408 90.13514709 77.19697571 C90.943563 78.0236097 90.943563 78.0236097 91.76831055 78.86694336 C92.35787537 79.44599426 92.94744019 80.02504517 93.55487061 80.62164307 C95.49332038 82.53375911 97.40907551 84.46690526 99.32421875 86.40234375 C100.67139161 87.74547154 102.0194538 89.08770786 103.36836243 90.42909241 C106.19139507 93.24328601 109.00331091 96.06802542 111.80786133 98.90063477 C115.38866615 102.5155251 118.99560228 106.10293637 122.61142254 109.68276119 C125.40117007 112.45072783 128.17634631 115.2329515 130.94745827 118.01956367 C132.2710318 119.34711739 133.59901523 120.67029047 134.93158531 121.9888134 C142.74639367 129.73927332 149.002902 136.12685257 150.96875 147.34375 C150.86492141 155.54620861 148.76475534 161.78837048 144.25 168.625 C137.58382432 174.99490121 132.81387043 176.27068106 123.4375 177.3125 C123.4375 205.3625 123.4375 233.4125 123.4375 262.3125 C134.3275 262.3125 145.2175 262.3125 156.4375 262.3125 C181.88823787 266.30477261 201.72251558 280.27269484 216.91015625 300.7734375 C232.30767567 322.07693464 242.04773913 347.13297096 251.70532227 371.40820312 C264.3141069 404.84723944 264.3141069 404.84723944 289.4375 428.3125 C292.59670424 429.36556808 294.85670902 429.44945301 298.17480469 429.47021484 C299.35322937 429.48047699 300.53165405 429.49073914 301.74578857 429.50131226 C303.02077209 429.50861359 304.29575562 429.51591492 305.609375 429.5234375 C307.61251818 429.54431993 309.61566136 429.56521982 311.61879349 429.58713722 C316.55894493 429.6402419 321.49910293 429.68444511 326.43945312 429.71386719 C329.20987807 429.73080826 331.98002721 429.75554448 334.75030518 429.78872681 C337.35789819 429.81962643 339.9656578 429.83909895 342.57342529 429.84579468 C350.33946395 429.95381502 355.83514299 430.12826391 361.83959961 435.43579102 C364.0687411 439.44892687 364.03092659 442.81641938 364.00390625 447.33984375 C364.01010483 448.20638077 364.01630341 449.07291779 364.02268982 449.9657135 C364.02977643 451.79378133 364.0266342 453.62191385 364.01391602 455.44995117 C364.00005948 458.23803251 364.03412381 461.02274926 364.07226562 463.81054688 C364.07321701 465.59114665 364.07135696 467.3717506 364.06640625 469.15234375 C364.08629356 470.39479103 364.08629356 470.39479103 364.10658264 471.66233826 C364.03972618 475.84576908 363.70139657 478.51126217 361.02319336 481.82250977 C356.90078145 485.79234067 353.83250005 485.45604341 348.35986423 485.44392776 C347.0864055 485.44700672 347.0864055 485.44700672 345.78722033 485.45014787 C342.91123833 485.45585156 340.03530371 485.45435649 337.15931702 485.45294189 C335.08907864 485.45552359 333.01884075 485.4585362 330.94860357 485.4619453 C325.23532157 485.47004133 319.52205211 485.47180631 313.80876505 485.47254276 C307.65667101 485.47438878 301.50458355 485.48193374 295.35249329 485.48867798 C281.18768149 485.50298928 267.02287382 485.50878991 252.85805652 485.51336992 C245.86254335 485.51570407 238.86703101 485.51930649 231.87151848 485.5230653 C207.93789888 485.53590127 184.00427974 485.54662111 160.07065678 485.5500679 C158.5677114 485.55028954 157.06476603 485.55051132 155.56182065 485.55073325 C154.05519306 485.5509539 152.54856548 485.55117438 151.04193789 485.5513947 C148.01925091 485.55183726 144.99656393 485.55228437 141.97387695 485.55273438 C141.22442397 485.55284377 140.47497099 485.55295316 139.70280731 485.55306586 C115.38922068 485.55669835 91.07566383 485.57262539 66.76208861 485.59592474 C41.0723802 485.62049794 15.38268882 485.63423954 -10.30703169 485.63543582 C-13.12481376 485.63560728 -15.94259582 485.63582271 -18.76037788 485.63607025 C-19.45422416 485.63612602 -20.14807043 485.63618179 -20.86294234 485.63623925 C-32.0481461 485.6373918 -43.23331939 485.64843096 -54.41851284 485.66295731 C-65.65177056 485.67729431 -76.88498957 485.68032177 -88.11825746 485.67251733 C-94.20865787 485.66859497 -100.29895534 485.66961728 -106.38934326 485.68357468 C-111.95740355 485.69621895 -117.52528255 485.6952003 -123.09334225 485.68298396 C-125.1148585 485.68101041 -127.13638718 485.68418084 -129.1578859 485.69282833 C-131.89182309 485.7037892 -134.62510541 485.69652794 -137.35902309 485.6844368 C-138.15595177 485.69203199 -138.95288045 485.69962718 -139.77395847 485.70745254 C-145.07017466 485.65638719 -145.07017466 485.65638719 -147.55031496 483.92401958 C-148.88879451 481.79300014 -148.96255573 480.31807292 -148.9375 477.8125 C-148.94523438 477.0390625 -148.95296875 476.265625 -148.9609375 475.46875 C-148.5625 473.3125 -148.5625 473.3125 -145.5625 470.3125 C-137.9725 470.3125 -130.3825 470.3125 -122.5625 470.3125 C-122.5625 373.6225 -122.5625 276.9325 -122.5625 177.3125 C-125.5325 176.9825 -128.5025 176.6525 -131.5625 176.3125 C-138.74801413 173.50330061 -143.45723784 167.68091945 -147.4375 161.3125 C-150.18447532 153.98171645 -150.00519671 144.95968163 -146.78157043 137.85739136 C-143.03093758 130.61199603 -137.1957497 125.25437349 -131.46362305 119.58251953 C-130.2236068 118.33735706 -128.98466254 117.09112625 -127.7467041 115.84391785 C-124.40062566 112.47941006 -121.03913279 109.13071677 -117.6739881 105.78529215 C-114.14519 102.27294628 -110.62907379 98.74794256 -107.11103821 95.224823 C-101.20429874 89.31357082 -95.2874758 83.41256082 -89.36450195 77.51757812 C-82.52597434 70.71112069 -75.70364746 63.88874831 -68.88976449 57.05762589 C-62.32040336 50.4723802 -55.73977008 43.89851101 -49.1539402 37.32973862 C-46.35739271 34.54004681 -43.56481626 31.74646797 -40.77539635 28.94964981 C-37.48897663 25.65554718 -34.19277125 22.37155406 -30.88887787 19.09498024 C-29.68096603 17.89393134 -28.47639975 16.68950651 -27.27552986 15.4814167 C-19.26939381 7.43272066 -12.03920153 0.29823315 0 0 Z M-10.52001953 75.01171875 C-11.03047404 75.42137839 -11.54092855 75.83103803 -12.06685138 76.2531116 C-26.38007249 87.77153053 -40.14902576 99.89721554 -53.6875 112.3125 C-54.31653953 112.88745429 -54.94557905 113.46240858 -55.59368038 114.05478573 C-86.97276567 142.79686221 -111.67585337 169.20151858 -113.83019638 213.3038559 C-114.22766095 223.54183271 -113.84319008 233.71902199 -113.1875 243.9375 C-113.1426135 244.65716698 -113.09772699 245.37683395 -113.05148029 246.11830902 C-111.87136419 264.70868973 -109.39888932 282.83731838 -106.5625 301.3125 C-88.7425 301.3125 -70.9225 301.3125 -52.5625 301.3125 C-52.3530919 287.70186639 -52.3530919 287.70186639 -52.17456055 274.09082031 C-51.88793832 256.58835962 -49.36137828 240.36867616 -37.125 226.9375 C-25.67366485 216.32662982 -11.46665521 211.78605463 3.88671875 212.06640625 C17.19247616 212.98858746 29.46899084 218.40783906 39.11328125 227.6328125 C48.83105293 238.83683161 52.85133156 251.7604561 52.94921875 266.44921875 C52.96585571 267.34241821 52.98249268 268.23561768 52.99963379 269.15588379 C53.05670805 272.43702559 53.08950317 275.71855383 53.125 279 C53.228125 286.363125 53.33125 293.72625 53.4375 301.3125 C71.2575 301.3125 89.0775 301.3125 107.4375 301.3125 C107.66354172 284.64835644 107.84761678 267.98552797 107.95562172 251.32027531 C108.00711109 243.58169094 108.07726087 235.84412905 108.19189453 228.10620117 C108.29180346 221.35897619 108.35613656 214.61249183 108.37838495 207.86454767 C108.39138469 204.29354679 108.42176006 200.72466395 108.49480057 197.15434456 C108.57583431 193.16063081 108.57738508 189.17055919 108.57275391 185.17602539 C108.60870667 184.0021376 108.64465942 182.82824982 108.68170166 181.61878967 C108.62259171 176.8983081 108.48997548 173.63160898 105.48353958 169.86352444 C102.8933028 167.53974034 100.19264888 165.43690539 97.4375 163.3125 C95.80031782 161.76390133 94.18888558 160.18764141 92.60388184 158.5856781 C91.37595917 157.35548195 91.37595917 157.35548195 90.12322998 156.10043335 C89.26465393 155.23511993 88.40607788 154.36980652 87.52148438 153.47827148 C86.57768924 152.53090839 85.63365099 151.58378745 84.68939209 150.6368866 C82.67902053 148.62003407 80.67017557 146.60167834 78.66252136 144.5821209 C75.48875563 141.38988491 72.31049019 138.20215389 69.13146973 135.01515198 C60.10043888 125.96009378 51.07552732 116.89895047 42.0546875 107.83374023 C37.05550141 102.81004404 32.05275652 97.78991933 27.04613733 92.77363068 C23.88305161 89.60399776 20.72452655 86.42990991 17.56928921 83.25246513 C15.15630209 80.82504907 12.7368446 78.40411567 10.31835938 75.98217773 C9.00620453 74.65688049 9.00620453 74.65688049 7.6675415 73.30480957 C6.87148499 72.51005722 6.07542847 71.71530487 5.25524902 70.89646912 C4.56214378 70.20022147 3.86903854 69.50397383 3.15493011 68.78662777 C-1.39086247 64.8848218 -6.88423643 72.0912313 -10.52001953 75.01171875 Z M-29.8359375 242.875 C-35.68933926 251.13862602 -36.71862988 259.94365975 -36.66015625 269.76953125 C-36.65914917 270.57048218 -36.65814209 271.37143311 -36.65710449 272.19665527 C-36.65189433 275.17278486 -36.63793312 278.14889395 -36.625 281.125 C-36.604375 287.786875 -36.58375 294.44875 -36.5625 301.3125 C-12.1425 301.3125 12.2775 301.3125 37.4375 301.3125 C37.52 294.279375 37.6025 287.24625 37.6875 280 C37.72391602 277.80303467 37.76033203 275.60606934 37.79785156 273.3425293 C37.92506243 260.29552896 37.20756049 249.7660048 28.48046875 239.3828125 C20.7119212 231.51028821 11.98941105 227.32610447 0.9375 226.9375 C-11.91785792 227.37204731 -21.6190103 233.18491852 -29.8359375 242.875 Z M123.4375 278.3125 C123.4375 285.9025 123.4375 293.4925 123.4375 301.3125 C125.41492188 301.34988281 127.39234375 301.38726562 129.4296875 301.42578125 C131.37925662 301.47452048 133.32882448 301.5233635 135.27832031 301.57495117 C137.26866913 301.62392159 139.25934881 301.65879946 141.25 301.69335938 C157.32081667 302.13977095 168.78750271 306.69096528 179.99609375 318.42578125 C184.4437906 323.684738 187.97460297 329.38443493 191.4375 335.3125 C192.05882812 336.34890625 192.68015625 337.3853125 193.3203125 338.453125 C201.64962115 353.16010513 207.51098487 369.27664963 213.90429688 384.89599609 C226.17400128 415.30380065 226.17400128 415.30380065 244.4375 442.3125 C245.14132812 443.17617188 245.84515625 444.03984375 246.5703125 444.9296875 C259.40007172 460.05868672 275.73156714 468.38070203 295.35281372 470.10354614 C300.3863855 470.44451574 305.40612045 470.43525848 310.44921875 470.41015625 C311.54345657 470.4087413 312.6376944 470.40732635 313.76509094 470.40586853 C317.21842322 470.40032531 320.67168772 470.38778379 324.125 470.375 C326.48372301 470.36997765 328.84244706 470.36541604 331.20117188 470.36132812 C336.94666093 470.3512306 342.69200569 470.33164456 348.4375 470.3125 C348.4375 462.3925 348.4375 454.4725 348.4375 446.3125 C346.74334961 446.3031543 345.04919922 446.29380859 343.30371094 446.28417969 C337.65975027 446.24842957 332.01615185 446.19449296 326.37246323 446.12859726 C322.95597368 446.08935393 319.53973293 446.05705396 316.12304688 446.04150391 C312.18066434 446.02323917 308.23897071 445.97318793 304.296875 445.921875 C303.09013123 445.92064636 301.88338745 445.91941772 300.64007568 445.91815186 C289.0537108 445.72124781 279.15270321 443.16353749 270.4375 435.3125 C269.80585938 434.77238281 269.17421875 434.23226562 268.5234375 433.67578125 C250.647515 417.25984445 242.38824672 391.84998673 233.5 369.9375 C213.07260468 318.39299102 213.07260468 318.39299102 171.875 283.4375 C160.6495467 278.85423793 150.1553551 277.90378529 138.1875 278.125 C136.74871211 278.14009218 135.3099087 278.15377248 133.87109375 278.16601562 C130.39251648 278.19603787 126.91616021 278.25480723 123.4375 278.3125 Z M-106.5625 317.3125 C-106.5625 367.8025 -106.5625 418.2925 -106.5625 470.3125 C-100.6225 470.3125 -94.6825 470.3125 -88.5625 470.3125 C-88.5625 419.8225 -88.5625 369.3325 -88.5625 317.3125 C-94.5025 317.3125 -100.4425 317.3125 -106.5625 317.3125 Z M-72.5625 317.3125 C-72.5625 367.8025 -72.5625 418.2925 -72.5625 470.3125 C-61.0125 470.3125 -49.4625 470.3125 -37.5625 470.3125 C-37.5625 419.8225 -37.5625 369.3325 -37.5625 317.3125 C-49.1125 317.3125 -60.6625 317.3125 -72.5625 317.3125 Z M-21.5625 317.3125 C-21.5625 326.2225 -21.5625 335.1325 -21.5625 344.3125 C-7.0425 344.3125 7.4775 344.3125 22.4375 344.3125 C22.4375 335.4025 22.4375 326.4925 22.4375 317.3125 C7.9175 317.3125 -6.6025 317.3125 -21.5625 317.3125 Z M38.4375 317.3125 C38.4375 367.8025 38.4375 418.2925 38.4375 470.3125 C50.3175 470.3125 62.1975 470.3125 74.4375 470.3125 C74.4375 419.8225 74.4375 369.3325 74.4375 317.3125 C62.5575 317.3125 50.6775 317.3125 38.4375 317.3125 Z M90.4375 317.3125 C90.4375 367.8025 90.4375 418.2925 90.4375 470.3125 C96.0475 470.3125 101.6575 470.3125 107.4375 470.3125 C107.46255615 468.75821289 107.4876123 467.20392578 107.51342773 465.60253906 C107.60754583 459.8400843 107.707756 454.07774884 107.80981445 448.31542969 C107.8531466 445.82066639 107.89482291 443.32587377 107.93481445 440.83105469 C107.99255836 437.24665484 108.05624135 433.6624024 108.12109375 430.078125 C108.14616249 428.40293793 108.14616249 428.40293793 108.17173767 426.69390869 C108.19168289 425.65313171 108.21162811 424.61235474 108.23217773 423.54003906 C108.24772202 422.62514709 108.2632663 421.71025513 108.27928162 420.76763916 C108.42625603 418.4869773 108.80027186 416.50119415 109.4375 414.3125 C114.10216418 413.39785996 117.20344971 412.94641307 121.4375 415.3125 C129.6418349 431.7211698 123.09142102 451.97031406 123.4375 470.3125 C165.0175 470.3125 206.5975 470.3125 249.4375 470.3125 C245.94261577 466.80594353 245.94261577 466.80594353 242.3671875 463.3828125 C219.49346653 441.72670405 207.9605472 411.20265279 196.30078125 382.6484375 C185.21659219 354.37926521 185.21659219 354.37926521 168.4375 329.3125 C167.83164062 328.60738281 167.22578125 327.90226562 166.6015625 327.17578125 C161.67026911 321.85400082 155.05601961 317.49848871 147.6184082 317.19897461 C146.50296631 317.20421143 145.38752441 317.20944824 144.23828125 317.21484375 C142.42553711 317.21967773 142.42553711 317.21967773 140.57617188 317.22460938 C139.31353516 317.23298828 138.05089844 317.24136719 136.75 317.25 C135.47576172 317.25451172 134.20152344 317.25902344 132.88867188 317.26367188 C129.73823436 317.27547127 126.58789051 317.29193403 123.4375 317.3125 C123.42941315 318.20785965 123.42132629 319.1032193 123.41299438 320.02571106 C123.33510378 328.45725215 123.24782993 336.88863237 123.14997292 345.31996632 C123.09999388 349.65476585 123.05366405 353.98954083 123.015625 358.32446289 C122.97879239 362.50668967 122.93243811 366.68871175 122.87943649 370.87076378 C122.86088174 372.46754051 122.84577777 374.06436114 122.83415604 375.66120338 C122.81731187 377.89519914 122.78828206 380.128725 122.75634766 382.36254883 C122.74302399 383.63495926 122.72970032 384.90736969 122.7159729 386.21833801 C122.4375 389.3125 122.4375 389.3125 120.4375 392.3125 C116.99174873 393.14203271 114.4777198 393.64099046 111.0625 392.5625 C109.4375 391.3125 109.4375 391.3125 108.4375 388.3125 C108.31925718 386.02848294 108.26051101 383.7412459 108.23217773 381.4543457 C108.22227814 380.76140411 108.21237854 380.06846252 108.20217896 379.35452271 C108.1706104 377.06581022 108.14582497 374.77707699 108.12109375 372.48828125 C108.10052021 370.90072594 108.07952363 369.31317606 108.05812073 367.72563171 C108.00294139 363.54833372 107.95351388 359.37098663 107.90527344 355.19360352 C107.8550282 350.93045688 107.79935791 346.6673815 107.74414062 342.40429688 C107.63660964 334.0404232 107.53565481 325.67648897 107.4375 317.3125 C101.8275 317.3125 96.2175 317.3125 90.4375 317.3125 Z M-21.5625 360.3125 C-21.5625 369.2225 -21.5625 378.1325 -21.5625 387.3125 C-7.0425 387.3125 7.4775 387.3125 22.4375 387.3125 C22.4375 378.4025 22.4375 369.4925 22.4375 360.3125 C7.9175 360.3125 -6.6025 360.3125 -21.5625 360.3125 Z M-21.5625 403.3125 C-21.5625 412.5525 -21.5625 421.7925 -21.5625 431.3125 C-7.0425 431.3125 7.4775 431.3125 22.4375 431.3125 C22.4375 422.0725 22.4375 412.8325 22.4375 403.3125 C7.9175 403.3125 -6.6025 403.3125 -21.5625 403.3125 Z M-21.5625 447.3125 C-21.5625 454.9025 -21.5625 462.4925 -21.5625 470.3125 C-7.0425 470.3125 7.4775 470.3125 22.4375 470.3125 C22.4375 462.7225 22.4375 455.1325 22.4375 447.3125 C7.9175 447.3125 -6.6025 447.3125 -21.5625 447.3125 Z " fill="#000000" transform="translate(148.5625,21.6875)"/>
<path d="M0 0 C7.25499472 5.66953253 12.85760948 12.25711734 17.94921875 19.89453125 C20.60249341 20.48216926 23.13981285 20.91429333 25.82421875 21.26953125 C37.22022079 23.03965583 46.69026875 26.94587587 55.94921875 33.89453125 C57.17318359 34.80332031 57.17318359 34.80332031 58.421875 35.73046875 C68.54767819 44.40078555 75.9849747 58.04014126 77.1706543 71.38720703 C77.95455706 89.48884219 75.4037282 104.44475194 63.54296875 118.80859375 C51.98418534 131.14929486 37.40559912 138.35309704 20.38318443 138.99063683 C17.41353035 139.03104576 14.44527283 139.04107922 11.4753418 139.03979492 C10.35067505 139.04315353 9.2260083 139.04651215 8.06726074 139.04997253 C4.36514163 139.05943809 0.66306795 139.06142341 -3.0390625 139.0625 C-5.62444578 139.06571554 -8.20982889 139.06907983 -10.79521179 139.07258606 C-16.20942687 139.07856627 -21.62362407 139.08047007 -27.0378418 139.07983398 C-33.27146664 139.07923378 -39.50500478 139.08977987 -45.7386077 139.10557765 C-51.76352888 139.12029539 -57.78840343 139.12382026 -63.81334496 139.12322426 C-66.36368349 139.12440034 -68.91402274 139.12880111 -71.46434975 139.13655663 C-75.03921221 139.14641043 -78.6138543 139.14345718 -82.1887207 139.13745117 C-83.75160072 139.14588043 -83.75160072 139.14588043 -85.34605408 139.15447998 C-99.07028264 139.09621562 -111.09416358 136.26483847 -121.42578125 126.703125 C-129.81930475 117.36129476 -133.81475899 106.29394753 -133.3984375 93.75 C-131.80058374 80.62605503 -126.15258234 71.21242134 -116.39453125 62.62109375 C-114.05078125 60.89453125 -114.05078125 60.89453125 -110.8125 59.6015625 C-109.90113281 59.03824219 -108.98976563 58.47492188 -108.05078125 57.89453125 C-107.21328554 54.66445126 -107.21328554 54.66445126 -107.36328125 50.95703125 C-106.88234125 31.48248042 -98.28052896 16.38146242 -84.484375 3.02734375 C-60.96004152 -17.58948784 -25.11257768 -17.33121558 0 0 Z M-72.9609375 14.9609375 C-82.20717534 23.51586783 -90.33429308 34.5311095 -91.23486328 47.55712891 C-91.35858619 51.63728061 -91.42117354 55.7149262 -91.44140625 59.796875 C-91.46460938 60.79332031 -91.4878125 61.78976563 -91.51171875 62.81640625 C-91.52404541 64.17137207 -91.52404541 64.17137207 -91.53662109 65.55371094 C-92.05078125 67.89453125 -92.05078125 67.89453125 -93.95239258 69.65209961 C-96.05049713 70.89436303 -98.09254397 71.82374268 -100.36328125 72.70703125 C-107.53541971 75.83304554 -112.03295764 79.83854796 -115.32421875 86.96484375 C-118.25494055 94.74858874 -117.47070732 101.1544908 -114.17578125 108.63671875 C-110.73253006 115.54713261 -105.26933057 119.38496112 -98.10977173 121.94694519 C-93.06866944 123.34196762 -88.00937972 123.18157639 -82.81396484 123.16918945 C-81.146633 123.17685585 -81.146633 123.17685585 -79.44561768 123.18467712 C-75.78009617 123.19854743 -72.11476334 123.19761764 -68.44921875 123.1953125 C-65.88961722 123.199202 -63.33001632 123.2035372 -60.77041626 123.20829773 C-55.40567671 123.21575533 -50.04100582 123.21561196 -44.67626953 123.21020508 C-38.50570437 123.20418074 -32.33536813 123.21644146 -26.16484201 123.23777515 C-20.1981259 123.257634 -14.23147955 123.2605504 -8.26472855 123.25704002 C-5.74116098 123.25755094 -3.21758958 123.26274516 -0.69404221 123.27285194 C26.46431682 123.55219891 26.46431682 123.55219891 49.26171875 110.01953125 C52.77807149 106.28340646 55.62220029 102.469238 57.94921875 97.89453125 C58.26890625 97.27707031 58.58859375 96.65960938 58.91796875 96.0234375 C62.77632559 86.85984001 62.43560589 74.09067432 59.32421875 64.76953125 C57.20592668 59.90860839 54.43920517 55.8661865 50.94921875 51.89453125 C50.44777344 51.28867188 49.94632813 50.6828125 49.4296875 50.05859375 C42.80125849 42.6721692 32.83132685 37.85412267 22.94921875 36.89453125 C20.13115115 36.89063351 17.34045817 36.94856514 14.52734375 37.1171875 C11.21665217 36.83126414 9.58387548 35.90926875 6.94921875 33.89453125 C5.10546875 31.40625 5.10546875 31.40625 3.44921875 28.58203125 C-3.65224776 17.00983422 -13.02917658 9.20720648 -26.05078125 4.89453125 C-42.85500769 1.03782354 -59.54297031 3.67819836 -72.9609375 14.9609375 Z " fill="#000000" transform="translate(435.05078125,17.10546875)"/>
<path d="M0 0 C6.84837131 4.90491459 11.71475311 11.19187674 15.0625 18.90625 C16.85973828 30.6881454 15.73507199 40.90870679 8.9375 50.90625 C2.56751477 58.65825198 -5.535959 62.28187787 -15.375 63.59375 C-25.3871037 64.13915643 -34.17650703 61.12119568 -41.765625 54.51171875 C-49.19283072 46.6581364 -52.51251978 38.41197238 -52.375 27.59375 C-51.36457219 17.08530081 -47.4043292 9.83675485 -39.8203125 2.578125 C-28.77464104 -6.38545503 -12.16275481 -7.20163114 0 0 Z M-33.10546875 19.578125 C-35.78227649 23.82807205 -36.72143338 27.97384756 -36.0625 32.95703125 C-34.47550322 38.85867553 -31.49133539 42.3438889 -26.375 45.59375 C-21.65663223 47.90273848 -17.39200387 48.02181103 -12.375 46.59375 C-6.84775729 44.26225853 -3.34043157 41.26819208 -1 35.69921875 C0.55644926 30.45593031 0.19500115 26.31946683 -2.0625 21.34375 C-4.45904485 17.04009552 -7.37035294 14.67734301 -11.6875 12.34375 C-20.68669739 9.83234608 -27.37248921 12.37786574 -33.10546875 19.578125 Z " fill="#000000" transform="translate(167.375,148.40625)"/>
</svg>
