<?xml version="1.0" encoding="UTF-8"?>
<svg version="1.1" xmlns="http://www.w3.org/2000/svg" width="1024" height="1024">
<path d="M0 0 C337.92 0 675.84 0 1024 0 C1024 337.92 1024 675.84 1024 1024 C686.08 1024 348.16 1024 0 1024 C0 686.08 0 348.16 0 0 Z " fill="#FDFEFE" transform="translate(0,0)"/>
<path d="M0 0 C0.83026703 -0.00067474 1.66053406 -0.00134949 2.51596069 -0.00204468 C62.14322737 0.07439229 119.78655449 19.79630528 167.625 55.25 C168.23972168 55.70487793 168.85444336 56.15975586 169.48779297 56.62841797 C179.15352082 63.8467255 187.96982838 71.85870557 196.625 80.25 C197.28242187 80.88550781 197.93984375 81.52101563 198.6171875 82.17578125 C205.59954809 88.95437645 212.36959099 95.68316146 218.20703125 103.4921875 C219.52231933 105.37173293 219.52231933 105.37173293 221.625 106.25 C221.563125 104.3628125 221.563125 104.3628125 221.5 102.4375 C221.5 97.00642487 221.96537398 91.6495199 222.5 86.25 C222.57847168 85.40074951 222.65694336 84.55149902 222.73779297 83.67651367 C222.82174316 82.87576416 222.90569336 82.07501465 222.9921875 81.25 C223.10216064 80.1671875 223.10216064 80.1671875 223.21435547 79.0625 C223.625 77.25 223.625 77.25 225.625 75.25 C228.25 75.625 228.25 75.625 230.625 76.25 C230.83514205 85.35933966 230.20660957 94.25690266 229.25 103.3125 C229.06050781 105.26833008 229.06050781 105.26833008 228.8671875 107.26367188 C228.73828125 108.50826172 228.609375 109.75285156 228.4765625 111.03515625 C228.36135254 112.15801025 228.24614258 113.28086426 228.12744141 114.43774414 C227.625 117.25 227.625 117.25 225.625 120.25 C219.8151531 120.71109896 214.69144796 119.97084252 209.01171875 118.8203125 C203.70802113 117.92718695 198.35656101 117.48359223 192.99853516 117.03564453 C192.20366699 116.96200684 191.40879883 116.88836914 190.58984375 116.8125 C189.8743335 116.75191406 189.15882324 116.69132812 188.42163086 116.62890625 C186.625 116.25 186.625 116.25 184.625 114.25 C185.18055556 109.69444444 185.18055556 109.69444444 186.625 108.25 C189.10089432 108.28915648 191.53193938 108.39496053 194 108.5625 C194.71865234 108.60882568 195.43730469 108.65515137 196.17773438 108.70288086 C202.08342312 109.124998 207.83764 109.98708034 213.625 111.25 C208.73048577 105.08653763 203.80597414 99.19746308 198.05859375 93.80859375 C196.625 92.25 196.625 92.25 196.625 90.25 C196.06941406 90.02441406 195.51382812 89.79882812 194.94140625 89.56640625 C191.94059681 87.86105586 189.94562463 85.68293684 187.5625 83.1875 C182.25485532 77.74703049 176.61084142 72.94027574 170.625 68.25 C169.66335938 67.47140625 168.70171875 66.6928125 167.7109375 65.890625 C147.30839384 49.67189409 123.96763345 36.50459485 99.625 27.25 C98.66384277 26.88132812 97.70268555 26.51265625 96.71240234 26.1328125 C80.03674289 19.82152942 63.20960585 15.22678343 45.625 12.25 C44.85847107 12.11902924 44.09194214 11.98805847 43.30218506 11.8531189 C29.06113435 9.48411985 15.06578667 8.74879019 0.63964844 8.80395508 C-2.74085313 8.81247694 -6.11966293 8.78353362 -9.5 8.75195312 C-73.47572862 8.54707478 -138.40395112 36.18988601 -184.75390625 79.83984375 C-187.375 82.25 -187.375 82.25 -190.0078125 84.33203125 C-192.18945627 86.09966671 -193.89668513 87.84924467 -195.6875 90 C-198.05332603 92.77793766 -200.48419724 95.35840678 -203.125 97.875 C-239.7194794 134.04560512 -262.37221144 188.10920023 -269.375 238.25 C-269.55160156 239.48016846 -269.72820312 240.71033691 -269.91015625 241.9777832 C-271.40667541 253.02373961 -271.69514893 263.92675258 -271.625 275.0625 C-271.62189819 275.94151978 -271.61879639 276.82053955 -271.61560059 277.72619629 C-271.56353266 290.31118497 -271.42858342 302.80421108 -269.375 315.25 C-269.25141113 316.0140918 -269.12782227 316.77818359 -269.00048828 317.56542969 C-263.66822146 349.27464303 -254.08750626 383.54590443 -236.69067383 410.89819336 C-235.375 413.25 -235.375 413.25 -235.6875 416.0625 C-235.914375 416.784375 -236.14125 417.50625 -236.375 418.25 C-238.355 418.25 -240.335 418.25 -242.375 418.25 C-254.06743624 396.80626453 -264.34487714 375.04211839 -270.375 351.25 C-270.69726562 350.12980469 -271.01953125 349.00960938 -271.3515625 347.85546875 C-290.61676973 279.98605549 -280.16942045 205.62243173 -246.70703125 144.05859375 C-237.51299912 127.70839631 -226.63746094 112.42834559 -214.375 98.25 C-213.85856934 97.64148193 -213.34213867 97.03296387 -212.81005859 96.40600586 C-207.84160961 90.61530843 -202.51648336 85.20787332 -197.125 79.8125 C-196.24714844 78.92240234 -195.36929688 78.03230469 -194.46484375 77.11523438 C-188.41806809 71.05517883 -182.10128722 65.54195786 -175.375 60.25 C-174.69002441 59.70577393 -174.00504883 59.16154785 -173.29931641 58.60083008 C-163.15739902 50.62080531 -152.52067277 43.7354528 -141.375 37.25 C-140.64555176 36.81945312 -139.91610352 36.38890625 -139.16455078 35.9453125 C-111.04622156 19.40880345 -80.20102421 8.94540669 -48.125 3.5 C-46.89410645 3.28907715 -45.66321289 3.0781543 -44.39501953 2.86083984 C-29.64487413 0.4624902 -14.91015298 0.01103555 0 0 Z " fill="#369292" transform="translate(512.375,245.75)"/>
<path d="M0 0 C2.66865193 0.02141736 5.33460431 0.00013418 8.00317383 -0.02539062 C21.10202098 -0.04704249 32.73561951 1.23216496 42.73950195 10.52148438 C43.35567383 11.08480469 43.9718457 11.648125 44.60668945 12.22851562 C52.49044786 20.26453546 55.28307957 30.51051963 55.30149841 41.53944397 C55.2848871 42.905411 55.25988718 44.27130139 55.2265625 45.63696289 C55.17612756 47.74554073 55.16500804 49.85180413 55.15942383 51.9609375 C55.05251805 62.20846828 55.05251805 62.20846828 52.73950195 64.52148438 C49.64625993 64.72049143 46.64250422 64.7941002 43.5480957 64.78027344 C42.11870163 64.7855304 42.11870163 64.7855304 40.66043091 64.79089355 C37.4992146 64.79972191 34.33822068 64.7938578 31.17700195 64.78710938 C28.98746701 64.78845571 26.79793236 64.79039597 24.60839844 64.79290771 C20.01502644 64.79586048 15.42173212 64.79155643 10.82836914 64.78222656 C4.92984332 64.77083198 -0.96850051 64.77739064 -6.86701965 64.78937149 C-11.38962179 64.79658597 -15.91218052 64.79430405 -20.43478394 64.78911591 C-22.61017885 64.78777827 -24.78557765 64.78943109 -26.96096802 64.79407501 C-29.99711603 64.79913346 -33.03296608 64.79143956 -36.0690918 64.78027344 C-36.97513153 64.7843219 -37.88117126 64.78837036 -38.81466675 64.7925415 C-45.03197057 64.75001185 -45.03197057 64.75001185 -47.26049805 62.52148438 C-47.68776528 57.96588216 -47.63208179 53.3942191 -47.63110352 48.82080078 C-47.63542926 46.55747514 -47.67159625 44.29617718 -47.7097168 42.03320312 C-47.80374382 30.04571013 -45.62479619 20.5019027 -37.26049805 11.52148438 C-26.23558862 0.99183455 -14.56564039 -0.13898767 0 0 Z " fill="#F9FCFB" transform="translate(629.260498046875,606.478515625)"/>
<path d="M0 0 C3.75260122 1.48868162 4.75418422 4.10920011 6.359375 7.59765625 C6.69300049 8.29511963 7.02662598 8.99258301 7.37036133 9.71118164 C32.4144827 63.55922887 40.64830682 127.72007665 26.18945312 185.65625 C25.55113962 188.27398014 24.97824396 190.90216816 24.40625 193.53515625 C20.77501094 209.70271969 15.08244816 224.80453837 8.609375 240.03515625 C8.25617188 240.87159668 7.90296875 241.70803711 7.5390625 242.56982422 C-2.99326166 267.15059906 -18.30082966 289.62788789 -36.05322266 309.53466797 C-37.27270081 310.90285211 -38.47888561 312.28285538 -39.68359375 313.6640625 C-49.12427367 324.37725666 -59.14566861 334.22380983 -70.390625 343.03515625 C-71.23367188 343.72222656 -72.07671875 344.40929687 -72.9453125 345.1171875 C-106.92047624 372.79477416 -149.61184259 392.89882016 -192.8125 400.56591797 C-194.56895551 400.88560618 -196.32162125 401.22668226 -198.0703125 401.58642578 C-228.882305 407.897123 -264.48840195 408.07686192 -295.390625 402.03515625 C-296.02301086 401.9135614 -296.65539673 401.79196655 -297.3069458 401.66668701 C-343.36639791 392.76205095 -387.30618427 374.58055466 -423.390625 344.03515625 C-423.060625 342.38515625 -422.730625 340.73515625 -422.390625 339.03515625 C-420.6171875 338.38989258 -420.6171875 338.38989258 -418.390625 338.03515625 C-416.6015625 338.92456055 -416.6015625 338.92456055 -414.765625 340.359375 C-414.06945068 340.88756836 -413.37327637 341.41576172 -412.65600586 341.95996094 C-411.90843018 342.54165039 -411.16085449 343.12333984 -410.390625 343.72265625 C-400.79624861 350.91328977 -390.79848188 357.0994589 -380.390625 363.03515625 C-379.68647461 363.44217773 -378.98232422 363.84919922 -378.25683594 364.26855469 C-360.55676737 374.42544829 -341.16908721 382.04319971 -321.390625 387.03515625 C-320.41528809 387.28249512 -319.43995117 387.52983398 -318.43505859 387.78466797 C-299.56386037 392.52607441 -281.35985338 396.09904164 -261.84765625 396.30859375 C-260.7728299 396.32107651 -259.69800354 396.33355927 -258.59060669 396.34642029 C-234.65539069 396.57063853 -211.83998028 396.1807828 -188.390625 391.03515625 C-187.46314453 390.84824219 -186.53566406 390.66132812 -185.58007812 390.46875 C-127.63488171 378.76702746 -68.51484274 341.74673943 -33.62939453 293.73144531 C-32.31115199 291.92633117 -30.96103631 290.1483208 -29.60546875 288.37109375 C-23.22449618 279.94167773 -17.54042789 271.26597358 -12.390625 262.03515625 C-11.93042969 261.2157959 -11.47023438 260.39643555 -10.99609375 259.55224609 C19.73602451 204.30133032 32.0455451 137.36848086 19.609375 75.03515625 C19.29589111 73.44840088 19.29589111 73.44840088 18.97607422 71.82958984 C14.78127606 51.30807168 7.98256131 31.55740617 -0.91552734 12.60180664 C-4.11985162 5.74475162 -4.11985162 5.74475162 -4.390625 2.03515625 C-2.390625 0.03515625 -2.390625 0.03515625 0 0 Z " fill="#369293" transform="translate(759.390625,396.96484375)"/>
<path d="M0 0 C1.13661072 -0.00761353 2.27322144 -0.01522705 3.4442749 -0.02307129 C5.84124566 -0.03383939 8.23826321 -0.03673885 10.63525391 -0.03222656 C14.27197006 -0.03125664 17.90655787 -0.07287105 21.54296875 -0.1171875 C23.88280815 -0.12239721 26.2226548 -0.12508265 28.5625 -0.125 C29.63477844 -0.14139526 30.70705688 -0.15779053 31.81182861 -0.17468262 C41.71283821 -0.08561113 51.15869114 2.75817477 58.359375 9.84375 C59.16761719 10.62234375 59.97585938 11.4009375 60.80859375 12.203125 C61.54722656 12.95078125 62.28585937 13.6984375 63.046875 14.46875 C63.98466797 15.40460938 63.98466797 15.40460938 64.94140625 16.359375 C66.07490694 17.49543438 67.20399877 18.63591384 68.328125 19.78125 C70.84685556 22.25418546 73.51620551 24.53750064 76.20703125 26.8203125 C78.046875 28.46875 78.046875 28.46875 80.609375 31.46875 C82.94034856 33.84695563 82.94034856 33.84695563 86.28198242 33.25024414 C89.99834991 32.47882255 93.21325496 31.39929726 96.72265625 29.96484375 C97.97569948 29.46626379 99.22896176 28.96823407 100.48242188 28.47070312 C102.42016124 27.69183908 104.35541994 26.90787661 106.28686523 26.11352539 C121.09356505 20.05374989 121.09356505 20.05374989 129.046875 21.46875 C133.41316752 23.65189626 136.57026187 26.24933503 139.046875 30.46875 C140.6657327 36.51596682 140.38130884 41.16001438 137.4453125 46.6796875 C133.36473366 51.90009283 127.96317095 53.97159277 121.984375 56.2890625 C121.11546631 56.63379608 120.24655762 56.97852966 119.35131836 57.33370972 C116.58631771 58.42856679 113.81676322 59.51132586 111.046875 60.59375 C109.1845802 61.32862772 107.32259747 62.06429679 105.4609375 62.80078125 C101.31131511 64.44083239 97.15886737 66.0734482 93.00312805 67.69793701 C91.37207201 68.34061419 89.74796997 69.00090482 88.12573242 69.66552734 C83.28403155 71.53624911 78.28565559 71.36905473 73.4921875 69.44140625 C67.77586949 66.22709036 63.32884702 62.08899517 58.859375 57.32421875 C57.17312118 55.39549028 57.17312118 55.39549028 55.046875 54.46875 C55.04779679 55.30273284 55.04871859 56.13671568 55.04966831 56.99597073 C55.07172171 77.25846775 55.08828565 97.52096271 55.09868717 117.7834692 C55.10385054 127.58213163 55.11089402 137.38078606 55.12231445 147.17944336 C55.13226003 155.71673655 55.13872813 164.25402395 55.14096349 172.79132277 C55.14227082 177.31464928 55.14535802 181.83795922 55.15260506 186.36128044 C55.15936329 190.61372932 55.16149237 194.86615473 55.15998268 199.11860847 C55.1602591 200.68398287 55.16226539 202.24935801 55.16608047 203.81472778 C55.17101467 205.94263093 55.16987433 208.07044401 55.16712952 210.198349 C55.16805131 211.39207091 55.1689731 212.58579283 55.16992283 213.81568813 C55.046875 216.46875 55.046875 216.46875 54.046875 217.46875 C51.546875 217.59375 51.546875 217.59375 49.046875 217.46875 C48.046875 216.46875 48.046875 216.46875 47.92382717 213.62827969 C47.92474896 212.34606565 47.92567076 211.0638516 47.92662048 209.74278259 C47.92576606 209.03139006 47.92491163 208.31999752 47.92403132 207.58704764 C47.92237443 205.18552952 47.92790126 202.78408012 47.93334961 200.38256836 C47.93363146 198.66815696 47.93347378 196.95374544 47.9329071 195.23933411 C47.93261906 190.57011027 47.93851696 185.90091188 47.94548106 181.23169398 C47.95171339 176.35763473 47.9523183 171.48357495 47.95350647 166.60951233 C47.95662014 157.3730557 47.96483402 148.13661085 47.97485596 138.90015942 C47.98601598 128.38764135 47.99152726 117.87512272 47.99655139 107.36260021 C48.0070166 85.73131022 48.02461674 64.10003085 48.046875 42.46875 C49.89404297 41.87158203 49.89404297 41.87158203 52.046875 41.46875 C54.4921875 43.0234375 54.4921875 43.0234375 57.171875 45.34375 C58.13351562 46.16746094 59.09515625 46.99117187 60.0859375 47.83984375 C63.73087651 51.07604949 67.366751 54.3199995 70.953125 57.62109375 C74.73039682 60.95439519 77.22269385 61.97747543 82.29980469 61.85644531 C88.06275772 61.04311707 93.33376559 58.57181487 98.671875 56.34375 C99.92190661 55.8332346 101.17248022 55.32404436 102.42358398 54.81616211 C104.86747673 53.82243883 107.30767733 52.82098546 109.74658203 51.81494141 C112.5201752 50.68359115 115.30093588 49.59444988 118.10546875 48.54296875 C118.80140137 48.2795166 119.49733398 48.01606445 120.21435547 47.74462891 C121.96036601 47.08734434 123.70859946 46.43597275 125.45703125 45.78515625 C128.29591118 44.342166 129.50979738 43.23863732 131.046875 40.46875 C131.30962352 36.7245836 131.23511297 34.03346391 130.046875 30.46875 C120.09171708 29.33521594 112.23797834 32.67953626 103.296875 36.46875 C101.23502041 37.33353912 99.17130053 38.19220653 97.10101318 39.03662109 C95.23259601 39.79980098 93.37235263 40.5829038 91.51269531 41.3671875 C87.7605191 42.55976422 84.95876237 42.85453598 81.046875 42.46875 C79.12915039 41.42163086 79.12915039 41.42163086 77.64453125 39.93359375 C77.07202637 39.37841064 76.49952148 38.82322754 75.90966797 38.2512207 C75.31557129 37.64238037 74.72147461 37.03354004 74.109375 36.40625 C72.80106951 35.12730922 71.49246498 33.84867429 70.18359375 32.5703125 C69.50989746 31.90032227 68.83620117 31.23033203 68.14208984 30.54003906 C64.62385091 27.06197578 61.02305854 23.67297993 57.421875 20.28125 C56.75937744 19.64630615 56.09687988 19.0113623 55.41430664 18.35717773 C46.75648119 10.15391861 39.21495237 8.16346704 27.50390625 8.09765625 C26.49905685 8.08862778 25.49420746 8.0795993 24.45890808 8.07029724 C22.33843951 8.05583747 20.21792675 8.04691868 18.09741211 8.04321289 C14.88642336 8.03134993 11.677379 7.98214859 8.46679688 7.93164062 C-5.649009 7.81957116 -16.18111295 8.70890618 -27.234375 18.33203125 C-34.05851575 26.81567896 -33.52717395 35.31911563 -33.44921875 45.6640625 C-33.44937392 47.34219424 -33.45086591 49.02032634 -33.45362854 50.69845581 C-33.45500826 54.20359269 -33.44252388 57.70831825 -33.41967773 61.21337891 C-33.39125019 65.69677935 -33.39404798 70.17949936 -33.40676785 74.66295052 C-33.41373459 78.12374647 -33.40592514 81.5843862 -33.39351082 85.0451622 C-33.38900908 86.69810257 -33.38864831 88.35105978 -33.39257622 90.00400162 C-33.39549944 92.31567844 -33.3789313 94.62642883 -33.35717773 96.93798828 C-33.35177475 98.25066681 -33.34637177 99.56334534 -33.34080505 100.915802 C-32.79749651 105.89502906 -31.234598 109.187277 -27.703125 112.71875 C-24.54356767 114.72937739 -21.55412372 115.50510246 -17.953125 116.46875 C-17.95756622 115.57116974 -17.96200745 114.67358948 -17.96658325 113.74880981 C-18.0066074 105.30237745 -18.03708258 96.85597679 -18.05674934 88.40947151 C-18.0672 84.06672251 -18.08138247 79.72405167 -18.10400391 75.38134766 C-18.12568674 71.19276025 -18.13768396 67.00424816 -18.14287949 62.81560898 C-18.14658347 61.2151661 -18.15381613 59.61472749 -18.16458511 58.01431656 C-18.17903963 55.77784468 -18.18110551 53.54168663 -18.18017578 51.30517578 C-18.184617 50.03054474 -18.18905823 48.7559137 -18.19363403 47.44265747 C-17.953125 44.46875 -17.953125 44.46875 -15.953125 42.46875 C-11.39756944 43.02430556 -11.39756944 43.02430556 -9.953125 44.46875 C-9.85172949 46.66640287 -9.82234413 48.86737878 -9.81941223 51.06736755 C-9.81714667 51.7650983 -9.81488112 52.46282905 -9.81254691 53.18170315 C-9.80617916 55.53708616 -9.80703804 57.89241203 -9.80786133 60.24780273 C-9.80487157 61.92941361 -9.80146947 63.61102379 -9.79768372 65.29263306 C-9.78882097 69.87314421 -9.78650465 74.45363671 -9.78586793 79.03415561 C-9.78492074 82.85148348 -9.78124466 86.66880697 -9.77769583 90.48613316 C-9.76954266 99.48856042 -9.76711239 108.49097767 -9.76782227 117.4934082 C-9.76842332 126.79502315 -9.75786801 136.09658015 -9.7420786 145.39818043 C-9.72902464 153.37099241 -9.72363746 161.34378541 -9.72427768 169.31660801 C-9.72453329 174.08421014 -9.7216472 178.85176081 -9.71109962 183.61935234 C-9.70145458 188.10166115 -9.70131459 192.58386892 -9.70861626 197.06618118 C-9.70966659 198.71498956 -9.70727283 200.36380412 -9.7012558 202.01260185 C-9.69359585 204.2562383 -9.69814035 206.49952057 -9.70588684 208.7431488 C-9.70534207 210.0010192 -9.70479731 211.2588896 -9.70423603 212.55487728 C-9.953125 215.46875 -9.953125 215.46875 -11.953125 217.46875 C-14.515625 217.65625 -14.515625 217.65625 -16.953125 217.46875 C-18.82000077 215.60187423 -18.07318998 212.92593552 -18.07754517 210.44242859 C-18.07394989 209.57640518 -18.07035461 208.71038177 -18.06665039 207.81811523 C-18.06679642 206.91088715 -18.06694244 206.00365906 -18.0670929 205.06893921 C-18.06639341 202.05505015 -18.05859934 199.04122207 -18.05078125 196.02734375 C-18.0489172 193.94369033 -18.04749324 191.86003646 -18.04649353 189.77638245 C-18.04266734 184.28051554 -18.0328362 178.78467487 -18.02178955 173.28881836 C-18.0115776 167.68538773 -18.00699637 162.08195287 -18.00195312 156.47851562 C-17.99121402 145.47524886 -17.97413639 134.47200161 -17.953125 123.46875 C-19.22526855 123.48550781 -20.49741211 123.50226563 -21.80810547 123.51953125 C-27.04540422 123.58852163 -30.01150321 121.84844637 -33.953125 118.46875 C-39.96259348 111.99394657 -42.18587457 105.97292567 -42.25952148 97.09326172 C-42.267845 96.38014328 -42.27616852 95.66702484 -42.28474426 94.93229675 C-42.30872726 92.58762043 -42.31760392 90.24322328 -42.32421875 87.8984375 C-42.33319727 86.25424117 -42.34231932 84.61004561 -42.35157776 82.96585083 C-42.36804092 79.52115909 -42.3757624 76.07656419 -42.37866211 72.63183594 C-42.38402883 68.24743086 -42.42164863 63.86395458 -42.46740627 59.47981071 C-42.49736138 56.08227336 -42.50438971 52.68495413 -42.50538826 49.2872963 C-42.50955771 47.67275892 -42.52185817 46.05821888 -42.54290581 44.44381332 C-42.68571456 32.53805169 -41.41896009 21.13086741 -32.8125 12.05859375 C-22.71129334 3.42163764 -13.0735432 0.00243732 0 0 Z " fill="#369293" transform="translate(331.953125,480.53125)"/>
<path d="M0 0 C27.21129587 0.31052918 57.76302808 4.565629 82.49829102 16.51245117 C87.13154601 18.78351727 87.13154601 18.78351727 92.15869141 18.89599609 C94.51001254 18.02143347 96.6659039 16.97998341 98.88647461 15.81347656 C100.54519126 15.03140441 102.20807872 14.2581249 103.87475586 13.49316406 C104.7082959 13.10741211 105.54183594 12.72166016 106.40063477 12.32421875 C117.17596373 7.67205354 129.25538552 5.49866127 140.78198242 3.60693359 C142.97685701 3.23568914 145.16082222 2.82041821 147.34741211 2.40332031 C161.65956432 -0.18112666 176.37049118 -0.73742219 190.88647461 0.25097656 C192.75447824 2.11898019 192.02405114 5.26737175 192.03173828 7.75854492 C192.03509689 8.4382283 192.03845551 9.11791168 192.04191589 9.81819153 C192.05145206 12.0757528 192.05337034 14.33324012 192.05444336 16.59082031 C192.05765412 18.15401745 192.06101805 19.71721428 192.06452942 21.28041077 C192.07052739 24.5615407 192.07236864 27.84264427 192.07177734 31.1237793 C192.07167569 35.335231 192.08532825 39.54651424 192.10254955 43.75792599 C192.11364971 46.98776532 192.11569717 50.21756366 192.11516762 53.44742012 C192.11635073 55.00040836 192.12079091 56.55339756 192.12849998 58.10636711 C192.13825999 60.27570379 192.13543789 62.44467149 192.12939453 64.61401367 C192.13081955 65.85009872 192.13224457 67.08618378 192.13371277 68.35972595 C191.88647461 71.25097656 191.88647461 71.25097656 189.88647461 73.25097656 C185.33091905 72.69542101 185.33091905 72.69542101 183.88647461 71.25097656 C183.79242319 69.25665927 183.76904212 67.25898113 183.77294922 65.26245117 C183.77302475 63.98119858 183.77310028 62.69994598 183.7731781 61.37986755 C183.77828552 59.97101809 183.78350152 58.56216901 183.78881836 57.15332031 C183.79068259 55.71985422 183.79210647 54.28638749 183.79310608 52.85292053 C183.79693089 49.073377 183.80676084 45.29387166 183.81781006 41.51434326 C183.82802498 37.66028358 183.83260387 33.80621774 183.83764648 29.95214844 C183.84838315 22.3850737 183.86545912 14.81803047 183.88647461 7.25097656 C163.8270207 8.5329372 163.8270207 8.5329372 143.94897461 11.37597656 C142.81492187 11.58407959 141.68086914 11.79218262 140.51245117 12.0065918 C124.94151099 15.01973391 108.99925158 18.88279416 94.88647461 26.25097656 C94.22647461 26.25097656 93.56647461 26.25097656 92.88647461 26.25097656 C92.88647461 69.48097656 92.88647461 112.71097656 92.88647461 157.25097656 C97.83647461 155.27097656 102.78647461 153.29097656 107.88647461 151.25097656 C111.60688922 150.11516478 115.24683333 149.05724429 119.01147461 148.12597656 C119.97794922 147.88153809 120.94442383 147.63709961 121.94018555 147.38525391 C150.80516685 140.23241197 150.80516685 140.23241197 162.88647461 141.25097656 C163.51147461 143.62597656 163.51147461 143.62597656 163.88647461 146.25097656 C161.51605841 148.62139276 160.50775397 148.67424628 157.25756836 149.18066406 C156.31373291 149.33390137 155.36989746 149.48713867 154.39746094 149.64501953 C152.87608521 149.88309326 152.87608521 149.88309326 151.32397461 150.12597656 C132.04194611 153.32548427 111.7671198 157.25736684 93.95678711 165.58691406 C87.44380969 167.67598229 82.28682213 165.0441758 76.32397461 162.56347656 C65.70202743 158.33392716 55.06373617 155.56398538 43.88647461 153.25097656 C43.1768457 153.09790039 42.4672168 152.94482422 41.73608398 152.78710938 C26.51250782 149.51440822 10.99329147 148.15549131 -4.55444336 147.68017578 C-9.89878616 147.4657158 -9.89878616 147.4657158 -12.11352539 145.25097656 C-12.3742218 143.36024475 -12.3742218 143.36024475 -12.38818359 141.0324707 C-12.39771561 140.16139175 -12.40724762 139.29031281 -12.41706848 138.39283752 C-12.41615707 137.45012497 -12.41524567 136.50741241 -12.41430664 135.53613281 C-12.41859177 134.56945175 -12.42287689 133.60277069 -12.42729187 132.60679626 C-12.43304151 130.55989364 -12.43353079 128.51297057 -12.42919922 126.46606445 C-12.42604158 123.32956143 -12.44948261 120.19400332 -12.47485352 117.05761719 C-12.47712662 115.07129026 -12.47782995 113.08496078 -12.47680664 111.09863281 C-12.48601639 110.15794449 -12.49522614 109.21725616 -12.50471497 108.24806213 C-12.49848618 107.37383102 -12.49225739 106.49959991 -12.48583984 105.59887695 C-12.48646927 104.82991592 -12.48709869 104.0609549 -12.48774719 103.26869202 C-12.01447081 100.71689771 -11.1657398 99.79711699 -9.11352539 98.25097656 C-6.97606617 98.50244235 -5.6542676 98.71023435 -4.11352539 100.25097656 C-4.0248424 103.20802977 -3.99832243 106.14162712 -4.01586914 109.09863281 C-4.01728409 109.98505966 -4.01869904 110.87148651 -4.02015686 111.78477478 C-4.02577324 114.62770911 -4.03832848 117.47056587 -4.05102539 120.31347656 C-4.05603828 122.23600147 -4.06060155 124.15852761 -4.06469727 126.08105469 C-4.07574798 130.80439205 -4.09302356 135.52767114 -4.11352539 140.25097656 C-2.75964722 140.24118774 -2.75964722 140.24118774 -1.37841797 140.23120117 C27.11907045 140.11218614 60.06316501 144.33932176 85.88647461 157.25097656 C85.88647461 114.02097656 85.88647461 70.79097656 85.88647461 26.25097656 C83.90647461 25.59097656 81.92647461 24.93097656 79.88647461 24.25097656 C78.27910301 23.50787009 76.67511301 22.7574199 75.07397461 22.00097656 C64.80463624 17.66759783 53.73137296 15.64890817 42.88647461 13.25097656 C42.15976562 13.0832373 41.43305664 12.91549805 40.68432617 12.74267578 C26.0363718 9.37493718 10.83007277 8.56431276 -4.11352539 7.25097656 C-4.10305176 8.36134277 -4.09257812 9.47170898 -4.08178711 10.61572266 C-4.0456459 14.72685535 -4.02264643 18.83797395 -4.00366211 22.94921875 C-3.99359108 24.73016723 -3.97993354 26.51109913 -3.96264648 28.29199219 C-3.93844626 30.84867439 -3.92705355 33.40513841 -3.91821289 35.96191406 C-3.90789032 36.76092133 -3.89756775 37.55992859 -3.88693237 38.38314819 C-3.88653313 40.34054876 -3.99111471 42.29740733 -4.11352539 44.25097656 C-4.77352539 44.91097656 -5.43352539 45.57097656 -6.11352539 46.25097656 C-10.66908095 45.69542101 -10.66908095 45.69542101 -12.11352539 44.25097656 C-12.2113788 42.90553329 -12.24150524 41.55505094 -12.24291992 40.20605469 C-12.24607208 39.34846558 -12.24922424 38.49087646 -12.25247192 37.6072998 C-12.25044769 36.67502563 -12.24842346 35.74275146 -12.24633789 34.78222656 C-12.24729462 33.83158325 -12.24825134 32.88093994 -12.24923706 31.90148926 C-12.24991896 29.88728774 -12.24806401 27.87308404 -12.24389648 25.85888672 C-12.23854837 22.76427302 -12.24384116 19.66980447 -12.25024414 16.57519531 C-12.24958336 14.62337207 -12.2483022 12.67154893 -12.24633789 10.71972656 C-12.24836212 9.78745239 -12.25038635 8.85517822 -12.25247192 7.89465332 C-12.24931976 7.03706421 -12.2461676 6.1794751 -12.24291992 5.29589844 C-12.24212433 4.53724487 -12.24132874 3.77859131 -12.24050903 2.99694824 C-11.8871668 -1.86135882 -3.69481142 0.00134835 0 0 Z " fill="#339292" transform="translate(432.113525390625,458.7490234375)"/>
<path d="M0 0 C6.21342966 4.8028132 9.54512212 10.63536637 12 18 C12.95279927 28.99624079 11.4545422 38.14332121 4.4375 46.875 C-2.29686607 53.75764569 -9.47323346 56.45360306 -19.0625 56.625 C-28.41356236 56.46849228 -34.60105174 53.47759482 -41.375 47.1875 C-48.36095971 39.70758355 -50.3801417 31.92968287 -50.28515625 21.84765625 C-49.83666281 17.36886562 -48.18974018 13.88354618 -46 10 C-45.443125 8.96875 -44.88625 7.9375 -44.3125 6.875 C-32.62866293 -7.65085149 -15.50210054 -10.1627374 0 0 Z " fill="#FBFDFC" transform="translate(369,415)"/>
<path d="M0 0 C5.79121376 0.48260115 8.88849512 3.74062676 12.61328125 7.9609375 C13.52206277 9.09175087 14.42145133 10.23016158 15.3125 11.375 C15.78816406 11.98496826 16.26382813 12.59493652 16.75390625 13.22338867 C26.60776736 26.1449925 34.01777166 39.23697392 32 56 C29.81937069 62.94570819 25.23097368 67.44252368 19 71 C13.58414432 73.75740277 9.24011598 74.55130966 3.1875 74.5 C1.9977356 74.49033203 1.9977356 74.49033203 0.78393555 74.48046875 C-7.98443161 74.20766314 -13.85804367 71.55585612 -19.9375 65.1875 C-24.55990955 59.35497852 -26.81442469 53.32277279 -26.52734375 45.82421875 C-24.66142802 35.83120342 -18.51864689 28.00577908 -11.92871094 20.6315918 C-7.23995006 15.32937109 -4.48454244 9.81269942 -1.94140625 3.28125 C-1 1 -1 1 0 0 Z " fill="#339494" transform="translate(518,386)"/>
<path d="M0 0 C7.81282426 4.69293806 13.78072461 11.0855006 16.4375 19.9375 C17.7971068 31.11251375 16.2629778 39.31633608 9.375 48.125 C3.49136557 54.3189527 -2.82456356 58.0859804 -11.48681641 58.6484375 C-20.79030259 58.82352075 -27.86756486 56.37304645 -34.68359375 49.93359375 C-42.24811283 41.64564873 -44.15135412 34.91833394 -43.90234375 23.7734375 C-43.20347399 15.88504549 -39.37682696 9.73348499 -33.546875 4.4765625 C-23.91716552 -2.99214918 -11.36276111 -5.22166579 0 0 Z " fill="#FBFDFC" transform="translate(704.5625,502.0625)"/>
<path d="M0 0 C7.85143449 4.75358959 13.28011409 11.02015862 15.95703125 19.859375 C17.81543433 29.09928564 16.11723913 38.06949189 11.0546875 46.0078125 C5.35648145 53.20062998 -2.24970048 57.16726731 -11.30859375 58.26171875 C-20.65542352 58.80867238 -28.04230812 56.01100389 -35.05078125 49.78125 C-41.32764433 43.07980934 -44.19148831 36.65407549 -44.0625 27.5 C-44.05492676 26.7486377 -44.04735352 25.99727539 -44.03955078 25.22314453 C-43.87276224 19.63146722 -43.09082932 15.45720218 -39.625 10.9375 C-39.22410156 10.339375 -38.82320312 9.74125 -38.41015625 9.125 C-29.59481819 -2.7309909 -13.29389085 -6.08880497 0 0 Z " fill="#FAFDFC" transform="translate(646.625,541.0625)"/>
<path d="M0 0 C2.66865193 0.02141736 5.33460431 0.00013418 8.00317383 -0.02539062 C21.10202098 -0.04704249 32.73561951 1.23216496 42.73950195 10.52148438 C43.35567383 11.08480469 43.9718457 11.648125 44.60668945 12.22851562 C52.49044786 20.26453546 55.28307957 30.51051963 55.30149841 41.53944397 C55.2848871 42.905411 55.25988718 44.27130139 55.2265625 45.63696289 C55.17612756 47.74554073 55.16500804 49.85180413 55.15942383 51.9609375 C55.05251805 62.20846828 55.05251805 62.20846828 52.73950195 64.52148438 C49.64625993 64.72049143 46.64250422 64.7941002 43.5480957 64.78027344 C42.11870163 64.7855304 42.11870163 64.7855304 40.66043091 64.79089355 C37.4992146 64.79972191 34.33822068 64.7938578 31.17700195 64.78710938 C28.98746701 64.78845571 26.79793236 64.79039597 24.60839844 64.79290771 C20.01502644 64.79586048 15.42173212 64.79155643 10.82836914 64.78222656 C4.92984332 64.77083198 -0.96850051 64.77739064 -6.86701965 64.78937149 C-11.38962179 64.79658597 -15.91218052 64.79430405 -20.43478394 64.78911591 C-22.61017885 64.78777827 -24.78557765 64.78943109 -26.96096802 64.79407501 C-29.99711603 64.79913346 -33.03296608 64.79143956 -36.0690918 64.78027344 C-36.97513153 64.7843219 -37.88117126 64.78837036 -38.81466675 64.7925415 C-45.03197057 64.75001185 -45.03197057 64.75001185 -47.26049805 62.52148438 C-47.68776528 57.96588216 -47.63208179 53.3942191 -47.63110352 48.82080078 C-47.63542926 46.55747514 -47.67159625 44.29617718 -47.7097168 42.03320312 C-47.80374382 30.04571013 -45.62479619 20.5019027 -37.26049805 11.52148438 C-26.23558862 0.99183455 -14.56564039 -0.13898767 0 0 Z M-33.26049805 17.52148438 C-37.94201816 23.84219221 -40.53484944 29.81199318 -40.45581055 37.79492188 C-40.44936523 38.94863281 -40.44291992 40.10234375 -40.4362793 41.29101562 C-40.41952148 42.48082031 -40.40276367 43.670625 -40.38549805 44.89648438 C-40.37647461 46.10949219 -40.36745117 47.3225 -40.3581543 48.57226562 C-40.33466486 51.55542367 -40.29879625 54.5384797 -40.26049805 57.52148438 C-34.98049805 57.52148438 -29.70049805 57.52148438 -24.26049805 57.52148438 C-23.93049805 51.58148437 -23.60049805 45.64148438 -23.26049805 39.52148438 C-21.61049805 39.85148438 -19.96049805 40.18148437 -18.26049805 40.52148438 C-17.76549805 48.93648437 -17.76549805 48.93648437 -17.26049805 57.52148438 C-3.73049805 57.52148438 9.79950195 57.52148438 23.73950195 57.52148438 C24.06950195 51.91148437 24.39950195 46.30148437 24.73950195 40.52148438 C26.38950195 40.19148437 28.03950195 39.86148438 29.73950195 39.52148438 C31.85875799 41.64074042 31.15781213 46.14109368 31.30200195 49.08398438 C31.34518555 49.89029297 31.38836914 50.69660156 31.43286133 51.52734375 C31.53925457 53.52517242 31.63991083 55.52330507 31.73950195 57.52148438 C36.68950195 57.52148438 41.63950195 57.52148438 46.73950195 57.52148438 C46.84800973 53.20830025 46.92707866 48.89788005 46.98950195 44.58398438 C47.02301758 43.37162109 47.0565332 42.15925781 47.09106445 40.91015625 C47.2045669 30.43955508 45.02263202 23.06836893 37.87231445 15.31445312 C28.41206928 7.36160965 17.38215366 7.25703063 5.71606445 7.17138672 C4.07920006 7.15492771 2.44240449 7.12777242 0.8059082 7.08935547 C-11.9282349 6.79267264 -23.93488458 7.74096293 -33.26049805 17.52148438 Z " fill="#339191" transform="translate(629.260498046875,606.478515625)"/>
<path d="M0 0 C4.55555556 0.55555556 4.55555556 0.55555556 6 2 C6.09391296 3.90243762 6.11743658 5.80838459 6.11352539 7.71313477 C6.11344986 8.9343251 6.11337433 10.15551544 6.11329651 11.41371155 C6.10818911 12.75627686 6.10297311 14.09884175 6.09765625 15.44140625 C6.09579199 16.80761158 6.09436813 18.17381757 6.09336853 19.5400238 C6.08954394 23.14201695 6.07971417 26.74397 6.06866455 30.34594727 C6.05844916 34.01903745 6.05387064 37.69213409 6.04882812 41.36523438 C6.03809184 48.57684123 6.02101614 55.788415 6 63 C7.09358826 62.99111755 8.18717651 62.98223511 9.31390381 62.9730835 C19.61390095 62.89203897 29.9138335 62.83205443 40.214077 62.79275131 C45.50971503 62.77186592 50.80509591 62.74353068 56.10058594 62.69824219 C61.20990785 62.65481872 66.31898224 62.63087007 71.42847443 62.62049103 C73.37896879 62.61309339 75.32944942 62.59864767 77.27983856 62.57707977 C80.00944928 62.54809228 82.73803387 62.54404204 85.46777344 62.54589844 C86.27625732 62.53151733 87.08474121 62.51713623 87.91772461 62.50231934 C91.53526775 62.52898571 93.56132484 62.65818184 96.46026611 64.91705322 C97.80753434 66.7396331 99.03209516 68.55219108 100.1875 70.5 C103.26278713 74.84653044 106.90934631 76.65827732 112 78 C118.99815717 79.08292651 124.64147483 78.07154258 130.83203125 74.63671875 C134.28532513 72.02963742 136.16673783 68.86264077 138 65 C138.33 64.34 138.66 63.68 139 63 C143.53897705 62.97534608 148.07791543 62.95716211 152.61694336 62.94506836 C154.16219766 62.9400286 155.70744716 62.9331968 157.25268555 62.92456055 C159.46925029 62.91247924 161.68575218 62.90676827 163.90234375 62.90234375 C164.5971434 62.89718246 165.29194305 62.89202118 166.00779724 62.88670349 C167.6722933 62.88650723 169.33665499 62.93810871 171 63 C172 64 172 64 172.125 67 C172 70 172 70 171 71 C169.05851527 71.07281511 167.11467412 71.0843327 165.171875 71.0703125 C163.38330078 71.08578125 163.38330078 71.08578125 161.55859375 71.1015625 C159.03519194 71.11709113 156.51153495 71.10956741 153.98828125 71.078125 C147.65083421 70.91546293 147.65083421 70.91546293 142.16601562 73.51733398 C140.94976725 75.29258167 139.98487043 77.09037887 139 79 C136.9375 80.70703125 136.9375 80.70703125 135 81.8125 C134.360625 82.19019531 133.72125 82.56789063 133.0625 82.95703125 C124.7898237 87.14037324 114.92624248 87.56113293 105.9453125 85.1953125 C101.16351958 83.03531258 98.80760073 80.74989206 96.01123047 76.37060547 C92.41262656 72.27448245 89.58717021 71.39312482 84.35695076 71.01283455 C79.69441928 70.87089568 75.04595483 70.92505051 70.3828125 71.0078125 C68.35879473 71.0097783 66.33476833 71.00734144 64.3107605 71.0007019 C59.00085868 70.99309187 53.69267508 71.03647781 48.38311768 71.09332275 C39.86457273 71.17614482 31.34568957 71.18262497 22.82680893 71.18636703 C19.84943854 71.19522584 16.8729494 71.22667658 13.89578247 71.26150513 C12.08172862 71.27133495 10.26767222 71.28070874 8.45361328 71.28955078 C7.62245499 71.30512527 6.79129669 71.32069977 5.93495178 71.33674622 C3.64138794 71.33816528 3.64138794 71.33816528 0 71 C-2.38071067 67.428934 -2.25297315 65.87168616 -2.25878906 61.63256836 C-2.26509338 60.31788071 -2.27139771 59.00319305 -2.27789307 57.64866638 C-2.27431366 56.21239081 -2.27021179 54.77611646 -2.265625 53.33984375 C-2.26697208 51.86918575 -2.26891297 50.39852818 -2.27142334 48.9278717 C-2.27437168 45.84697222 -2.27008571 42.76618874 -2.26074219 39.68530273 C-2.24933771 35.73171495 -2.2559151 31.77839839 -2.26788712 27.82482052 C-2.27510503 24.78884324 -2.2728183 21.75293056 -2.26763153 18.71695137 C-2.26629536 17.25886567 -2.26794163 15.80077414 -2.27259064 14.34269524 C-2.27765555 12.3078103 -2.26857032 10.27290484 -2.25878906 8.23803711 C-2.25719788 7.07904404 -2.25560669 5.92005096 -2.25396729 4.72593689 C-2 2 -2 2 0 0 Z " fill="#399595" transform="translate(404,558)"/>
<path d="M0 0 C5.40496622 0.12845441 8.20123095 3.61929799 11.8125 7.1875 C13.06044413 8.3745609 14.31042658 9.55948285 15.5625 10.7421875 C16.15804688 11.30776367 16.75359375 11.87333984 17.3671875 12.45605469 C24.18400379 18.95611523 24.18400379 18.95611523 33.2902832 20.38989258 C38.97545179 19.57187165 44.17002051 17.13897861 49.4375 14.9375 C50.67958762 14.43218898 51.9223521 13.9285387 53.16577148 13.42651367 C55.63280878 12.42853023 58.09586385 11.42224527 60.55761719 10.41113281 C65.21011795 8.50393746 69.88129583 6.64787066 74.5625 4.8125 C75.28687256 4.52173584 76.01124512 4.23097168 76.75756836 3.93139648 C79.66722185 2.78454395 81.8409073 2 85 2 C87 4 87 4 87.0625 5.875 C84.39923053 11.20153893 75.70606414 13.4912554 70.3984375 15.6015625 C69.59894684 15.92410004 68.79945618 16.24663757 67.97573853 16.57894897 C65.4440365 17.59904314 62.90959816 18.6121263 60.375 19.625 C58.66648057 20.3120374 56.95814544 20.99953331 55.25 21.6875 C51.44396907 23.2192243 47.63677537 24.7479554 43.82606506 26.26800537 C42.25528203 26.8976679 40.68928331 27.53924213 39.12426758 28.18310547 C34.25865363 30.05419434 29.26472086 29.91073637 24.4453125 27.97265625 C18.72899449 24.75834036 14.28197202 20.62024517 9.8125 15.85546875 C8.12624618 13.92674028 8.12624618 13.92674028 6 13 C6.00092179 13.83398284 6.00184359 14.66796568 6.00279331 15.52722073 C6.02484671 35.78971775 6.04141065 56.05221271 6.05181217 76.3147192 C6.05697554 86.11338163 6.06401902 95.91203606 6.07543945 105.71069336 C6.08538503 114.24798655 6.09185313 122.78527395 6.09408849 131.32257277 C6.09539582 135.84589928 6.09848302 140.36920922 6.10573006 144.89253044 C6.11248829 149.14497932 6.11461737 153.39740473 6.11310768 157.64985847 C6.1133841 159.21523287 6.11539039 160.78060801 6.11920547 162.34597778 C6.12413967 164.47388093 6.12299933 166.60169401 6.12025452 168.729599 C6.12117631 169.92332091 6.1220981 171.11704283 6.12304783 172.34693813 C6 175 6 175 5 176 C2.5 176.125 2.5 176.125 0 176 C-1.89224716 174.10775284 -1.12624449 170.79196878 -1.12698364 168.28076172 C-1.12854363 167.57007475 -1.13010362 166.85938778 -1.13171089 166.12716484 C-1.13572329 163.7279851 -1.13253033 161.3288678 -1.12939453 158.9296875 C-1.13074847 157.21689822 -1.13252835 155.50410923 -1.13470459 153.7913208 C-1.13927985 149.12616518 -1.13748898 144.46103157 -1.1343255 139.79587555 C-1.13180238 134.92495156 -1.13413931 130.05402952 -1.13571167 125.18310547 C-1.13753351 117.00162414 -1.13512669 108.82015183 -1.13037109 100.63867188 C-1.12492845 91.16550665 -1.12669109 81.69236293 -1.1321975 72.21919823 C-1.13672823 64.10118106 -1.13737937 55.98317038 -1.13475883 47.86515236 C-1.13319583 43.00984977 -1.1330029 38.15455732 -1.13629532 33.29925537 C-1.13917346 28.7357151 -1.13719941 24.17220271 -1.13140106 19.60866547 C-1.13007315 17.92880042 -1.1304681 16.24893305 -1.13266373 14.56906891 C-1.13537404 12.28575982 -1.1319956 10.0025415 -1.12698364 7.71923828 C-1.12660662 6.43832306 -1.12622959 5.15740784 -1.12584114 3.837677 C-1 1 -1 1 0 0 Z " fill="#2E8E8E" transform="translate(381,522)"/>
<path d="M0 0 C1.12902992 -0.0049926 1.12902992 -0.0049926 2.28086853 -0.01008606 C3.87888986 -0.01515547 5.47692181 -0.01749438 7.07495117 -0.01733398 C9.49351109 -0.01950094 11.91160015 -0.03760139 14.33007812 -0.05664062 C28.46923898 -0.11061598 39.34203076 1.49785749 50.21484375 11.29296875 C59.71804612 21.92653456 60.2877427 32.34501973 59.90234375 45.85546875 C59.88077057 47.52666012 59.86187179 49.19788823 59.84570312 50.86914062 C59.67855465 62.95425785 59.67855465 62.95425785 58.46484375 64.16796875 C56.93001405 64.26116324 55.39092293 64.28542675 53.85327148 64.28149414 C52.87233017 64.28141861 51.89138885 64.28134308 50.88072205 64.28126526 C49.81406815 64.27610397 48.74741425 64.27094269 47.6484375 64.265625 C46.01915062 64.26350258 46.01915062 64.26350258 44.35694885 64.26133728 C40.872053 64.25571923 37.38722033 64.24316367 33.90234375 64.23046875 C31.54622488 64.22545608 29.19010501 64.22089277 26.83398438 64.21679688 C21.04424911 64.20574394 15.25455094 64.18898826 9.46484375 64.16796875 C8.83984375 61.79296875 8.83984375 61.79296875 8.46484375 59.16796875 C10.46484375 57.16796875 10.46484375 57.16796875 12.43603516 56.94091797 C13.22155762 56.9513916 14.00708008 56.96186523 14.81640625 56.97265625 C15.6671875 56.97910156 16.51796875 56.98554687 17.39453125 56.9921875 C18.28398438 57.00894531 19.1734375 57.02570312 20.08984375 57.04296875 C21.435625 57.05650391 21.435625 57.05650391 22.80859375 57.0703125 C25.02760961 57.09391905 27.24609452 57.12684565 29.46484375 57.16796875 C29.45324219 55.95238281 29.44164062 54.73679687 29.4296875 53.484375 C29.42031097 51.89974111 29.41121062 50.31510557 29.40234375 48.73046875 C29.39396484 47.92802734 29.38558594 47.12558594 29.37695312 46.29882812 C29.36832945 44.25501654 29.41256225 42.21112973 29.46484375 40.16796875 C30.46484375 39.16796875 30.46484375 39.16796875 33.52734375 39.10546875 C34.49671875 39.12609375 35.46609375 39.14671875 36.46484375 39.16796875 C38.05896659 42.35621443 37.5665911 45.79693537 37.52734375 49.29296875 C37.52283203 50.04707031 37.51832031 50.80117188 37.51367188 51.578125 C37.50187874 53.44144002 37.48394317 55.3047143 37.46484375 57.16796875 C42.41484375 57.16796875 47.36484375 57.16796875 52.46484375 57.16796875 C52.4587858 52.91528753 52.41092751 48.6696664 52.33984375 44.41796875 C52.34242188 43.23074219 52.345 42.04351563 52.34765625 40.8203125 C52.14432372 31.51784921 50.18478074 22.9861174 43.47021484 16.13183594 C33.61534 7.85723514 21.62240578 8.69427582 9.52734375 8.60546875 C6.9690137 8.58166698 4.4110211 8.55363232 1.85289001 8.51368713 C0.26932097 8.48934762 -1.31442812 8.47447478 -2.8981781 8.47007751 C-8.31052929 8.39259571 -8.31052929 8.39259571 -10.53515625 6.16796875 C-10.28515625 3.60546875 -10.28515625 3.60546875 -9.53515625 1.16796875 C-6.49657618 -0.35132129 -3.3336367 0.00510263 0 0 Z " fill="#379292" transform="translate(681.53515625,567.83203125)"/>
<path d="M0 0 C6.21342966 4.8028132 9.54512212 10.63536637 12 18 C12.95279927 28.99624079 11.4545422 38.14332121 4.4375 46.875 C-2.29686607 53.75764569 -9.47323346 56.45360306 -19.0625 56.625 C-28.41356236 56.46849228 -34.60105174 53.47759482 -41.375 47.1875 C-48.36095971 39.70758355 -50.3801417 31.92968287 -50.28515625 21.84765625 C-49.83666281 17.36886562 -48.18974018 13.88354618 -46 10 C-45.443125 8.96875 -44.88625 7.9375 -44.3125 6.875 C-32.62866293 -7.65085149 -15.50210054 -10.1627374 0 0 Z M-38.7734375 12.25390625 C-42.93312104 18.17549396 -42.6551548 23.9342799 -42 31 C-39.96633716 39.23207235 -34.98643017 43.28197943 -28.25 47.875 C-21.82451199 50.09920739 -15.42034953 49.89790231 -9.125 47.3125 C-1.30480907 43.31179626 2.30414393 37.08756821 5 29 C6.04770951 21.68100071 4.10690835 16.06257899 0 10 C-4.33576835 5.20991424 -8.75529769 2.36827565 -15.26953125 1.62890625 C-26.35668953 1.42109843 -31.78200511 3.7977883 -38.7734375 12.25390625 Z " fill="#339192" transform="translate(369,415)"/>
<path d="M0 0 C7.81282426 4.69293806 13.78072461 11.0855006 16.4375 19.9375 C17.7971068 31.11251375 16.2629778 39.31633608 9.375 48.125 C3.49136557 54.3189527 -2.82456356 58.0859804 -11.48681641 58.6484375 C-20.79030259 58.82352075 -27.86756486 56.37304645 -34.68359375 49.93359375 C-42.24811283 41.64564873 -44.15135412 34.91833394 -43.90234375 23.7734375 C-43.20347399 15.88504549 -39.37682696 9.73348499 -33.546875 4.4765625 C-23.91716552 -2.99214918 -11.36276111 -5.22166579 0 0 Z M-31.5625 12.9375 C-35.27672743 18.62154197 -37.91926631 24.10198214 -36.5625 30.9375 C-34.39368062 39.46459732 -30.09992268 44.49688382 -22.6953125 49.09765625 C-17.12918596 51.289446 -10.31325484 50.7345516 -4.6640625 49.09765625 C1.38808505 46.39872559 4.72709223 42.96342983 7.4375 36.9375 C9.49355762 30.76932715 9.77030214 23.22108173 7.30859375 17.15625 C4.40895536 12.61373556 1.24280334 9.49351242 -3.5625 6.9375 C-4.325625 6.525 -5.08875 6.1125 -5.875 5.6875 C-15.09774194 3.11371155 -25.24670135 5.46528751 -31.5625 12.9375 Z " fill="#329192" transform="translate(704.5625,502.0625)"/>
<path d="M0 0 C7.85143449 4.75358959 13.28011409 11.02015862 15.95703125 19.859375 C17.81543433 29.09928564 16.11723913 38.06949189 11.0546875 46.0078125 C5.35648145 53.20062998 -2.24970048 57.16726731 -11.30859375 58.26171875 C-20.65542352 58.80867238 -28.04230812 56.01100389 -35.05078125 49.78125 C-41.32764433 43.07980934 -44.19148831 36.65407549 -44.0625 27.5 C-44.05492676 26.7486377 -44.04735352 25.99727539 -44.03955078 25.22314453 C-43.87276224 19.63146722 -43.09082932 15.45720218 -39.625 10.9375 C-39.22410156 10.339375 -38.82320312 9.74125 -38.41015625 9.125 C-29.59481819 -2.7309909 -13.29389085 -6.08880497 0 0 Z M-33.21484375 15.00390625 C-37.07384532 20.29533499 -37.39522737 25.53795655 -36.625 31.9375 C-34.47091188 39.30797448 -30.65685519 43.60044496 -24.625 48.25 C-18.83542497 51.35382031 -11.41203931 50.97647669 -5.21875 49.27734375 C0.54712141 46.71596626 4.73789903 42.26250851 7.5078125 36.63671875 C9.48417058 30.48508167 9.69963405 23.18056958 7.2421875 17.1640625 C3.29423609 10.9424218 -1.69049266 7.3615092 -8.625 4.9375 C-19.51619968 3.53743547 -26.40876151 6.55444196 -33.21484375 15.00390625 Z " fill="#329191" transform="translate(646.625,541.0625)"/>
<path d="M0 0 C4.06683013 1.5332417 6.26448702 4.3875514 8.8125 7.75 C9.2468335 8.31912109 9.68116699 8.88824219 10.12866211 9.47460938 C17.33645501 19.22140545 23.64728044 30.50263241 22 43 C19.07317073 48.46341463 19.07317073 48.46341463 16 50 C15.835 48.948125 15.67 47.89625 15.5 46.8125 C14.1594308 41.31323073 11.04226217 36.93369756 7.97265625 32.24609375 C5.93070232 28.88596758 4.4640456 25.63946132 3 22 C0.65028422 21.98489429 0.65028422 21.98489429 -2 23 C-3.77457477 25.22558795 -5.19076108 27.26165797 -6.625 29.6875 C-7.0065625 30.30044922 -7.388125 30.91339844 -7.78125 31.54492188 C-12.50755719 38.97879187 -12.50755719 38.97879187 -14.6875 47.375 C-14.8421875 49.169375 -14.8421875 49.169375 -15 51 C-18.43583004 47.7932253 -20.65379461 45.28131131 -21.37109375 40.5546875 C-21.65494702 29.10037299 -16.79675568 22.43534546 -9.15234375 14.3203125 C-5.16799313 10.02502345 -1.8732865 5.61985949 0 0 Z " fill="#F8FBF9" transform="translate(521,397)"/>
<path d="M0 0 C4.55555556 0.55555556 4.55555556 0.55555556 6 2 C6.10584361 4.78914774 6.14677813 7.55366478 6.14526367 10.34350586 C6.15030159 11.65563805 6.15030159 11.65563805 6.15544128 12.99427795 C6.16498128 15.90114746 6.16689591 18.80795955 6.16796875 21.71484375 C6.17117918 23.72644576 6.17454309 25.73804754 6.17805481 27.74964905 C6.1840537 31.97234641 6.18589393 36.19502328 6.18530273 40.41772461 C6.18520106 45.83984397 6.19885521 51.26183253 6.21607494 56.68392086 C6.22717045 60.84022124 6.2292227 64.99648975 6.22869301 69.15280342 C6.22987676 71.15236423 6.23432047 73.15192577 6.24202538 75.15147209 C6.25177614 77.94344224 6.2489668 80.73512525 6.24291992 83.52709961 C6.24853943 84.35990448 6.25415894 85.19270935 6.25994873 86.05075073 C6.22831534 91.77168466 6.22831534 91.77168466 4 94 C-0.55555556 93.44444444 -0.55555556 93.44444444 -2 92 C-2.10584361 89.21085226 -2.14677813 86.44633522 -2.14526367 83.65649414 C-2.14862228 82.78173935 -2.1519809 81.90698456 -2.15544128 81.00572205 C-2.16498128 78.09885254 -2.16689591 75.19204045 -2.16796875 72.28515625 C-2.17117918 70.27355424 -2.17454309 68.26195246 -2.17805481 66.25035095 C-2.1840537 62.02765359 -2.18589393 57.80497672 -2.18530273 53.58227539 C-2.18520106 48.16015603 -2.19885521 42.73816747 -2.21607494 37.31607914 C-2.22717045 33.15977876 -2.2292227 29.00351025 -2.22869301 24.84719658 C-2.22987676 22.84763577 -2.23432047 20.84807423 -2.24202538 18.84852791 C-2.25177614 16.05655776 -2.2489668 13.26487475 -2.24291992 10.47290039 C-2.25134918 9.22369308 -2.25134918 9.22369308 -2.25994873 7.94924927 C-2.22831534 2.22831534 -2.22831534 2.22831534 0 0 Z " fill="#3A9193" transform="translate(349,604)"/>
<path d="M0 0 C0 1.98 0 3.96 0 6 C-3.97471125 7.42833124 -7.67716442 8.35550714 -11.8671875 8.859375 C-12.98907471 9.0027832 -14.11096191 9.14619141 -15.2668457 9.29394531 C-16.45753662 9.44444336 -17.64822754 9.59494141 -18.875 9.75 C-29.56421909 11.16842153 -39.87909638 13.191368 -50.27099609 16.06933594 C-55.36424009 17.45962246 -59.71601845 18.32068302 -65 18 C-65.33 16.35 -65.66 14.7 -66 13 C-62.92661323 10.38412979 -60.4043525 9.3861448 -56.4765625 8.53515625 C-55.38359863 8.2942627 -54.29063477 8.05336914 -53.16455078 7.80517578 C-51.99649902 7.56009277 -50.82844727 7.31500977 -49.625 7.0625 C-47.82071533 6.67553955 -47.82071533 6.67553955 -45.97998047 6.28076172 C-42.32302392 5.50495589 -38.66256497 4.74884226 -35 4 C-33.94039062 3.78102051 -32.88078125 3.56204102 -31.7890625 3.33642578 C-21.12652696 1.1606454 -10.92793042 -0.74227452 0 0 Z " fill="#339594" transform="translate(604,528)"/>
<path d="M0 0 C0.495 2.475 0.495 2.475 1 5 C-3.89527064 7.31792283 -7.89902331 8.44594013 -13.3515625 8.96484375 C-21.42376329 9.83162984 -29.26983387 11.35443984 -37.19628906 13.08666992 C-39.42095734 13.57253708 -41.64772892 14.04770508 -43.875 14.52148438 C-50.61775089 15.72333015 -50.61775089 15.72333015 -57 18 C-59.6723621 18.13415472 -62.32250488 18.04318541 -65 18 C-65.33 16.35 -65.66 14.7 -66 13 C-62.57819738 10.77347402 -59.60639961 9.44630836 -55.6328125 8.53515625 C-54.59334473 8.2942627 -53.55387695 8.05336914 -52.48291016 7.80517578 C-51.3747998 7.56009277 -50.26668945 7.31500977 -49.125 7.0625 C-47.97692871 6.80452637 -46.82885742 6.54655273 -45.64599609 6.28076172 C-12.74548212 -0.986747 -12.74548212 -0.986747 0 0 Z " fill="#329593" transform="translate(604,506)"/>
<path d="M0 0 C1 1 1 1 1.0625 3.5625 C1.041875 4.366875 1.02125 5.17125 1 6 C-5.34807075 7.49486827 -11.70470359 8.6465321 -18.13989258 9.70043945 C-28.91808637 11.46662887 -39.54393459 13.32018891 -50.01318359 16.47583008 C-54.83603 17.88899123 -58.96811398 18.19721838 -64 18 C-64.33 16.35 -64.66 14.7 -65 13 C-62.16103262 10.63953763 -59.92420494 9.49961744 -56.32421875 8.71875 C-55.4213916 8.51805908 -54.51856445 8.31736816 -53.58837891 8.1105957 C-52.63108887 7.90909912 -51.67379883 7.70760254 -50.6875 7.5 C-49.69927246 7.28496826 -48.71104492 7.06993652 -47.69287109 6.84838867 C-44.79730475 6.22212294 -41.89898048 5.61022996 -39 5 C-37.59233717 4.69452028 -36.18477066 4.38859606 -34.77734375 4.08203125 C-23.35981085 1.67641202 -11.70218558 -0.36927463 0 0 Z " fill="#319493" transform="translate(603,484)"/>
<path d="M0 0 C0.66 0.66 1.32 1.32 2 2 C1.8125 4.5 1.8125 4.5 1 7 C-2.78175907 9.52117272 -6.22010353 9.6132286 -10.625 10 C-16.89844437 10.56744723 -22.87924279 11.50906242 -29 13 C-31.7884087 13.67012983 -34.57710309 14.33883032 -37.3671875 15.00195312 C-39.30650359 15.46313195 -41.24399996 15.93202399 -43.1796875 16.40820312 C-44.11554687 16.62798828 -45.05140625 16.84777344 -46.015625 17.07421875 C-47.27294434 17.37718872 -47.27294434 17.37718872 -48.55566406 17.6862793 C-51.27979686 18.0359108 -53.35281443 17.67479016 -56 17 C-56.33 15.35 -56.66 13.7 -57 12 C-52.59759118 9.59087938 -48.55775772 8.27030106 -43.65234375 7.24609375 C-42.95919571 7.09970963 -42.26604767 6.9533255 -41.55189514 6.80250549 C-40.08953081 6.49536559 -38.62632633 6.19220156 -37.16235352 5.89282227 C-34.96628161 5.44339023 -32.77309917 4.98164299 -30.58007812 4.51757812 C-6.60887731 -0.5078273 -6.60887731 -0.5078273 0 0 Z " fill="#359593" transform="translate(595,550)"/>
<path d="M0 0 C1.17369141 -0.02513672 1.17369141 -0.02513672 2.37109375 -0.05078125 C5.13037941 0.40664044 5.85031682 1.13106032 7.5625 3.3125 C7.9367218 5.44410706 7.9367218 5.44410706 7.93481445 7.93579102 C7.94104324 8.87008438 7.94727203 9.80437775 7.95368958 10.76698303 C7.94447983 11.77329269 7.93527008 12.77960236 7.92578125 13.81640625 C7.92627975 14.85063217 7.92677826 15.88485809 7.92729187 16.95042419 C7.92495098 19.1368095 7.91522159 21.32319748 7.89868164 23.50952148 C7.87506815 26.86531527 7.87812329 30.22031603 7.88476562 33.57617188 C7.87918974 35.69792143 7.87208043 37.81966762 7.86328125 39.94140625 C7.86464836 41.45390709 7.86464836 41.45390709 7.86604309 42.9969635 C7.85651108 43.92810471 7.84697906 44.85924591 7.8371582 45.81860352 C7.83255081 46.64006363 7.82794342 47.46152374 7.82319641 48.30787659 C7.5625 50.3125 7.5625 50.3125 5.5625 52.3125 C1.00694444 51.75694444 1.00694444 51.75694444 -0.4375 50.3125 C-0.52624135 47.20998799 -0.55268455 44.1298188 -0.53515625 41.02734375 C-0.5337413 40.09652481 -0.53232635 39.16570587 -0.53086853 38.2066803 C-0.52525172 35.22108809 -0.5126964 32.23556971 -0.5 29.25 C-0.49498716 27.23112087 -0.49042388 25.21224057 -0.48632812 23.19335938 C-0.47527683 18.23304428 -0.45800095 13.27278468 -0.4375 8.3125 C-2.0875 7.9825 -3.7375 7.6525 -5.4375 7.3125 C-6.0625 4.9375 -6.0625 4.9375 -6.4375 2.3125 C-4.02263057 -0.10236943 -3.31042211 0.0163075 0 0 Z " fill="#3E9796" transform="translate(634.4375,477.6875)"/>
<path d="M0 0 C1 1 1 1 1.0625 3.5625 C1.041875 4.366875 1.02125 5.17125 1 6 C-2.88965861 8.45443698 -7.16681342 8.69014899 -11.625 9.25 C-21.35662862 10.56229399 -30.81181603 12.70292301 -40.32861328 15.10644531 C-41.91198486 15.49461426 -41.91198486 15.49461426 -43.52734375 15.890625 C-44.93101196 16.24688965 -44.93101196 16.24688965 -46.36303711 16.61035156 C-49.2005678 17.02963672 -51.24336258 16.72728572 -54 16 C-54.6875 14.1875 -54.6875 14.1875 -55 12 C-52.59002032 8.59412045 -49.52601983 8.14327634 -45.6015625 7.24609375 C-44.31636719 6.94896484 -43.03117188 6.65183594 -41.70703125 6.34570312 C-40.69890381 6.1215271 -40.69890381 6.1215271 -39.67041016 5.89282227 C-37.66409127 5.44620198 -35.66206944 4.98350224 -33.66015625 4.51757812 C-22.58612744 1.97317592 -11.41752397 -0.5708762 0 0 Z " fill="#339594" transform="translate(593,573)"/>
<path d="M0 0 C0.66 0 1.32 0 2 0 C5.63932166 4.55326895 8.6635153 9.1034499 9.6875 14.875 C8.83825809 18.73519051 8.06751516 20.46929999 5 23 C2.1495547 23.77102209 -0.15541093 23.80858462 -3 23 C-6.33998654 19.74147655 -6.97245308 17.84018115 -7.125 13.1875 C-6.19738934 8.13934515 -3.34009349 3.82737504 0 0 Z " fill="#F7FBFA" transform="translate(520,430)"/>
<path d="M0 0 C1.19496094 0.02320313 1.19496094 0.02320313 2.4140625 0.046875 C4.375 0.25 4.375 0.25 5.375 1.25 C5.41580783 3.24958364 5.41754356 5.25045254 5.375 7.25 C3.725 7.58 2.075 7.91 0.375 8.25 C0.375 10.89 0.375 13.53 0.375 16.25 C-1.9375 16.9375 -1.9375 16.9375 -4.625 17.25 C-6.26953125 16.11328125 -6.26953125 16.11328125 -7.625 14.25 C-8.0234375 11.65625 -8.0234375 11.65625 -8 8.75 C-8.00773437 7.7909375 -8.01546875 6.831875 -8.0234375 5.84375 C-7.625 3.25 -7.625 3.25 -6.390625 1.421875 C-4.12024767 -0.08501261 -2.7047441 -0.08810241 0 0 Z " fill="#349497" transform="translate(409.625,477.75)"/>
<path d="M0 0 C0.69416016 -0.01224609 1.38832031 -0.02449219 2.10351562 -0.03710938 C3.92470901 -0.04239842 5.7453692 0.06580793 7.5625 0.1875 C8.2225 0.8475 8.8825 1.5075 9.5625 2.1875 C9.00694444 6.74305556 9.00694444 6.74305556 7.5625 8.1875 C5.25256618 8.31307162 2.93831464 8.36325729 0.625 8.375 C-0.64214844 8.38917969 -1.90929687 8.40335937 -3.21484375 8.41796875 C-6.4375 8.1875 -6.4375 8.1875 -8.4375 6.1875 C-8.625 3.625 -8.625 3.625 -8.4375 1.1875 C-6.45630645 -0.79369355 -2.70304936 0.00249589 0 0 Z " fill="#419B9B" transform="translate(564.4375,409.8125)"/>
<path d="M0 0 C0.79296875 2.1640625 0.79296875 2.1640625 1 5 C-0.94921875 7.7109375 -0.94921875 7.7109375 -3.6875 10.375 C-4.57824219 11.26960938 -5.46898437 12.16421875 -6.38671875 13.0859375 C-9 15 -9 15 -11.33203125 14.7890625 C-11.88246094 14.52867187 -12.43289063 14.26828125 -13 14 C-13.73828125 11.796875 -13.73828125 11.796875 -14 9 C-12.41796875 6.578125 -12.41796875 6.578125 -10.1875 4.25 C-9.09501953 3.08210938 -9.09501953 3.08210938 -7.98046875 1.890625 C-4.97939118 -0.97430901 -3.8709195 -1.16127585 0 0 Z " fill="#3D9899" transform="translate(558,377)"/>
<path d="M0 0 C4.53422607 0.345166 6.69895448 2.10519428 9.875 5.25 C10.67679687 6.01828125 11.47859375 6.7865625 12.3046875 7.578125 C14 10 14 10 13.7578125 12.796875 C13.38269531 13.88742187 13.38269531 13.88742187 13 15 C10.80078125 15.7890625 10.80078125 15.7890625 8 16 C5.54296875 14.0859375 5.54296875 14.0859375 3.1875 11.375 C2.39730469 10.49585938 1.60710937 9.61671875 0.79296875 8.7109375 C-1.1510264 5.77165071 -1.50129465 4.44262593 -1 1 C-0.67 0.67 -0.34 0.34 0 0 Z " fill="#39979A" transform="translate(485,376)"/>
<path d="M0 0 C2.45862401 -0.05383848 4.9160755 -0.09359038 7.375 -0.125 C8.42300781 -0.15013672 8.42300781 -0.15013672 9.4921875 -0.17578125 C11.32897486 -0.19344267 13.16601963 -0.10303261 15 0 C15.66 0.66 16.32 1.32 17 2 C16.67 3.65 16.34 5.3 16 7 C10.72 7 5.44 7 0 7 C-1 2 -1 2 0 0 Z " fill="#40999B" transform="translate(470,410)"/>
<path d="M0 0 C2.5 0.125 2.5 0.125 3.5 1.125 C3.59975032 3.63636104 3.63882183 6.11403415 3.625 8.625 C3.62886719 9.32753906 3.63273438 10.03007812 3.63671875 10.75390625 C3.62661378 15.99838622 3.62661378 15.99838622 2.5 17.125 C0 17.25 0 17.25 -2.5 17.125 C-4.25559942 15.36940058 -3.63221919 13.08917558 -3.63671875 10.75390625 C-3.63285156 10.05136719 -3.62898437 9.34882813 -3.625 8.625 C-3.62886719 7.92246094 -3.63273438 7.21992188 -3.63671875 6.49609375 C-3.62455138 0.18122757 -3.62455138 0.18122757 0 0 Z " fill="#308F91" transform="translate(521.5,360.875)"/>
<path d="M0 0 C0.33 0.66 0.66 1.32 1 2 C1.66 2 2.32 2 3 2 C3.50675332 4.78714325 3.32573728 6.48478156 1.8046875 8.890625 C-1.11476193 12.49959264 -1.11476193 12.49959264 -3 14 C-4.32 14 -5.64 14 -7 14 C-8.55121053 8.03380565 -8.55121053 8.03380565 -7.05859375 5.234375 C-4.87725478 2.55165364 -3.30294416 1.10098139 0 0 Z " fill="#2E8C8F" transform="translate(511,403)"/>
<path d="M0 0 C0.66 0.99 1.32 1.98 2 3 C4.25609633 5.763718 6.47666237 8.47666237 9 11 C8.360625 11.268125 7.72125 11.53625 7.0625 11.8125 C4.66868314 12.88667752 4.66868314 12.88667752 4 16 C-0.28904235 14.4114658 -2.32345526 11.56872632 -5 8 C-5 7.34 -5 6.68 -5 6 C-3.68 5.67 -2.36 5.34 -1 5 C-0.67 3.35 -0.34 1.7 0 0 Z " fill="#369A9C" transform="translate(298,585)"/>
<path d="M0 0 C0.33 1.32 0.66 2.64 1 4 C2.1446875 2.9790625 2.1446875 2.9790625 3.3125 1.9375 C4.199375 1.298125 5.08625 0.65875 6 0 C6.99 0.33 7.98 0.66 9 1 C7.68 3.97 6.36 6.94 5 10 C4.071875 9.896875 3.14375 9.79375 2.1875 9.6875 C1.135625 9.790625 0.08375 9.89375 -1 10 C-2.78969026 12.42672567 -2.78969026 12.42672567 -4 15 C-4.66 15 -5.32 15 -6 15 C-4.40109514 9.80355921 -2.25861997 4.93387858 0 0 Z " fill="#399695" transform="translate(760,633)"/>
<path d="M0 0 C11.55 0 23.1 0 35 0 C35 0.33 35 0.66 35 1 C19.16 1.495 19.16 1.495 3 2 C4.9254644 4.2236068 4.9254644 4.2236068 8 5 C8 5.33 8 5.66 8 6 C6.02 6 4.04 6 2 6 C2 5.34 2 4.68 2 4 C1.34 4 0.68 4 0 4 C0 2.68 0 1.36 0 0 Z " fill="#278988" transform="translate(672,569)"/>
<path d="M0 0 C0.66 0 1.32 0 2 0 C2 0.66 2 1.32 2 2 C3.32 1.67 4.64 1.34 6 1 C5.67 3.31 5.34 5.62 5 8 C3.35 8 1.7 8 0 8 C0 5.33333333 0 2.66666667 0 0 Z " fill="#2A8889" transform="translate(654,577)"/>
<path d="M0 0 C0.99 0.33 1.98 0.66 3 1 C1 3 1 3 -2.0625 5.5625 C-6.63214848 9.44766527 -10.80463576 13.71901608 -15 18 C-15 15 -15 15 -13.62304688 13.2824707 C-12.99462891 12.66976318 -12.36621094 12.05705566 -11.71875 11.42578125 C-11.04199219 10.75869141 -10.36523438 10.09160156 -9.66796875 9.40429688 C-8.95253906 8.71400391 -8.23710937 8.02371094 -7.5 7.3125 C-6.42685547 6.2596582 -6.42685547 6.2596582 -5.33203125 5.18554688 C-3.56120423 3.45013639 -1.78376544 1.7220927 0 0 Z " fill="#29928D" transform="translate(321,320)"/>
<path d="M0 0 C0.99 0 1.98 0 3 0 C3.33 2.31 3.66 4.62 4 7 C3.01 6.34 2.02 5.68 1 5 C-0.32 5.99 -1.64 6.98 -3 8 C-2.25 2.25 -2.25 2.25 0 0 Z " fill="#2D8B8B" transform="translate(273,379)"/>
<path d="M0 0 C0.33 0 0.66 0 1 0 C1.02685095 2.47923801 1.04676547 4.9581884 1.0625 7.4375 C1.07087891 8.14455078 1.07925781 8.85160156 1.08789062 9.58007812 C1.09653588 11.38693559 1.05220011 13.19387603 1 15 C0 16 0 16 -2.5625 16.0625 C-3.366875 16.041875 -4.17125 16.02125 -5 16 C-5.33 15.01 -5.66 14.02 -6 13 C-2.25 11.875 -2.25 11.875 0 13 C0 8.71 0 4.42 0 0 Z " fill="#4C9F9F" transform="translate(524,362)"/>
<path d="M0 0 C0.9075 0.185625 1.815 0.37125 2.75 0.5625 C5.68314324 0.95734621 7.2644657 0.94691572 10 0 C9.34 1.32 8.68 2.64 8 4 C7.34 4 6.68 4 6 4 C5.67 5.32 5.34 6.64 5 8 C2.525 4.04 2.525 4.04 0 0 Z " fill="#3B9897" transform="translate(667,622)"/>
<path d="M0 0 C0.99 0 1.98 0 3 0 C3 1.32 3 2.64 3 4 C6.63 4.33 10.26 4.66 14 5 C14 5.33 14 5.66 14 6 C9.38 6 4.76 6 0 6 C-0.33 4.35 -0.66 2.7 -1 1 C-0.67 0.67 -0.34 0.34 0 0 Z " fill="#2D9191" transform="translate(470,411)"/>
<path d="M0 0 C1.9375 0.8125 1.9375 0.8125 4 2 C4.33 2.99 4.66 3.98 5 5 C5.99 5.33 6.98 5.66 8 6 C8.33 6.99 8.66 7.98 9 9 C6 9 6 9 4.39453125 7.5390625 C3.61142578 6.59160156 3.61142578 6.59160156 2.8125 5.625 C2.28269531 4.99851562 1.75289062 4.37203125 1.20703125 3.7265625 C0 2 0 2 0 0 Z " fill="#3A9B95" transform="translate(606,582)"/>
<path d="M0 0 C2.125 0.375 2.125 0.375 4 1 C3.360625 1.226875 2.72125 1.45375 2.0625 1.6875 C-0.24550302 2.83446488 -0.24550302 2.83446488 -0.6875 5.4375 C-0.790625 6.283125 -0.89375 7.12875 -1 8 C-1.33 8.99 -1.66 9.98 -2 11 C-2.66 11 -3.32 11 -4 11 C-3.71758359 9.53984709 -3.42373386 8.08190207 -3.125 6.625 C-2.96257813 5.81289063 -2.80015625 5.00078125 -2.6328125 4.1640625 C-2 2 -2 2 0 0 Z " fill="#4AA29D" transform="translate(518,386)"/>
<path d="M0 0 C2.88437779 1.29299694 4.87219421 2.65941363 7 5 C4.03 7.475 4.03 7.475 1 10 C1 6 1 6 3 4 C1.68 3.01 0.36 2.02 -1 1 C-0.67 0.67 -0.34 0.34 0 0 Z " fill="#3A969A" transform="translate(712,707)"/>
<path d="M0 0 C0.99 0 1.98 0 3 0 C1.68938409 4.23429756 0.05643741 8.07407404 -2 12 C-2.66 12 -3.32 12 -4 12 C-2.66666667 8 -1.33333333 4 0 0 Z " fill="#3C968F" transform="translate(765,621)"/>
<path d="M0 0 C2.375 -0.125 2.375 -0.125 5 0 C7 2 7 2 7 6 C6.01 5.67 5.02 5.34 4 5 C4 4.34 4 3.68 4 3 C2.68 2.67 1.36 2.34 0 2 C0 1.34 0 0.68 0 0 Z " fill="#459C9B" transform="translate(590,550)"/>
<path d="M0 0 C0.66 0.33 1.32 0.66 2 1 C2 1.66 2 2.32 2 3 C1.34 3 0.68 3 0 3 C0 3.99 0 4.98 0 6 C-2.49064888 6.68707555 -4.37886292 7 -7 7 C-4.69 4.69 -2.38 2.38 0 0 Z " fill="#3D9B9A" transform="translate(710,709)"/>
<path d="M0 0 C0 0.33 0 0.66 0 1 C-1.093125 1.12375 -2.18625 1.2475 -3.3125 1.375 C-7.07381802 1.75464801 -7.07381802 1.75464801 -10 4 C-12.6875 3.625 -12.6875 3.625 -15 3 C-9.97583178 -0.34944548 -5.90048743 -0.09834146 0 0 Z " fill="#58A9A4" transform="translate(620,607)"/>
<path d="M0 0 C1.1446875 0.3403125 1.1446875 0.3403125 2.3125 0.6875 C1.673125 0.790625 1.03375 0.89375 0.375 1 C-0.6459375 1.3403125 -0.6459375 1.3403125 -1.6875 1.6875 C-2.0175 2.6775 -2.3475 3.6675 -2.6875 4.6875 C-3.6775 5.0175 -4.6675 5.3475 -5.6875 5.6875 C-5.6875 2.6875 -5.6875 2.6875 -4.5 0.9375 C-2.6875 -0.3125 -2.6875 -0.3125 0 0 Z " fill="#369B9B" transform="translate(508.6875,633.3125)"/>
<path d="M0 0 C0.99 0.33 1.98 0.66 3 1 C-1.625 6.875 -1.625 6.875 -5 8 C-4.67 6.68 -4.34 5.36 -4 4 C-3.34 4 -2.68 4 -2 4 C-2 3.34 -2 2.68 -2 2 C-1.34 2 -0.68 2 0 2 C0 1.34 0 0.68 0 0 Z " fill="#3C989B" transform="translate(655,585)"/>
<path d="M0 0 C-0.33 1.65 -0.66 3.3 -1 5 C-2.65 5.33 -4.3 5.66 -6 6 C-6 4 -6 4 -4.125 1.875 C-2 0 -2 0 0 0 Z " fill="#459B9B" transform="translate(499,386)"/>
<path d="M0 0 C2.78388975 1.70625501 3.85384206 2.47626739 4.75 5.6875 C4.8325 6.450625 4.915 7.21375 5 8 C3.02 6.35 1.04 4.7 -1 3 C-0.67 2.01 -0.34 1.02 0 0 Z " fill="#2C8D85" transform="translate(716,341)"/>
<path d="M0 0 C-2.12780579 2.34058637 -4.11562221 3.70700306 -7 5 C-6.625 2.5625 -6.625 2.5625 -6 0 C-3.50907189 -1.24546405 -2.58919267 -0.7767578 0 0 Z " fill="#40A09C" transform="translate(545,583)"/>
<path d="M0 0 C0.99 0.33 1.98 0.66 3 1 C2.01 2.98 1.02 4.96 0 7 C-0.66 6.01 -1.32 5.02 -2 4 C-1.34 2.68 -0.68 1.36 0 0 Z " fill="#3E9799" transform="translate(747,669)"/>
<path d="M0 0 C1.65 0 3.3 0 5 0 C5 0.99 5 1.98 5 3 C4.34 3 3.68 3 3 3 C3 3.66 3 4.32 3 5 C2.01 4.67 1.02 4.34 0 4 C0 2.68 0 1.36 0 0 Z " fill="#439D9C" transform="translate(699,354)"/>
</svg>
